<?xml version="1.0" encoding="UTF-8" standalone="no"?>
<!DOCTYPE svg PUBLIC "-//W3C//DTD SVG 1.1//EN" "http://www.w3.org/Graphics/SVG/1.1/DTD/svg11.dtd">
<svg xmlns="http://www.w3.org/2000/svg" version="1.1" viewBox="0.00 0.00 183.00 150.00">
<path fill="#2c3f7e" d="
  M 182.6515 138.7910
  A 10.80 10.80 0.0 0 1 171.8704 149.6098
  L 11.3906 149.8899
  A 10.80 10.80 0.0 0 1 0.5718 139.1088
  L 0.3485 11.1890
  A 10.80 10.80 0.0 0 1 11.1296 0.3702
  L 171.6094 0.0901
  A 10.80 10.80 0.0 0 1 182.4282 10.8712
  L 182.6515 138.7910
  Z
  M 7.68 4.22
  C 5.96 5.19 3.58 7.91 3.56 10.06
  Q 3.43 21.57 3.56 33.34
  Q 3.56 33.80 4.02 33.80
  L 178.78 33.80
  Q 179.38 33.80 179.40 33.19
  Q 179.65 22.47 179.41 11.76
  C 179.23 4.07 174.37 3.26 167.64 3.26
  Q 90.12 3.27 12.61 3.27
  Q 9.34 3.27 7.68 4.22
  Z
  M 68.34 114.51
  L 60.60 139.51
  A 0.18 0.18 0.0 0 0 60.92 139.67
  L 78.43 115.26
  A 0.42 0.42 0.0 0 0 78.03 114.59
  L 77.07 114.71
  A 0.50 0.50 0.0 0 1 76.53 114.05
  L 83.06 94.95
  Q 83.24 94.40 83.82 94.45
  L 87.99 94.83
  Q 88.50 94.88 88.36 95.37
  L 83.04 113.46
  Q 82.89 114.00 83.45 114.00
  L 90.18 113.99
  Q 90.83 113.99 90.64 114.61
  L 82.81 140.26
  Q 82.37 141.70 83.28 140.49
  L 102.26 115.20
  Q 102.69 114.63 101.97 114.64
  L 100.53 114.66
  Q 99.86 114.66 100.07 114.03
  L 114.41 70.93
  Q 114.63 70.28 113.95 70.28
  L 105.74 70.28
  Q 105.19 70.28 105.35 69.75
  L 113.21 43.75
  A 0.26 0.26 0.0 0 0 112.75 43.52
  L 94.22 69.24
  Q 93.82 69.79 94.50 69.78
  L 95.96 69.76
  Q 96.54 69.75 96.37 70.30
  L 90.40 89.02
  Q 90.24 89.52 89.72 89.49
  L 85.54 89.24
  Q 84.89 89.20 85.08 88.57
  L 90.64 70.87
  A 0.47 0.46 8.6 0 0 90.19 70.27
  L 82.49 70.28
  Q 82.01 70.28 82.15 69.83
  L 90.33 43.48
  A 0.12 0.12 0.0 0 0 90.11 43.37
  L 71.50 69.31
  Q 71.13 69.82 71.77 69.82
  L 72.84 69.82
  Q 73.64 69.82 73.40 70.58
  L 59.81 113.46
  Q 59.65 113.98 60.19 113.99
  L 67.96 113.99
  Q 68.50 113.99 68.34 114.51
  Z
  M 59.49 91.69
  Q 61.10 91.11 61.45 90.00
  Q 63.87 82.30 66.19 75.46
  Q 67.96 70.27 62.48 70.27
  L 30.58 70.24
  Q 29.95 70.24 29.75 70.83
  L 15.05 113.11
  A 0.68 0.67 9.5 0 0 15.69 114.00
  L 49.52 113.99
  A 4.07 4.06 10.8 0 0 53.30 111.43
  Q 56.32 103.85 59.44 95.54
  C 59.90 94.31 59.63 93.52 59.17 92.40
  Q 58.96 91.88 59.49 91.69
  Z
  M 125.17 108.75
  A 0.51 0.51 0.0 0 1 124.73 108.07
  L 129.50 95.04
  A 0.51 0.51 0.0 0 1 129.97 94.71
  L 138.43 94.62
  A 0.51 0.51 0.0 0 0 138.92 94.24
  L 139.94 90.37
  A 0.51 0.51 0.0 0 0 139.46 89.73
  L 132.04 89.49
  A 0.51 0.51 0.0 0 1 131.57 88.82
  L 136.21 75.21
  A 0.51 0.51 0.0 0 1 136.69 74.86
  L 145.14 74.70
  A 0.51 0.51 0.0 0 0 145.61 74.35
  L 146.73 71.01
  A 0.51 0.51 0.0 0 0 146.24 70.34
  L 121.03 70.26
  A 0.51 0.51 0.0 0 0 120.55 70.60
  L 105.59 113.32
  A 0.51 0.51 0.0 0 0 106.06 114.00
  L 131.77 114.24
  A 0.51 0.51 0.0 0 0 132.27 113.85
  L 133.23 109.97
  A 0.51 0.51 0.0 0 0 132.78 109.33
  L 125.17 108.75
  Z
  M 155.43 108.41
  L 167.56 71.24
  Q 167.70 70.79 167.23 70.78
  L 151.31 70.26
  Q 150.80 70.25 150.64 70.72
  L 136.31 111.99
  Q 135.59 114.05 137.78 114.07
  L 161.92 114.24
  A 0.80 0.80 0.0 0 0 162.70 113.68
  L 163.95 109.92
  Q 164.21 109.13 163.38 109.11
  L 155.77 108.90
  Q 155.27 108.89 155.43 108.41
  Z"
/>
<path fill="#2c3f7e" d="
  M 105.82 18.32
  A 0.49 0.49 0.0 0 0 106.31 18.92
  L 110.87 18.85
  Q 111.50 18.84 111.64 19.46
  Q 112.28 22.47 110.57 25.92
  C 109.23 28.62 107.03 27.70 104.70 27.77
  Q 104.28 27.78 104.17 28.19
  L 103.39 31.10
  A 0.88 0.88 0.0 0 1 102.53 31.75
  L 99.72 31.74
  A 0.49 0.49 0.0 0 1 99.32 30.98
  Q 100.77 28.81 99.52 26.57
  A 0.99 0.97 49.3 0 1 99.59 25.49
  Q 101.14 23.45 103.75 24.09
  Q 104.27 24.22 104.57 24.66
  Q 105.25 25.66 106.51 25.34
  A 0.80 0.79 -1.2 0 0 107.10 24.73
  L 107.61 22.20
  Q 107.74 21.53 107.06 21.52
  L 102.82 21.41
  A 1.32 1.32 0.0 0 1 101.56 19.82
  L 102.45 15.65
  A 2.39 2.38 5.9 0 1 104.79 13.76
  Q 106.78 13.76 109.15 13.74
  Q 109.92 13.73 110.23 13.35
  Q 110.53 12.96 110.39 12.44
  Q 110.26 11.95 109.75 11.95
  L 95.20 11.99
  Q 94.64 11.99 94.80 11.45
  L 95.13 10.31
  Q 95.30 9.71 95.92 9.71
  L 110.59 9.70
  A 0.61 0.60 9.5 0 0 111.16 9.30
  L 112.54 5.43
  A 0.79 0.78 -80.0 0 1 113.26 4.92
  C 115.29 4.89 120.41 4.49 121.90 5.31
  Q 123.25 6.05 122.62 7.35
  A 3.10 2.51 37.8 0 1 118.01 7.45
  Q 117.38 6.81 116.50 7.11
  A 1.34 1.34 0.0 0 0 116.94 9.72
  L 122.76 9.71
  Q 123.33 9.71 123.22 10.27
  L 123.02 11.31
  Q 122.88 12.01 122.17 12.00
  L 115.44 11.97
  Q 114.84 11.97 114.69 12.55
  L 113.98 15.28
  Q 113.82 15.88 113.21 15.87
  L 106.83 15.80
  Q 106.37 15.80 106.27 16.25
  L 105.82 18.32
  Z"
/>
<path fill="#2c3f7e" d="
  M 40.94 11.91
  L 39.63 11.88
  Q 38.91 11.85 38.71 12.55
  L 33.55 30.77
  Q 33.43 31.20 32.99 31.19
  L 29.82 31.17
  Q 29.16 31.17 29.39 30.55
  L 30.21 28.31
  Q 30.42 27.74 29.82 27.75
  L 23.73 27.75
  Q 20.77 27.76 21.61 24.91
  L 24.34 15.64
  A 2.31 2.31 0.0 0 1 26.50 13.99
  Q 30.24 13.90 33.39 13.81
  Q 34.16 13.78 34.48 13.41
  Q 34.81 13.02 34.71 12.51
  Q 34.61 11.96 34.04 11.96
  L 17.97 11.99
  Q 17.44 11.99 17.55 11.47
  L 17.81 10.26
  Q 17.93 9.71 18.49 9.71
  L 34.90 9.70
  A 0.66 0.64 9.3 0 0 35.52 9.27
  L 36.83 5.67
  A 1.05 1.05 0.0 0 1 37.83 4.99
  L 45.37 5.07
  A 1.65 1.65 0.0 0 1 46.94 7.18
  L 46.38 9.16
  Q 46.22 9.71 46.79 9.71
  L 49.71 9.72
  Q 50.11 9.72 50.18 10.11
  Q 50.38 11.34 49.51 11.79
  Q 49.09 12.01 48.01 11.94
  Q 47.06 11.88 46.11 11.94
  Q 45.59 11.97 45.45 12.47
  L 40.39 30.77
  Q 40.24 31.30 39.70 31.29
  L 36.80 31.24
  Q 36.22 31.23 36.38 30.67
  L 41.38 12.51
  Q 41.54 11.93 40.94 11.91
  Z
  M 39.96 9.52
  L 41.96 9.91
  A 0.27 0.27 0.0 0 0 42.28 9.70
  L 42.58 8.13
  A 0.96 0.87 11.0 0 0 41.81 7.09
  L 41.16 6.96
  A 0.96 0.87 11.0 0 0 40.05 7.63
  L 39.74 9.20
  A 0.27 0.27 0.0 0 0 39.96 9.52
  Z
  M 33.42 16.41
  A 0.32 0.32 0.0 0 0 33.11 16.00
  L 30.48 16.07
  A 0.32 0.32 0.0 0 0 30.19 16.50
  L 31.60 20.26
  A 0.32 0.32 0.0 0 0 32.21 20.25
  L 33.42 16.41
  Z
  M 29.16 24.84
  L 27.60 19.98
  Q 27.27 18.96 27.00 20.00
  L 25.78 24.79
  A 0.53 0.53 0.0 0 0 26.30 25.45
  L 28.71 25.45
  Q 29.35 25.45 29.16 24.84
  Z"
/>
<path fill="#2c3f7e" d="
  M 63.70 11.88
  L 59.93 11.96
  Q 59.32 11.98 59.17 12.57
  L 56.91 21.33
  A 1.31 1.26 38.4 0 0 57.04 22.31
  L 61.74 30.55
  Q 62.03 31.07 61.44 31.08
  L 58.05 31.13
  A 0.91 0.91 0.0 0 1 57.26 30.67
  L 52.83 22.57
  A 1.13 1.13 0.0 0 1 52.73 21.73
  L 55.28 12.48
  Q 55.47 11.77 54.75 11.86
  L 53.71 11.99
  Q 53.10 12.06 53.24 11.46
  L 53.52 10.27
  Q 53.66 9.71 54.23 9.71
  L 91.51 9.71
  Q 92.09 9.71 91.92 10.26
  L 91.57 11.44
  Q 91.40 12.00 90.81 11.99
  L 88.52 11.93
  Q 87.92 11.92 87.76 12.49
  L 82.62 30.76
  Q 82.48 31.24 81.98 31.23
  L 79.03 31.18
  Q 78.47 31.18 78.60 30.63
  L 79.21 28.19
  A 0.53 0.53 0.0 0 0 78.70 27.53
  L 73.43 27.51
  Q 69.95 27.50 70.90 24.16
  L 73.12 16.36
  Q 73.29 15.78 72.69 15.77
  L 70.66 15.72
  Q 70.08 15.71 70.27 15.17
  L 70.62 14.16
  Q 70.83 13.56 71.47 13.57
  L 79.44 13.70
  Q 79.90 13.71 79.96 14.17
  Q 80.20 16.04 78.34 15.81
  A 0.74 0.73 11.8 0 0 77.55 16.32
  L 75.02 24.55
  A 0.58 0.57 9.2 0 0 75.56 25.29
  L 79.44 25.39
  A 0.78 0.76 -81.7 0 0 80.19 24.82
  L 83.60 12.42
  Q 83.73 11.94 83.23 11.94
  L 68.80 11.91
  Q 68.35 11.91 68.22 12.34
  C 67.45 14.88 66.57 21.26 64.37 22.53
  Q 62.51 23.61 60.00 22.72
  Q 59.49 22.54 59.60 22.02
  Q 59.88 20.58 61.36 20.61
  A 0.70 0.70 0.0 0 0 62.05 20.09
  L 64.06 12.34
  Q 64.18 11.87 63.70 11.88
  Z"
/>
<path fill="#2c3f7e" d="
  M 136.80 11.94
  L 133.03 11.95
  Q 132.54 11.95 132.42 12.43
  L 130.16 21.30
  Q 130.02 21.85 130.29 22.34
  L 134.90 30.52
  Q 135.23 31.11 134.55 31.11
  L 131.23 31.12
  Q 130.76 31.12 130.53 30.71
  L 126.15 22.73
  A 1.43 1.41 -52.5 0 1 126.02 21.67
  L 128.43 12.73
  Q 128.67 11.82 127.74 11.92
  L 126.73 12.03
  A 0.57 0.57 0.0 0 1 126.12 11.30
  L 126.43 10.18
  A 0.66 0.64 7.5 0 1 127.06 9.71
  L 164.96 9.71
  Q 165.41 9.71 165.40 10.16
  Q 165.30 12.70 162.78 11.84
  A 0.58 0.58 0.0 0 0 162.03 12.24
  L 156.83 30.76
  Q 156.70 31.23 156.21 31.22
  L 153.29 31.21
  Q 152.62 31.20 152.80 30.55
  L 156.73 16.56
  Q 156.96 15.74 156.11 15.80
  L 154.61 15.92
  Q 153.94 15.98 153.79 16.64
  L 152.49 22.38
  A 0.62 0.61 -83.5 0 1 151.89 22.86
  L 149.01 22.85
  Q 148.40 22.85 148.55 22.25
  L 150.02 16.53
  Q 150.18 15.91 149.54 15.90
  L 147.99 15.90
  Q 147.36 15.90 147.19 16.51
  L 143.37 30.57
  Q 143.23 31.11 142.67 31.13
  L 139.79 31.20
  Q 139.14 31.22 139.31 30.60
  Q 141.40 22.91 143.59 15.30
  C 144.14 13.39 146.35 13.80 147.69 13.70
  Q 150.10 13.52 152.45 14.11
  Q 152.92 14.23 153.37 14.04
  C 154.49 13.55 157.30 13.76 157.75 13.35
  Q 158.12 13.01 157.99 12.36
  A 0.53 0.53 0.0 0 0 157.47 11.93
  L 142.00 11.96
  A 0.59 0.57 6.9 0 0 141.43 12.39
  L 138.76 22.07
  A 0.89 0.89 0.0 0 1 137.96 22.72
  L 133.25 22.96
  Q 132.59 22.99 132.69 22.33
  Q 132.95 20.70 134.49 20.58
  A 0.81 0.80 5.6 0 0 135.21 19.99
  L 137.27 12.55
  Q 137.44 11.94 136.80 11.94
  Z"
/>
<path fill="#2c3f7e" d="
  M 47.83 76.09
  C 47.03 79.33 45.57 83.19 44.09 86.59
  C 42.97 89.16 41.20 89.69 38.72 88.68
  A 0.58 0.57 20.9 0 1 38.39 87.96
  L 42.64 75.55
  Q 42.91 74.78 43.73 74.83
  L 47.04 75.02
  A 0.87 0.87 0.0 0 1 47.83 76.09
  Z"
/>
<path fill="#2c3f7e" d="
  M 40.94 96.90
  C 39.95 100.08 38.78 103.35 37.47 106.39
  C 36.30 109.09 34.57 109.77 31.89 108.71
  Q 31.41 108.53 31.58 108.04
  L 35.90 95.56
  Q 36.10 94.97 36.72 94.95
  L 39.40 94.87
  A 1.57 1.57 0.0 0 1 40.94 96.90
  Z"
/>
</svg>
