<?xml version="1.0" encoding="UTF-8" standalone="no"?>
<!DOCTYPE svg PUBLIC "-//W3C//DTD SVG 1.1//EN" "http://www.w3.org/Graphics/SVG/1.1/DTD/svg11.dtd">
<svg xmlns="http://www.w3.org/2000/svg" version="1.1" viewBox="0.00 0.00 280.00 115.00">
<rect fill="#f8cb46" x="-7.32" y="-30.77" transform="translate(83.94,58.01) rotate(-0.1)" width="14.64" height="61.54" rx="0.40"/>
<rect fill="#f8cb46" x="-7.37" y="-5.85" transform="translate(102.84,33.09) rotate(-0.1)" width="14.74" height="11.70" rx="0.47"/>
<path fill="#f8cb46" d="
  M 190.89 43.27
  L 206.53 43.28
  A 0.35 0.35 0.0 0 1 206.80 43.85
  L 190.92 62.95
  A 0.35 0.35 0.0 0 0 190.90 63.37
  L 207.05 88.27
  A 0.35 0.35 0.0 0 1 206.75 88.81
  L 191.00 88.78
  A 0.35 0.35 0.0 0 1 190.70 88.61
  L 181.30 73.02
  A 0.35 0.35 0.0 0 0 180.73 72.97
  L 176.58 77.89
  A 0.35 0.35 0.0 0 0 176.50 78.12
  L 176.49 88.51
  A 0.35 0.35 0.0 0 1 176.14 88.86
  L 162.22 88.84
  A 0.35 0.35 0.0 0 1 161.87 88.49
  L 161.87 27.84
  A 0.35 0.35 0.0 0 1 162.22 27.49
  L 176.15 27.41
  A 0.35 0.35 0.0 0 1 176.50 27.76
  L 176.50 60.41
  A 0.35 0.35 0.0 0 0 177.13 60.62
  L 190.61 43.40
  A 0.35 0.35 0.0 0 1 190.89 43.27
  Z"
/>
<rect fill="#54b226" x="-7.38" y="-5.85" transform="translate(216.98,33.12) rotate(0.1)" width="14.76" height="11.70" rx="0.40"/>
<path fill="#f8cb46" d="
  M 40.07 48.53
  C 41.21 47.53 42.14 46.34 43.38 45.60
  Q 53.47 39.60 62.80 44.36
  C 80.91 53.61 78.05 88.37 55.26 89.64
  Q 46.07 90.15 40.06 83.53
  A 0.37 0.37 0.0 0 0 39.42 83.78
  L 39.45 88.21
  Q 39.45 88.82 38.85 88.82
  L 25.47 88.81
  Q 24.63 88.81 24.63 87.97
  L 24.63 28.05
  A 0.58 0.57 90.0 0 1 25.20 27.47
  L 38.81 27.45
  A 0.61 0.61 0.0 0 1 39.42 28.06
  L 39.45 48.25
  A 0.37 0.37 0.0 0 0 40.07 48.53
  Z
  M 50.0400 77.4889
  A 11.46 10.58 89.2 0 0 60.4590 65.8823
  A 11.46 10.58 89.2 0 0 49.7200 54.5711
  A 11.46 10.58 89.2 0 0 39.3010 66.1777
  A 11.46 10.58 89.2 0 0 50.0400 77.4889
  Z"
/>
<path fill="#54b226" d="
  M 247.21 55.55
  Q 246.95 63.67 247.19 71.85
  C 247.33 76.64 250.51 78.97 254.88 76.03
  Q 255.35 75.72 255.51 76.26
  L 258.06 84.80
  Q 258.23 85.34 257.79 85.70
  C 247.32 94.24 233.19 88.52 233.09 74.50
  Q 233.02 65.06 233.04 55.61
  Q 233.04 55.03 232.46 55.03
  L 227.72 55.04
  Q 227.15 55.04 227.15 54.47
  L 227.17 43.73
  A 0.59 0.59 0.0 0 1 227.76 43.14
  L 232.07 43.15
  A 0.97 0.97 0.0 0 0 233.04 42.18
  L 233.02 27.97
  A 0.51 0.51 0.0 0 1 233.53 27.46
  L 246.53 27.44
  Q 247.13 27.44 247.13 28.04
  L 247.13 42.50
  Q 247.13 43.13 247.75 43.13
  L 255.79 43.12
  Q 256.47 43.12 256.47 43.79
  L 256.47 54.54
  Q 256.47 55.06 255.96 55.06
  L 247.75 55.03
  Q 247.23 55.03 247.21 55.55
  Z"
/>
<path fill="#f8cb46" d="
  M 129.18 47.91
  C 139.87 37.59 157.56 42.39 158.33 57.99
  Q 158.81 67.59 158.32 88.37
  Q 158.31 88.88 157.80 88.88
  L 145.00 88.88
  A 0.59 0.59 0.0 0 1 144.41 88.29
  Q 144.34 76.69 144.33 65.18
  C 144.33 59.61 142.71 53.97 136.03 54.80
  Q 128.74 55.71 128.78 64.01
  Q 128.84 76.12 128.75 88.25
  A 0.62 0.62 0.0 0 1 128.13 88.86
  L 114.75 88.81
  Q 114.19 88.81 114.19 88.25
  L 114.19 43.92
  Q 114.19 43.28 114.83 43.28
  L 128.16 43.27
  Q 128.80 43.26 128.79 43.91
  L 128.74 47.73
  Q 128.74 48.34 129.18 47.91
  Z"
/>
<rect fill="#54b226" x="209.74" y="43.18" width="14.68" height="45.52" rx="0.28"/>
<rect fill="#f8cb46" x="95.49" y="43.27" width="14.66" height="45.52" rx="0.38"/>
</svg>
