<?xml version="1.0" encoding="UTF-8" standalone="no"?>
<!DOCTYPE svg PUBLIC "-//W3C//DTD SVG 1.1//EN" "http://www.w3.org/Graphics/SVG/1.1/DTD/svg11.dtd">
<svg xmlns="http://www.w3.org/2000/svg" version="1.1" viewBox="0.00 0.00 295.00 295.00">
<path fill="#2291cd" d="
  M 167.03 73.29
  L 147.29 97.22
  Q 147.00 97.57 146.71 97.21
  Q 138.26 86.67 129.64 76.11
  Q 127.40 73.38 126.26 71.17
  A 1.23 1.21 -47.8 0 1 126.22 70.12
  Q 126.93 68.41 128.84 66.04
  Q 137.75 54.96 146.89 44.09
  Q 147.28 43.62 147.67 44.10
  L 167.06 68.17
  A 4.06 4.05 -44.7 0 1 167.03 73.29
  Z
  M 146.70 52.38
  L 133.29 68.76
  A 2.78 2.78 0.0 0 0 133.27 72.26
  L 146.66 88.89
  Q 147.05 89.38 147.45 88.90
  L 161.03 72.41
  A 2.77 2.76 -44.8 0 0 161.05 68.91
  L 147.68 52.38
  A 0.63 0.63 0.0 0 0 146.70 52.38
  Z"
/>
<path fill="#2291cd" d="
  M 120.84 123.45
  L 103.20 101.64
  A 2.26 2.26 0.0 0 1 103.21 98.79
  L 121.04 77.06
  A 2.26 2.26 0.0 0 1 124.54 77.07
  L 142.24 98.98
  A 2.26 2.26 0.0 0 1 142.22 101.84
  L 124.34 123.47
  A 2.26 2.26 0.0 0 1 120.84 123.45
  Z
  M 109.10 99.30
  A 1.53 1.53 0.0 0 0 109.10 101.24
  L 121.50 116.40
  A 1.53 1.53 0.0 0 0 123.87 116.41
  L 136.29 101.37
  A 1.53 1.53 0.0 0 0 136.30 99.44
  L 123.94 84.06
  A 1.53 1.53 0.0 0 0 121.57 84.05
  L 109.10 99.30
  Z"
/>
<path fill="#2291cd" d="
  M 169.51 123.70
  L 151.80 101.89
  A 2.27 2.27 0.0 0 1 151.81 99.02
  L 169.64 77.33
  A 2.27 2.27 0.0 0 1 173.16 77.34
  L 190.87 99.22
  A 2.27 2.27 0.0 0 1 190.86 102.09
  L 173.02 123.71
  A 2.27 2.27 0.0 0 1 169.51 123.70
  Z
  M 172.53 84.26
  A 1.45 1.45 0.0 0 0 170.28 84.25
  L 157.69 99.58
  A 1.45 1.45 0.0 0 0 157.69 101.42
  L 170.18 116.73
  A 1.45 1.45 0.0 0 0 172.42 116.74
  L 184.96 101.61
  A 1.45 1.45 0.0 0 0 184.98 99.78
  L 172.53 84.26
  Z"
/>
<path fill="#2291cd" d="
  M 141.11 110.72
  L 146.70 104.08
  A 0.33 0.33 0.0 0 1 147.20 104.08
  L 152.79 110.72
  A 0.33 0.33 0.0 0 1 152.54 111.27
  L 141.36 111.27
  A 0.33 0.33 0.0 0 1 141.11 110.72
  Z"
/>
<path fill="#2291cd" d="
  M 158.48 118.64
  L 135.37 118.63
  A 0.36 0.36 0.0 0 1 135.10 118.04
  L 138.24 114.38
  A 0.36 0.36 0.0 0 1 138.52 114.25
  L 155.40 114.23
  A 0.36 0.36 0.0 0 1 155.68 114.36
  L 158.76 118.05
  A 0.36 0.36 0.0 0 1 158.48 118.64
  Z"
/>
<path fill="#2291cd" d="
  M 130.89 123.31
  C 131.72 122.47 131.96 121.49 133.50 121.50
  Q 147.23 121.59 160.99 121.80
  Q 161.57 121.81 161.94 122.25
  L 164.80 125.70
  Q 165.27 126.27 164.53 126.27
  L 129.21 126.11
  Q 128.53 126.11 128.94 125.56
  Q 129.89 124.31 130.89 123.31
  Z"
/>
<path fill="#666769" d="
  M 33.54 162.34
  C 32.24 156.02 33.19 146.24 40.49 143.69
  Q 44.32 142.35 50.23 143.29
  Q 58.65 144.63 58.36 153.01
  A 0.97 0.95 -14.2 0 1 57.86 153.83
  C 55.04 155.41 53.69 154.19 52.17 151.63
  Q 50.30 148.49 45.49 148.84
  Q 39.91 149.23 39.43 154.27
  C 39.07 158.13 38.85 165.53 43.69 166.13
  C 48.13 166.69 51.74 167.02 53.24 161.81
  A 0.88 0.88 0.0 0 1 53.98 161.18
  L 56.48 160.89
  A 2.01 2.00 88.1 0 1 58.71 162.98
  C 58.29 171.69 51.87 172.40 44.75 172.09
  C 38.09 171.80 34.88 168.86 33.54 162.34
  Z"
/>
<path fill="#666769" d="
  M 87.24 152.53
  A 0.27 0.27 0.0 0 0 86.71 152.45
  L 81.26 170.91
  Q 81.10 171.44 80.59 171.65
  C 76.99 173.13 75.54 171.83 74.55 168.49
  Q 72.26 160.77 70.23 153.30
  A 0.36 0.36 0.0 0 0 69.53 153.39
  L 69.36 171.01
  Q 69.36 171.50 68.89 171.66
  Q 66.38 172.48 63.95 171.58
  A 0.97 0.95 10.9 0 1 63.32 170.67
  L 63.40 145.17
  Q 63.40 143.13 65.45 143.11
  L 71.27 143.08
  A 2.42 2.42 0.0 0 1 73.62 144.86
  L 77.90 160.51
  A 0.43 0.43 0.0 0 0 78.72 160.51
  L 83.20 144.65
  A 1.70 1.70 0.0 0 1 84.84 143.41
  L 92.22 143.43
  A 1.04 1.04 0.0 0 1 93.25 144.47
  Q 93.23 156.95 93.17 169.50
  C 93.16 172.96 89.36 172.59 87.49 171.57
  A 0.94 0.93 -75.4 0 1 87.00 170.73
  L 87.24 152.53
  Z"
/>
<path fill="#666769" d="
  M 125.82 163.56
  Q 125.21 162.43 123.35 161.94
  Q 118.34 160.63 113.58 158.64
  C 105.93 155.44 106.49 144.60 115.02 143.35
  C 121.04 142.46 129.37 142.11 131.47 149.21
  Q 131.90 150.65 131.07 152.39
  Q 130.82 152.92 130.23 152.91
  L 127.68 152.87
  Q 127.19 152.87 126.88 152.49
  L 124.34 149.46
  Q 124.03 149.08 123.54 149.02
  C 121.54 148.77 114.19 147.64 114.58 151.29
  Q 114.64 151.81 115.03 152.14
  C 119.89 156.27 128.76 153.85 131.46 160.68
  C 133.54 165.93 131.16 171.26 124.99 171.88
  C 117.61 172.62 109.12 172.98 107.96 164.79
  A 2.17 2.16 -9.6 0 1 109.68 162.37
  C 114.38 161.44 113.39 165.87 116.31 166.17
  Q 120.55 166.59 124.47 166.14
  A 1.76 1.76 0.0 0 0 125.82 163.56
  Z"
/>
<path fill="#666769" d="
  M 142.26 154.02
  L 152.23 154.27
  Q 152.73 154.28 152.73 153.77
  L 152.79 144.16
  A 0.69 0.68 -90.0 0 1 153.46 143.48
  L 157.58 143.39
  A 1.43 1.43 0.0 0 1 159.04 144.84
  L 158.76 170.78
  A 1.29 1.29 0.0 0 1 157.47 172.06
  L 154.36 172.07
  A 1.69 1.69 0.0 0 1 152.66 170.36
  L 152.79 160.68
  Q 152.80 160.07 152.18 160.04
  L 142.27 159.70
  Q 141.66 159.68 141.63 160.29
  Q 141.45 164.49 141.57 168.64
  C 141.69 172.57 139.75 172.36 136.59 171.89
  Q 135.28 171.70 135.29 170.19
  Q 135.40 157.84 135.37 145.49
  C 135.36 142.52 138.01 143.04 140.01 143.11
  Q 141.71 143.18 141.67 145.24
  Q 141.56 150.85 141.63 153.40
  Q 141.65 154.00 142.26 154.02
  Z"
/>
<path fill="#666769" d="
  M 181.83 160.09
  Q 185.30 164.95 187.55 170.44
  Q 187.97 171.47 186.92 171.82
  C 183.59 172.91 181.43 172.16 179.80 168.95
  Q 178.03 165.49 176.11 162.23
  A 0.81 0.77 -11.9 0 0 175.51 161.86
  L 170.41 161.43
  Q 169.68 161.36 169.64 162.09
  Q 169.43 165.77 169.55 169.42
  C 169.65 172.77 167.25 172.14 164.92 171.94
  Q 163.49 171.82 163.49 170.00
  Q 163.46 157.25 163.49 144.75
  A 1.63 1.62 0.2 0 1 165.13 143.13
  C 170.25 143.15 178.00 142.48 181.89 143.94
  C 187.80 146.16 189.49 156.78 182.10 159.28
  Q 181.42 159.51 181.83 160.09
  Z
  M 169.76 149.55
  L 169.72 155.23
  A 0.61 0.61 0.0 0 0 170.33 155.85
  L 176.08 155.89
  A 4.66 3.21 0.4 0 0 180.76 152.71
  L 180.76 152.23
  A 4.66 3.21 0.4 0 0 176.12 148.99
  L 170.37 148.95
  A 0.61 0.61 0.0 0 0 169.76 149.55
  Z"
/>
<path fill="#666769" d="
  M 235.69 165.77
  L 234.12 170.75
  A 1.94 1.94 0.0 0 1 232.27 172.10
  L 228.78 172.11
  A 1.05 1.05 0.0 0 1 227.78 170.74
  Q 231.79 158.20 235.87 145.78
  Q 236.64 143.45 238.52 143.24
  Q 241.99 142.85 245.00 142.90
  A 3.31 3.31 0.0 0 1 248.09 145.19
  L 256.31 170.55
  Q 256.84 172.19 255.11 172.14
  L 251.20 172.01
  A 0.92 0.91 81.0 0 1 250.37 171.40
  L 248.38 165.62
  Q 248.23 165.18 247.77 165.18
  L 236.49 165.18
  A 0.85 0.84 -80.9 0 0 235.69 165.77
  Z
  M 237.51 158.29
  A 0.67 0.67 0.0 0 0 238.12 159.22
  L 245.64 159.30
  A 0.67 0.67 0.0 0 0 246.27 158.39
  L 242.61 149.11
  A 0.67 0.67 0.0 0 0 241.37 149.10
  L 237.51 158.29
  Z"
/>
<path fill="#666769" d="
  M 264.97 153.20
  Q 264.54 160.92 264.83 168.88
  C 264.90 170.90 264.39 172.32 262.12 172.14
  Q 260.38 172.00 259.82 171.76
  Q 258.64 171.27 258.66 169.24
  Q 258.74 156.88 258.75 144.73
  A 1.58 1.58 0.0 0 1 260.31 143.15
  L 266.71 143.09
  A 2.27 2.27 0.0 0 1 268.93 144.77
  L 273.25 160.50
  A 0.43 0.42 45.5 0 0 274.07 160.51
  L 278.66 144.45
  A 1.43 1.41 -81.8 0 1 280.02 143.42
  L 287.40 143.42
  A 1.23 1.23 0.0 0 1 288.63 144.65
  L 288.53 171.11
  A 0.91 0.90 -90.0 0 1 287.64 172.01
  L 283.74 172.07
  A 1.32 1.31 89.8 0 1 282.41 170.74
  L 282.60 152.99
  A 0.36 0.36 0.0 0 0 281.90 152.89
  Q 279.87 159.93 277.73 167.22
  C 276.73 170.61 276.58 172.71 272.51 171.99
  Q 271.03 171.73 270.64 170.47
  Q 268.03 161.86 265.45 153.15
  A 0.25 0.24 38.7 0 0 264.97 153.20
  Z"
/>
<path fill="#666769" d="
  M 5.55 144.99
  A 1.87 1.87 0.0 0 1 7.43 143.13
  L 17.85 143.20
  A 12.07 11.91 -89.6 0 1 29.68 155.35
  L 29.64 160.13
  A 12.07 11.91 -89.6 0 1 17.65 172.12
  L 7.23 172.05
  A 1.87 1.87 0.0 0 1 5.37 170.17
  L 5.55 144.99
  Z
  M 11.78 149.61
  L 11.48 165.52
  A 0.66 0.66 0.0 0 0 12.13 166.20
  L 16.70 166.29
  A 6.76 6.60 -88.9 0 0 23.43 159.65
  L 23.50 155.93
  A 6.76 6.60 -88.9 0 0 17.04 149.05
  L 12.46 148.96
  A 0.66 0.66 0.0 0 0 11.78 149.61
  Z"
/>
<rect fill="#666769" x="-3.11" y="-14.43" transform="translate(193.48,157.62) rotate(0.1)" width="6.22" height="28.86" rx="1.73"/>
<path fill="#666769" d="
  M 219.61 160.17
  Q 223.04 165.13 225.33 170.70
  A 1.00 0.99 79.5 0 1 224.39 172.07
  L 219.89 171.99
  A 1.20 1.19 -14.8 0 1 218.88 171.41
  C 216.27 167.03 214.76 159.75 207.90 161.73
  Q 207.43 161.87 207.44 162.35
  Q 207.45 165.98 207.37 169.61
  C 207.29 173.22 201.06 172.84 201.05 169.82
  Q 201.00 157.64 201.03 145.14
  A 1.95 1.94 -0.6 0 1 202.94 143.20
  Q 206.77 143.14 210.80 143.18
  C 217.53 143.23 222.77 142.93 224.42 150.00
  Q 225.96 156.60 219.82 159.38
  Q 219.25 159.65 219.61 160.17
  Z
  M 207.43 149.66
  L 207.41 155.04
  A 0.76 0.76 0.0 0 0 208.16 155.81
  L 213.79 155.83
  A 4.63 3.24 0.3 0 0 218.44 152.62
  L 218.44 152.20
  A 4.63 3.24 0.3 0 0 213.83 148.93
  L 208.20 148.91
  A 0.76 0.76 0.0 0 0 207.43 149.66
  Z"
/>
<rect fill="#666769" x="4.97" y="177.74" width="283.68" height="4.66" rx="0.41"/>
<path fill="#2291cd" d="
  M 55.99 206.51
  L 53.07 206.47
  A 0.67 0.67 0.0 0 1 52.41 205.84
  L 52.32 204.28
  A 0.89 0.89 0.0 0 1 53.23 203.33
  L 58.95 203.47
  A 0.82 0.82 0.0 0 1 59.75 204.29
  L 59.73 210.87
  Q 59.72 211.53 59.22 211.96
  Q 57.15 213.74 54.51 214.25
  C 41.98 216.66 40.55 196.66 49.74 193.78
  Q 55.78 191.89 58.75 197.10
  Q 59.60 198.60 59.04 199.90
  A 1.44 1.43 46.3 0 1 56.38 199.84
  Q 54.83 195.78 50.61 196.85
  Q 50.13 196.97 49.81 197.34
  Q 45.56 202.35 48.16 208.09
  C 50.22 212.63 58.14 211.94 56.60 206.96
  Q 56.46 206.52 55.99 206.51
  Z"
/>
<ellipse fill="#2291cd" cx="0.00" cy="0.00" transform="translate(106.46,195.40) rotate(88.7)" rx="1.83" ry="1.54"/>
<ellipse fill="#2291cd" cx="0.00" cy="0.00" transform="translate(165.90,195.38) rotate(87.5)" rx="1.82" ry="1.55"/>
<path fill="#2291cd" d="
  M 182.59 200.33
  L 183.56 199.60
  Q 184.01 199.26 184.57 199.17
  C 191.60 198.05 190.13 209.04 189.70 213.12
  A 1.24 1.24 0.0 0 1 188.81 214.18
  Q 187.51 214.57 186.96 213.77
  Q 186.64 213.31 186.71 212.21
  Q 186.99 207.59 186.35 203.03
  Q 186.29 202.57 185.84 202.43
  C 180.85 200.84 181.78 208.50 181.89 212.05
  C 181.94 213.44 181.44 214.57 179.85 214.33
  A 1.20 1.20 0.0 0 1 178.82 213.14
  L 178.74 194.52
  Q 178.74 193.95 179.26 193.72
  C 180.82 193.01 181.80 193.66 181.85 195.33
  Q 181.91 197.67 181.90 199.98
  Q 181.90 200.85 182.59 200.33
  Z"
/>
<path fill="#2291cd" d="
  M 175.01 211.35
  L 176.28 211.25
  A 1.41 1.41 0.0 0 1 176.94 213.95
  C 169.39 217.15 170.93 206.94 171.05 203.11
  A 0.91 0.88 -68.0 0 0 170.78 202.44
  L 169.42 201.10
  A 0.71 0.71 0.0 0 1 169.50 200.02
  L 170.62 199.19
  A 0.66 0.64 75.8 0 0 170.89 198.72
  L 171.22 194.75
  A 1.44 1.44 0.0 0 1 174.09 194.79
  L 174.30 198.59
  Q 174.33 199.13 174.85 199.27
  L 176.09 199.61
  Q 176.60 199.75 176.64 200.28
  Q 176.79 202.28 174.73 202.22
  A 0.54 0.54 0.0 0 0 174.18 202.78
  L 174.36 210.76
  Q 174.37 211.41 175.01 211.35
  Z"
/>
<path fill="#2291cd" d="
  M 203.00 211.34
  L 204.14 211.23
  A 1.41 1.40 27.9 0 1 204.95 213.86
  Q 202.29 215.31 199.71 213.48
  A 1.04 1.03 -73.3 0 1 199.27 212.65
  L 198.99 202.80
  A 0.62 0.59 -72.4 0 0 198.77 202.35
  L 197.71 201.49
  Q 197.33 201.17 197.40 200.68
  Q 197.54 199.78 198.34 199.43
  Q 198.91 199.19 198.97 198.58
  L 199.33 194.93
  A 1.42 1.41 -44.0 0 1 202.15 194.98
  L 202.39 198.64
  Q 202.42 199.14 202.90 199.29
  L 204.23 199.70
  Q 204.81 199.88 204.76 200.49
  Q 204.63 202.14 202.94 202.16
  A 0.64 0.64 0.0 0 0 202.31 202.80
  L 202.34 210.75
  Q 202.35 211.40 203.00 211.34
  Z"
/>
<path fill="#2291cd" d="
  M 247.48 211.27
  L 248.63 211.24
  A 1.42 1.42 0.0 0 1 249.23 213.95
  C 241.78 217.28 243.46 206.85 243.47 203.47
  Q 243.47 202.91 243.09 202.50
  L 241.87 201.18
  A 0.64 0.64 0.0 0 1 241.91 200.28
  Q 243.98 198.34 243.54 195.38
  A 0.77 0.73 53.7 0 1 243.59 194.98
  Q 244.27 193.24 245.86 194.07
  A 1.46 1.44 -70.7 0 1 246.61 195.65
  Q 245.94 198.81 248.60 199.91
  A 0.74 0.73 11.4 0 1 249.06 200.59
  Q 249.05 201.82 247.67 201.96
  A 1.31 1.31 0.0 0 0 246.49 203.30
  L 246.66 210.48
  Q 246.67 211.28 247.48 211.27
  Z"
/>
<path fill="#2291cd" d="
  M 66.50 199.86
  Q 68.62 198.23 70.87 199.83
  A 1.55 1.55 0.0 0 1 69.27 202.48
  Q 67.60 201.63 66.68 203.16
  C 65.48 205.16 65.80 210.87 65.90 213.13
  A 1.15 1.15 0.0 0 1 64.44 214.28
  L 63.39 213.99
  A 0.91 0.90 -82.6 0 1 62.72 213.11
  L 62.72 200.18
  A 1.21 1.21 0.0 0 1 64.61 199.18
  L 65.64 199.88
  Q 66.08 200.18 66.50 199.86
  Z"
/>
<path fill="#2291cd" d="
  M 77.4900 214.5700
  A 7.85 6.29 90.0 0 1 71.2000 206.7200
  A 7.85 6.29 90.0 0 1 77.4900 198.8700
  A 7.85 6.29 90.0 0 1 83.7800 206.7200
  A 7.85 6.29 90.0 0 1 77.4900 214.5700
  Z
  M 77.4700 211.6400
  A 4.93 3.04 90.0 0 0 80.5100 206.7100
  A 4.93 3.04 90.0 0 0 77.4700 201.7800
  A 4.93 3.04 90.0 0 0 74.4300 206.7100
  A 4.93 3.04 90.0 0 0 77.4700 211.6400
  Z"
/>
<path fill="#2291cd" d="
  M 89.70 208.16
  A 0.36 0.36 0.0 0 0 90.40 208.14
  L 92.20 200.24
  A 1.72 1.72 0.0 0 1 95.55 200.23
  L 97.44 208.25
  A 0.39 0.38 44.9 0 0 98.19 208.25
  L 100.00 200.23
  A 1.42 1.42 0.0 0 1 102.12 199.33
  Q 103.20 199.99 102.73 201.43
  C 101.46 205.27 100.60 209.28 99.45 213.12
  A 1.51 1.47 81.5 0 1 98.86 213.94
  C 97.38 214.98 96.19 213.92 95.92 212.48
  Q 95.25 208.91 94.14 205.43
  A 0.37 0.37 0.0 0 0 93.43 205.46
  L 91.77 213.21
  A 1.76 1.76 0.0 0 1 88.35 213.30
  L 85.02 201.12
  A 1.58 1.58 0.0 0 1 85.67 199.39
  Q 87.15 198.41 87.60 200.28
  Q 88.57 204.39 89.70 208.16
  Z"
/>
<rect fill="#2291cd" x="-1.58" y="-7.58" transform="translate(106.40,206.74) rotate(-0.1)" width="3.16" height="15.16" rx="1.53"/>
<path fill="#2291cd" d="
  M 114.83 200.29
  C 118.82 197.06 121.86 199.80 122.01 204.25
  Q 122.16 208.73 122.08 212.90
  A 1.40 1.40 0.0 0 1 120.83 214.27
  C 119.24 214.45 118.85 212.98 118.92 211.65
  Q 119.15 207.33 118.74 203.44
  A 1.70 1.69 70.7 0 0 116.14 202.19
  C 113.30 204.02 114.29 209.91 114.28 212.73
  A 1.55 1.54 79.0 0 1 113.32 214.16
  Q 112.20 214.63 111.60 213.90
  Q 111.24 213.47 111.23 212.50
  Q 111.15 206.11 111.26 199.99
  A 1.04 1.04 0.0 0 1 113.02 199.26
  L 114.04 200.25
  A 0.60 0.59 47.7 0 0 114.83 200.29
  Z"
/>
<path fill="#2291cd" d="
  M 132.62 212.87
  L 131.79 213.52
  Q 131.37 213.84 130.84 213.92
  C 120.59 215.48 123.58 193.14 132.86 200.39
  A 0.55 0.55 0.0 0 0 133.60 200.33
  L 134.60 199.27
  A 1.08 1.07 66.0 0 1 136.46 199.99
  Q 136.59 206.81 136.71 213.72
  C 136.83 220.87 127.29 222.64 124.91 216.60
  A 1.23 1.23 0.0 0 1 126.87 215.23
  Q 127.54 215.82 128.47 216.54
  C 131.31 218.73 133.84 216.16 133.42 213.19
  Q 133.30 212.34 132.62 212.87
  Z
  M 130.4926 211.2296
  A 4.70 2.99 90.7 0 0 133.5398 206.5665
  A 4.70 2.99 90.7 0 0 130.6074 201.8304
  A 4.70 2.99 90.7 0 0 127.5602 206.4935
  A 4.70 2.99 90.7 0 0 130.4926 211.2296
  Z"
/>
<path fill="#2291cd" d="
  M 157.52 208.28
  L 159.54 200.00
  A 1.25 1.25 0.0 0 1 161.85 199.68
  Q 162.43 200.70 161.95 202.40
  Q 160.44 207.79 158.92 213.03
  A 1.76 1.73 -89.6 0 1 157.71 214.24
  C 156.42 214.60 155.56 213.69 155.33 212.45
  Q 154.67 208.90 153.57 205.47
  Q 153.21 204.36 152.95 205.50
  L 151.19 213.16
  A 1.43 1.42 79.1 0 1 150.60 214.04
  C 149.22 214.99 148.04 214.05 147.65 212.71
  Q 145.96 206.83 144.32 200.82
  A 1.40 1.40 0.0 0 1 146.22 199.16
  L 146.52 199.29
  A 1.15 1.14 5.3 0 1 147.18 200.08
  L 149.09 208.24
  A 0.39 0.38 44.7 0 0 149.84 208.24
  L 151.66 200.06
  A 1.28 1.27 -89.3 0 1 152.66 199.08
  Q 154.79 198.64 155.21 201.04
  Q 155.86 204.71 156.91 208.29
  Q 157.24 209.43 157.52 208.28
  Z"
/>
<path fill="#2291cd" d="
  M 210.39 199.97
  Q 212.76 198.06 215.08 200.05
  A 1.58 1.58 0.0 0 1 213.30 202.64
  Q 211.66 201.76 210.21 204.47
  A 0.88 0.86 60.4 0 0 210.12 204.81
  L 209.84 213.03
  A 1.34 1.34 0.0 0 1 208.27 214.30
  Q 207.38 214.15 207.01 213.32
  A 0.64 0.02 67.0 0 1 206.79 212.76
  L 206.75 200.15
  Q 206.75 199.53 207.32 199.29
  Q 208.64 198.74 209.57 199.88
  Q 209.94 200.33 210.39 199.97
  Z"
/>
<path fill="#2291cd" d="
  M 223.62 212.92
  Q 220.44 215.93 217.16 212.95
  Q 216.77 212.59 216.70 212.06
  Q 215.89 206.32 216.28 200.75
  Q 216.41 198.94 218.21 199.16
  A 1.44 1.43 3.4 0 1 219.47 200.57
  Q 219.50 204.27 219.35 207.99
  Q 219.26 210.13 220.40 210.88
  A 2.28 2.28 0.0 0 0 223.91 209.30
  Q 224.43 205.65 224.12 201.50
  Q 223.97 199.49 225.61 199.16
  A 1.45 1.45 0.0 0 1 227.35 200.56
  C 227.41 203.50 228.11 211.87 226.82 214.21
  A 0.71 0.70 38.7 0 1 225.67 214.33
  L 224.47 212.96
  Q 224.06 212.51 223.62 212.92
  Z"
/>
<path fill="#2291cd" d="
  M 232.97 202.59
  A 1.13 1.13 0.0 0 0 233.56 204.09
  C 236.52 205.34 241.85 206.36 240.29 211.05
  Q 239.10 214.61 235.51 214.53
  C 232.10 214.46 230.69 213.66 229.65 210.37
  A 1.18 1.18 0.0 0 1 231.59 209.17
  C 232.92 210.45 234.34 213.19 236.65 211.39
  A 1.51 1.51 0.0 0 0 236.73 209.07
  C 234.50 207.10 228.98 207.59 229.96 202.64
  C 230.94 197.70 238.93 197.70 239.77 202.64
  A 1.16 1.15 -69.9 0 1 237.75 203.58
  C 236.79 202.44 233.97 200.34 232.97 202.59
  Z"
/>
<rect fill="#2291cd" x="-1.57" y="-7.53" transform="translate(165.91,206.72) rotate(-0.1)" width="3.14" height="15.06" rx="1.43"/>
</svg>
