<?xml version="1.0" encoding="UTF-8" standalone="no"?>
<!DOCTYPE svg PUBLIC "-//W3C//DTD SVG 1.1//EN" "http://www.w3.org/Graphics/SVG/1.1/DTD/svg11.dtd">
<svg xmlns="http://www.w3.org/2000/svg" version="1.1" viewBox="0.00 0.00 257.00 178.00">
<g stroke-width="2.00" fill="none" stroke-linecap="butt">
<path stroke="#f3884b" vector-effect="non-scaling-stroke" d="
  M 245.9984 89.7063
  A 117.71 86.43 0.3 0 0 128.7425 2.6612
  A 117.71 86.43 0.3 0 0 10.5816 88.4737
  A 117.71 86.43 0.3 0 0 127.8375 175.5188
  A 117.71 86.43 0.3 0 0 245.9984 89.7063"
/>
<path stroke="#917f3a" vector-effect="non-scaling-stroke" d="
  M 105.61 19.07
  L 105.76 19.64
  Q 105.92 20.25 106.55 20.37
  Q 110.47 21.10 109.30 25.25
  C 108.29 28.87 101.96 32.03 100.74 26.89
  A 1.57 1.57 0.0 0 1 102.79 25.05
  Q 103.95 25.46 104.53 26.56
  Q 105.01 27.47 105.34 26.49
  L 106.05 24.37
  Q 106.22 23.86 105.84 23.49
  C 102.14 19.93 95.16 21.76 95.33 27.03
  C 95.48 31.82 101.19 34.41 105.30 33.41
  Q 116.85 30.61 113.97 18.41
  Q 113.82 17.76 114.49 17.76
  L 118.00 17.74
  Q 118.52 17.74 118.53 18.25
  L 119.00 34.09
  Q 119.02 34.67 119.60 34.68
  L 124.61 34.74
  Q 125.22 34.74 125.21 34.14
  L 125.16 17.52
  Q 125.15 16.93 125.75 16.93
  Q 139.28 16.90 152.64 18.93
  Q 153.32 19.04 153.31 19.72
  L 153.31 21.26
  A 0.46 0.45 12.5 0 1 152.66 21.67
  Q 148.83 19.92 145.75 22.58
  Q 145.32 22.95 144.90 22.57
  Q 139.46 17.69 133.55 20.32
  C 124.17 24.50 129.91 37.84 140.27 33.94
  Q 140.77 33.76 140.78 33.22
  L 140.81 30.76
  A 0.46 0.46 0.0 0 0 140.11 30.37
  Q 136.53 32.61 134.81 29.44
  C 131.93 24.11 142.01 18.74 142.00 29.72
  Q 141.99 30.29 142.56 30.31
  L 146.93 30.54
  A 0.73 0.73 0.0 0 0 147.70 29.87
  C 147.84 28.08 148.06 25.06 150.33 24.86
  A 2.25 2.24 88.8 0 1 152.78 27.21
  L 152.40 34.19
  Q 152.37 34.75 152.94 34.74
  L 157.42 34.65
  Q 157.99 34.64 158.04 34.08
  L 159.31 20.67
  Q 159.35 20.19 159.84 20.23
  L 161.83 20.37
  Q 162.45 20.41 162.59 19.81
  L 162.86 18.68
  Q 163.00 18.08 162.39 17.95
  Q 144.73 14.24 126.69 14.30
  A 0.60 0.60 0.0 0 1 126.10 13.61
  L 126.32 12.09
  A 0.60 0.59 -3.5 0 0 125.57 11.43
  L 124.42 11.75
  A 0.96 0.95 -33.4 0 1 123.57 11.58
  Q 119.40 8.35 118.27 7.20
  C 115.46 4.35 111.76 8.11 109.62 9.96
  Q 109.17 10.35 109.48 10.86
  L 110.32 12.25
  A 0.60 0.59 52.9 0 0 111.23 12.38
  L 112.69 11.02
  A 0.76 0.76 0.0 0 1 113.52 10.89
  Q 115.90 12.01 117.53 14.05
  Q 117.88 14.48 117.33 14.56
  L 94.04 17.79
  Q 93.25 17.90 93.39 18.68
  L 93.64 20.01
  Q 93.73 20.51 94.23 20.42
  L 104.81 18.56
  Q 105.45 18.44 105.61 19.07"
/>
<path stroke="#917f3a" vector-effect="non-scaling-stroke" d="
  M 80.67 91.66
  C 83.91 85.33 92.99 83.22 99.00 83.23
  Q 117.61 83.26 135.99 83.20
  A 0.36 0.36 0.0 0 0 136.32 82.68
  L 115.51 40.26
  A 0.95 0.95 0.0 0 0 114.69 39.73
  Q 100.58 39.18 86.50 40.16
  C 75.37 40.93 65.56 42.82 57.53 50.02
  C 46.36 60.04 42.96 76.66 47.48 90.63
  C 54.88 113.48 78.88 129.61 101.22 135.56
  A 0.45 0.44 -5.3 0 0 101.74 134.94
  L 95.82 122.68
  Q 95.59 122.21 95.12 121.96
  C 85.18 116.67 74.52 103.72 80.67 91.66"
/>
<path stroke="#f3884b" vector-effect="non-scaling-stroke" d="
  M 119.43 39.98
  A 0.37 0.37 0.0 0 0 119.10 40.51
  L 139.97 83.05
  A 0.37 0.37 0.0 0 0 140.30 83.26
  L 165.11 83.26
  A 0.37 0.37 0.0 0 0 165.44 82.72
  L 144.21 40.18
  A 0.37 0.37 0.0 0 0 143.88 39.98
  L 119.43 39.98"
/>
<path stroke="#f3884b" vector-effect="non-scaling-stroke" d="
  M 170.72 82.63
  A 0.51 0.51 0.0 0 0 171.18 82.91
  L 201.60 82.99
  A 0.51 0.51 0.0 0 0 202.06 82.25
  L 181.16 40.26
  A 0.51 0.51 0.0 0 0 180.70 39.98
  L 150.38 39.98
  A 0.51 0.51 0.0 0 0 149.93 40.72
  L 170.72 82.63"
/>
<path stroke="#917f3a" vector-effect="non-scaling-stroke" d="
  M 164.20 104.61
  C 169.50 115.46 174.76 126.28 180.24 137.07
  Q 180.49 137.57 181.05 137.57
  L 209.01 137.53
  Q 209.79 137.53 209.45 136.83
  L 187.02 91.28
  Q 186.79 90.81 186.26 90.81
  L 100.67 90.74
  A 0.65 0.65 0.0 0 0 100.07 91.65
  L 103.81 100.20
  A 0.86 0.84 -9.0 0 0 104.53 100.71
  C 112.15 101.27 121.16 100.01 127.03 105.84
  C 130.95 109.73 132.16 115.82 128.56 120.31
  C 122.12 128.33 108.95 127.30 100.55 124.16
  A 0.59 0.59 0.0 0 0 99.81 124.96
  L 104.93 135.91
  Q 105.13 136.36 105.62 136.46
  C 121.31 139.78 151.66 139.83 160.43 122.31
  Q 165.02 113.16 159.24 102.65
  A 0.61 0.61 0.0 0 1 159.56 101.79
  C 162.51 100.65 163.15 102.45 164.20 104.61"
/>
<path stroke="#917f3a" vector-effect="non-scaling-stroke" d="
  M 107.03 161.06
  A 1.04 1.04 0.0 0 1 107.31 163.04
  C 94.48 168.88 94.58 146.34 107.05 152.68
  Q 107.46 152.89 107.68 153.30
  Q 109.22 156.29 112.83 155.88
  Q 113.29 155.83 113.27 155.37
  C 113.01 149.54 104.90 147.43 100.20 148.27
  C 94.12 149.36 91.94 155.70 93.76 161.10
  C 96.67 169.68 112.21 170.77 112.67 158.92
  Q 112.69 158.42 112.20 158.34
  L 102.33 156.72
  Q 101.78 156.63 101.70 157.18
  L 101.34 159.60
  Q 101.25 160.20 101.85 160.29
  L 107.03 161.06"
/>
<path stroke="#917f3a" vector-effect="non-scaling-stroke" d="
  M 153.84 163.05
  A 0.71 0.71 0.0 0 1 153.02 162.46
  L 150.93 149.33
  A 0.71 0.71 0.0 0 0 150.13 148.74
  L 146.93 149.18
  A 0.71 0.71 0.0 0 0 146.32 149.99
  L 148.80 167.00
  A 0.71 0.71 0.0 0 0 149.63 167.59
  L 162.46 165.32
  A 0.71 0.71 0.0 0 0 163.04 164.53
  L 162.78 162.29
  A 0.71 0.71 0.0 0 0 161.95 161.67
  L 153.84 163.05"
/>
<path stroke="#917f3a" vector-effect="non-scaling-stroke" d="
  M 132.38 168.68
  A 0.47 0.47 0.0 0 0 132.83 168.03
  L 126.15 151.27
  A 3.21 3.21 0.0 0 0 120.21 151.20
  L 113.27 167.49
  A 0.62 0.62 0.0 0 0 113.83 168.35
  L 117.15 168.37
  A 0.81 0.80 -77.2 0 0 117.90 167.89
  L 119.24 164.96
  Q 119.40 164.61 119.78 164.62
  L 125.96 164.79
  A 0.99 0.99 0.0 0 1 126.84 165.39
  L 127.96 168.07
  Q 128.16 168.56 128.69 168.57
  L 132.38 168.68"
/>
<path stroke="#917f3a" vector-effect="non-scaling-stroke" d="
  M 141.0720 150.8577
  A 0.88 0.88 0.0 0 0 140.1678 150.0026
  L 137.2289 150.0847
  A 0.88 0.88 0.0 0 0 136.3739 150.9889
  L 136.8480 167.9623
  A 0.88 0.88 0.0 0 0 137.7522 168.8174
  L 140.6911 168.7353
  A 0.88 0.88 0.0 0 0 141.5461 167.8311
  L 141.0720 150.8577"
/>
<path stroke="#917f3a" vector-effect="non-scaling-stroke" d="
  M 120.77 160.74
  A 0.37 0.37 0.0 0 0 121.11 161.25
  L 125.16 161.33
  A 0.37 0.37 0.0 0 0 125.51 160.82
  L 123.57 155.68
  A 0.37 0.37 0.0 0 0 122.89 155.67
  L 120.77 160.74"
/>
</g>
<path fill="#e63746" d="
  M 90.98 0.00
  L 165.35 0.00
  C 212.54 10.97 262.45 49.02 251.09 104.16
  C 243.51 140.95 208.42 166.46 173.72 175.98
  Q 170.32 176.92 166.86 178.00
  L 90.61 178.00
  Q 64.66 171.49 43.96 157.63
  C 18.82 140.79 -0.17 111.08 4.04 79.80
  C 9.87 36.41 51.52 9.13 90.98 0.00
  Z
  M 245.9984 89.7063
  A 117.71 86.43 0.3 0 0 128.7425 2.6612
  A 117.71 86.43 0.3 0 0 10.5816 88.4737
  A 117.71 86.43 0.3 0 0 127.8375 175.5188
  A 117.71 86.43 0.3 0 0 245.9984 89.7063
  Z"
/>
<path fill="#ffd94f" d="
  M 245.9984 89.7063
  A 117.71 86.43 0.3 0 1 127.8375 175.5188
  A 117.71 86.43 0.3 0 1 10.5816 88.4737
  A 117.71 86.43 0.3 0 1 128.7425 2.6612
  A 117.71 86.43 0.3 0 1 245.9984 89.7063
  Z
  M 105.61 19.07
  L 105.76 19.64
  Q 105.92 20.25 106.55 20.37
  Q 110.47 21.10 109.30 25.25
  C 108.29 28.87 101.96 32.03 100.74 26.89
  A 1.57 1.57 0.0 0 1 102.79 25.05
  Q 103.95 25.46 104.53 26.56
  Q 105.01 27.47 105.34 26.49
  L 106.05 24.37
  Q 106.22 23.86 105.84 23.49
  C 102.14 19.93 95.16 21.76 95.33 27.03
  C 95.48 31.82 101.19 34.41 105.30 33.41
  Q 116.85 30.61 113.97 18.41
  Q 113.82 17.76 114.49 17.76
  L 118.00 17.74
  Q 118.52 17.74 118.53 18.25
  L 119.00 34.09
  Q 119.02 34.67 119.60 34.68
  L 124.61 34.74
  Q 125.22 34.74 125.21 34.14
  L 125.16 17.52
  Q 125.15 16.93 125.75 16.93
  Q 139.28 16.90 152.64 18.93
  Q 153.32 19.04 153.31 19.72
  L 153.31 21.26
  A 0.46 0.45 12.5 0 1 152.66 21.67
  Q 148.83 19.92 145.75 22.58
  Q 145.32 22.95 144.90 22.57
  Q 139.46 17.69 133.55 20.32
  C 124.17 24.50 129.91 37.84 140.27 33.94
  Q 140.77 33.76 140.78 33.22
  L 140.81 30.76
  A 0.46 0.46 0.0 0 0 140.11 30.37
  Q 136.53 32.61 134.81 29.44
  C 131.93 24.11 142.01 18.74 142.00 29.72
  Q 141.99 30.29 142.56 30.31
  L 146.93 30.54
  A 0.73 0.73 0.0 0 0 147.70 29.87
  C 147.84 28.08 148.06 25.06 150.33 24.86
  A 2.25 2.24 88.8 0 1 152.78 27.21
  L 152.40 34.19
  Q 152.37 34.75 152.94 34.74
  L 157.42 34.65
  Q 157.99 34.64 158.04 34.08
  L 159.31 20.67
  Q 159.35 20.19 159.84 20.23
  L 161.83 20.37
  Q 162.45 20.41 162.59 19.81
  L 162.86 18.68
  Q 163.00 18.08 162.39 17.95
  Q 144.73 14.24 126.69 14.30
  A 0.60 0.60 0.0 0 1 126.10 13.61
  L 126.32 12.09
  A 0.60 0.59 -3.5 0 0 125.57 11.43
  L 124.42 11.75
  A 0.96 0.95 -33.4 0 1 123.57 11.58
  Q 119.40 8.35 118.27 7.20
  C 115.46 4.35 111.76 8.11 109.62 9.96
  Q 109.17 10.35 109.48 10.86
  L 110.32 12.25
  A 0.60 0.59 52.9 0 0 111.23 12.38
  L 112.69 11.02
  A 0.76 0.76 0.0 0 1 113.52 10.89
  Q 115.90 12.01 117.53 14.05
  Q 117.88 14.48 117.33 14.56
  L 94.04 17.79
  Q 93.25 17.90 93.39 18.68
  L 93.64 20.01
  Q 93.73 20.51 94.23 20.42
  L 104.81 18.56
  Q 105.45 18.44 105.61 19.07
  Z
  M 80.67 91.66
  C 83.91 85.33 92.99 83.22 99.00 83.23
  Q 117.61 83.26 135.99 83.20
  A 0.36 0.36 0.0 0 0 136.32 82.68
  L 115.51 40.26
  A 0.95 0.95 0.0 0 0 114.69 39.73
  Q 100.58 39.18 86.50 40.16
  C 75.37 40.93 65.56 42.82 57.53 50.02
  C 46.36 60.04 42.96 76.66 47.48 90.63
  C 54.88 113.48 78.88 129.61 101.22 135.56
  A 0.45 0.44 -5.3 0 0 101.74 134.94
  L 95.82 122.68
  Q 95.59 122.21 95.12 121.96
  C 85.18 116.67 74.52 103.72 80.67 91.66
  Z
  M 119.43 39.98
  A 0.37 0.37 0.0 0 0 119.10 40.51
  L 139.97 83.05
  A 0.37 0.37 0.0 0 0 140.30 83.26
  L 165.11 83.26
  A 0.37 0.37 0.0 0 0 165.44 82.72
  L 144.21 40.18
  A 0.37 0.37 0.0 0 0 143.88 39.98
  L 119.43 39.98
  Z
  M 170.72 82.63
  A 0.51 0.51 0.0 0 0 171.18 82.91
  L 201.60 82.99
  A 0.51 0.51 0.0 0 0 202.06 82.25
  L 181.16 40.26
  A 0.51 0.51 0.0 0 0 180.70 39.98
  L 150.38 39.98
  A 0.51 0.51 0.0 0 0 149.93 40.72
  L 170.72 82.63
  Z
  M 164.20 104.61
  C 169.50 115.46 174.76 126.28 180.24 137.07
  Q 180.49 137.57 181.05 137.57
  L 209.01 137.53
  Q 209.79 137.53 209.45 136.83
  L 187.02 91.28
  Q 186.79 90.81 186.26 90.81
  L 100.67 90.74
  A 0.65 0.65 0.0 0 0 100.07 91.65
  L 103.81 100.20
  A 0.86 0.84 -9.0 0 0 104.53 100.71
  C 112.15 101.27 121.16 100.01 127.03 105.84
  C 130.95 109.73 132.16 115.82 128.56 120.31
  C 122.12 128.33 108.95 127.30 100.55 124.16
  A 0.59 0.59 0.0 0 0 99.81 124.96
  L 104.93 135.91
  Q 105.13 136.36 105.62 136.46
  C 121.31 139.78 151.66 139.83 160.43 122.31
  Q 165.02 113.16 159.24 102.65
  A 0.61 0.61 0.0 0 1 159.56 101.79
  C 162.51 100.65 163.15 102.45 164.20 104.61
  Z
  M 107.03 161.06
  A 1.04 1.04 0.0 0 1 107.31 163.04
  C 94.48 168.88 94.58 146.34 107.05 152.68
  Q 107.46 152.89 107.68 153.30
  Q 109.22 156.29 112.83 155.88
  Q 113.29 155.83 113.27 155.37
  C 113.01 149.54 104.90 147.43 100.20 148.27
  C 94.12 149.36 91.94 155.70 93.76 161.10
  C 96.67 169.68 112.21 170.77 112.67 158.92
  Q 112.69 158.42 112.20 158.34
  L 102.33 156.72
  Q 101.78 156.63 101.70 157.18
  L 101.34 159.60
  Q 101.25 160.20 101.85 160.29
  L 107.03 161.06
  Z
  M 153.84 163.05
  A 0.71 0.71 0.0 0 1 153.02 162.46
  L 150.93 149.33
  A 0.71 0.71 0.0 0 0 150.13 148.74
  L 146.93 149.18
  A 0.71 0.71 0.0 0 0 146.32 149.99
  L 148.80 167.00
  A 0.71 0.71 0.0 0 0 149.63 167.59
  L 162.46 165.32
  A 0.71 0.71 0.0 0 0 163.04 164.53
  L 162.78 162.29
  A 0.71 0.71 0.0 0 0 161.95 161.67
  L 153.84 163.05
  Z
  M 132.38 168.68
  A 0.47 0.47 0.0 0 0 132.83 168.03
  L 126.15 151.27
  A 3.21 3.21 0.0 0 0 120.21 151.20
  L 113.27 167.49
  A 0.62 0.62 0.0 0 0 113.83 168.35
  L 117.15 168.37
  A 0.81 0.80 -77.2 0 0 117.90 167.89
  L 119.24 164.96
  Q 119.40 164.61 119.78 164.62
  L 125.96 164.79
  A 0.99 0.99 0.0 0 1 126.84 165.39
  L 127.96 168.07
  Q 128.16 168.56 128.69 168.57
  L 132.38 168.68
  Z
  M 141.0720 150.8577
  A 0.88 0.88 0.0 0 0 140.1678 150.0026
  L 137.2289 150.0847
  A 0.88 0.88 0.0 0 0 136.3739 150.9889
  L 136.8480 167.9623
  A 0.88 0.88 0.0 0 0 137.7522 168.8174
  L 140.6911 168.7353
  A 0.88 0.88 0.0 0 0 141.5461 167.8311
  L 141.0720 150.8577
  Z"
/>
<path fill="#232425" d="
  M 104.81 18.56
  L 94.23 20.42
  Q 93.73 20.51 93.64 20.01
  L 93.39 18.68
  Q 93.25 17.90 94.04 17.79
  L 117.33 14.56
  Q 117.88 14.48 117.53 14.05
  Q 115.90 12.01 113.52 10.89
  A 0.76 0.76 0.0 0 0 112.69 11.02
  L 111.23 12.38
  A 0.60 0.59 52.9 0 1 110.32 12.25
  L 109.48 10.86
  Q 109.17 10.35 109.62 9.96
  C 111.76 8.11 115.46 4.35 118.27 7.20
  Q 119.40 8.35 123.57 11.58
  A 0.96 0.95 -33.4 0 0 124.42 11.75
  L 125.57 11.43
  A 0.60 0.59 -3.5 0 1 126.32 12.09
  L 126.10 13.61
  A 0.60 0.60 0.0 0 0 126.69 14.30
  Q 144.73 14.24 162.39 17.95
  Q 163.00 18.08 162.86 18.68
  L 162.59 19.81
  Q 162.45 20.41 161.83 20.37
  L 159.84 20.23
  Q 159.35 20.19 159.31 20.67
  L 158.04 34.08
  Q 157.99 34.64 157.42 34.65
  L 152.94 34.74
  Q 152.37 34.75 152.40 34.19
  L 152.78 27.21
  A 2.25 2.24 88.8 0 0 150.33 24.86
  C 148.06 25.06 147.84 28.08 147.70 29.87
  A 0.73 0.73 0.0 0 1 146.93 30.54
  L 142.56 30.31
  Q 141.99 30.29 142.00 29.72
  C 142.01 18.74 131.93 24.11 134.81 29.44
  Q 136.53 32.61 140.11 30.37
  A 0.46 0.46 0.0 0 1 140.81 30.76
  L 140.78 33.22
  Q 140.77 33.76 140.27 33.94
  C 129.91 37.84 124.17 24.50 133.55 20.32
  Q 139.46 17.69 144.90 22.57
  Q 145.32 22.95 145.75 22.58
  Q 148.83 19.92 152.66 21.67
  A 0.46 0.45 12.5 0 0 153.31 21.26
  L 153.31 19.72
  Q 153.32 19.04 152.64 18.93
  Q 139.28 16.90 125.75 16.93
  Q 125.15 16.93 125.16 17.52
  L 125.21 34.14
  Q 125.22 34.74 124.61 34.74
  L 119.60 34.68
  Q 119.02 34.67 119.00 34.09
  L 118.53 18.25
  Q 118.52 17.74 118.00 17.74
  L 114.49 17.76
  Q 113.82 17.76 113.97 18.41
  Q 116.85 30.61 105.30 33.41
  C 101.19 34.41 95.48 31.82 95.33 27.03
  C 95.16 21.76 102.14 19.93 105.84 23.49
  Q 106.22 23.86 106.05 24.37
  L 105.34 26.49
  Q 105.01 27.47 104.53 26.56
  Q 103.95 25.46 102.79 25.05
  A 1.57 1.57 0.0 0 0 100.74 26.89
  C 101.96 32.03 108.29 28.87 109.30 25.25
  Q 110.47 21.10 106.55 20.37
  Q 105.92 20.25 105.76 19.64
  L 105.61 19.07
  Q 105.45 18.44 104.81 18.56
  Z"
/>
<path fill="#232425" d="
  M 99.00 83.23
  C 92.99 83.22 83.91 85.33 80.67 91.66
  C 74.52 103.72 85.18 116.67 95.12 121.96
  Q 95.59 122.21 95.82 122.68
  L 101.74 134.94
  A 0.45 0.44 -5.3 0 1 101.22 135.56
  C 78.88 129.61 54.88 113.48 47.48 90.63
  C 42.96 76.66 46.36 60.04 57.53 50.02
  C 65.56 42.82 75.37 40.93 86.50 40.16
  Q 100.58 39.18 114.69 39.73
  A 0.95 0.95 0.0 0 1 115.51 40.26
  L 136.32 82.68
  A 0.36 0.36 0.0 0 1 135.99 83.20
  Q 117.61 83.26 99.00 83.23
  Z"
/>
<path fill="#e63746" d="
  M 119.43 39.98
  L 143.88 39.98
  A 0.37 0.37 0.0 0 1 144.21 40.18
  L 165.44 82.72
  A 0.37 0.37 0.0 0 1 165.11 83.26
  L 140.30 83.26
  A 0.37 0.37 0.0 0 1 139.97 83.05
  L 119.10 40.51
  A 0.37 0.37 0.0 0 1 119.43 39.98
  Z"
/>
<path fill="#e63746" d="
  M 170.72 82.63
  L 149.93 40.72
  A 0.51 0.51 0.0 0 1 150.38 39.98
  L 180.70 39.98
  A 0.51 0.51 0.0 0 1 181.16 40.26
  L 202.06 82.25
  A 0.51 0.51 0.0 0 1 201.60 82.99
  L 171.18 82.91
  A 0.51 0.51 0.0 0 1 170.72 82.63
  Z"
/>
<path fill="#232425" d="
  M 180.24 137.07
  C 174.76 126.28 169.50 115.46 164.20 104.61
  C 163.15 102.45 162.51 100.65 159.56 101.79
  A 0.61 0.61 0.0 0 0 159.24 102.65
  Q 165.02 113.16 160.43 122.31
  C 151.66 139.83 121.31 139.78 105.62 136.46
  Q 105.13 136.36 104.93 135.91
  L 99.81 124.96
  A 0.59 0.59 0.0 0 1 100.55 124.16
  C 108.95 127.30 122.12 128.33 128.56 120.31
  C 132.16 115.82 130.95 109.73 127.03 105.84
  C 121.16 100.01 112.15 101.27 104.53 100.71
  A 0.86 0.84 -9.0 0 1 103.81 100.20
  L 100.07 91.65
  A 0.65 0.65 0.0 0 1 100.67 90.74
  L 186.26 90.81
  Q 186.79 90.81 187.02 91.28
  L 209.45 136.83
  Q 209.79 137.53 209.01 137.53
  L 181.05 137.57
  Q 180.49 137.57 180.24 137.07
  Z"
/>
<path fill="#232425" d="
  M 107.03 161.06
  L 101.85 160.29
  Q 101.25 160.20 101.34 159.60
  L 101.70 157.18
  Q 101.78 156.63 102.33 156.72
  L 112.20 158.34
  Q 112.69 158.42 112.67 158.92
  C 112.21 170.77 96.67 169.68 93.76 161.10
  C 91.94 155.70 94.12 149.36 100.20 148.27
  C 104.90 147.43 113.01 149.54 113.27 155.37
  Q 113.29 155.83 112.83 155.88
  Q 109.22 156.29 107.68 153.30
  Q 107.46 152.89 107.05 152.68
  C 94.58 146.34 94.48 168.88 107.31 163.04
  A 1.04 1.04 0.0 0 0 107.03 161.06
  Z"
/>
<path fill="#232425" d="
  M 153.84 163.05
  L 161.95 161.67
  A 0.71 0.71 0.0 0 1 162.78 162.29
  L 163.04 164.53
  A 0.71 0.71 0.0 0 1 162.46 165.32
  L 149.63 167.59
  A 0.71 0.71 0.0 0 1 148.80 167.00
  L 146.32 149.99
  A 0.71 0.71 0.0 0 1 146.93 149.18
  L 150.13 148.74
  A 0.71 0.71 0.0 0 1 150.93 149.33
  L 153.02 162.46
  A 0.71 0.71 0.0 0 0 153.84 163.05
  Z"
/>
<path fill="#232425" d="
  M 132.38 168.68
  L 128.69 168.57
  Q 128.16 168.56 127.96 168.07
  L 126.84 165.39
  A 0.99 0.99 0.0 0 0 125.96 164.79
  L 119.78 164.62
  Q 119.40 164.61 119.24 164.96
  L 117.90 167.89
  A 0.81 0.80 -77.2 0 1 117.15 168.37
  L 113.83 168.35
  A 0.62 0.62 0.0 0 1 113.27 167.49
  L 120.21 151.20
  A 3.21 3.21 0.0 0 1 126.15 151.27
  L 132.83 168.03
  A 0.47 0.47 0.0 0 1 132.38 168.68
  Z
  M 120.77 160.74
  A 0.37 0.37 0.0 0 0 121.11 161.25
  L 125.16 161.33
  A 0.37 0.37 0.0 0 0 125.51 160.82
  L 123.57 155.68
  A 0.37 0.37 0.0 0 0 122.89 155.67
  L 120.77 160.74
  Z"
/>
<rect fill="#232425" x="-2.35" y="-9.37" transform="translate(138.96,159.41) rotate(-1.6)" width="4.70" height="18.74" rx="0.88"/>
<path fill="#ffd94f" d="
  M 120.77 160.74
  L 122.89 155.67
  A 0.37 0.37 0.0 0 1 123.57 155.68
  L 125.51 160.82
  A 0.37 0.37 0.0 0 1 125.16 161.33
  L 121.11 161.25
  A 0.37 0.37 0.0 0 1 120.77 160.74
  Z"
/>
</svg>
