<?xml version="1.0" encoding="UTF-8" standalone="no"?>
<!DOCTYPE svg PUBLIC "-//W3C//DTD SVG 1.1//EN" "http://www.w3.org/Graphics/SVG/1.1/DTD/svg11.dtd">
<svg xmlns="http://www.w3.org/2000/svg" version="1.1" viewBox="0.00 0.00 306.00 90.00">
<g stroke-width="2.00" fill="none" stroke-linecap="butt">
<path stroke="#d02904" vector-effect="non-scaling-stroke" d="
  M 55.26 34.31
  Q 46.27 50.30 30.97 57.61"
/>
<path stroke="#d02904" vector-effect="non-scaling-stroke" d="
  M 21.88 59.76
  C 11.96 59.20 8.62 52.10 10.16 43.01
  Q 11.92 32.57 19.37 23.11"
/>
</g>
<path fill="#a50101" d="
  M 55.26 34.31
  Q 46.27 50.30 30.97 57.61
  Q 32.86 46.45 38.07 32.77
  C 39.41 29.24 34.18 27.59 32.26 28.52
  Q 24.15 32.45 17.61 38.97
  A 1.24 1.24 0.0 0 0 18.81 41.05
  C 20.76 40.53 25.39 37.96 25.81 41.96
  C 26.39 47.43 23.99 54.31 21.88 59.76
  C 11.96 59.20 8.62 52.10 10.16 43.01
  Q 11.92 32.57 19.37 23.11
  Q 25.10 16.53 33.33 13.11
  C 44.65 8.41 56.12 9.97 57.00 24.75
  Q 57.26 29.22 55.26 34.31
  Z
  M 33.6720 25.6309
  A 7.03 4.22 133.6 0 0 41.5760 23.4502
  A 7.03 4.22 133.6 0 0 43.3680 15.4491
  A 7.03 4.22 133.6 0 0 35.4640 17.6298
  A 7.03 4.22 133.6 0 0 33.6720 25.6309
  Z"
/>
<path fill="#fa5007" d="
  M 19.37 23.11
  Q 11.92 32.57 10.16 43.01
  C 8.62 52.10 11.96 59.20 21.88 59.76
  Q 20.49 64.33 17.86 66.86
  C 14.61 70.00 8.64 66.92 6.48 63.86
  Q 2.46 58.15 3.47 51.47
  Q 5.92 35.30 19.37 23.11
  Z"
/>
<path fill="#fa5007" d="
  M 55.26 34.31
  Q 49.26 51.63 33.64 62.32
  A 1.44 1.44 0.0 0 1 31.54 61.78
  Q 30.73 60.14 30.97 57.61
  Q 46.27 50.30 55.26 34.31
  Z"
/>
<path fill="#042666" d="
  M 117.28 68.30
  L 110.23 68.15
  A 1.09 1.09 0.0 0 1 109.20 66.78
  L 116.27 40.52
  A 1.09 1.09 0.0 0 1 117.31 39.71
  L 124.50 39.64
  A 1.09 1.09 0.0 0 1 125.56 41.01
  L 118.35 67.50
  A 1.09 1.09 0.0 0 1 117.28 68.30
  Z"
/>
<path fill="#042666" d="
  M 168.90 68.29
  L 161.25 68.05
  A 0.79 0.79 0.0 0 1 160.51 67.05
  L 167.80 40.22
  A 0.79 0.79 0.0 0 1 168.57 39.64
  L 176.22 39.66
  A 0.79 0.79 0.0 0 1 176.98 40.65
  L 169.68 67.71
  A 0.79 0.79 0.0 0 1 168.90 68.29
  Z"
/>
<path fill="#042666" d="
  M 210.53 53.45
  C 217.69 54.95 214.56 63.16 210.07 66.07
  C 205.02 69.35 192.48 68.37 186.25 68.13
  Q 185.62 68.10 185.78 67.49
  L 192.91 40.77
  A 1.28 1.28 0.0 0 1 194.08 39.82
  Q 203.35 39.33 212.99 40.03
  C 215.61 40.22 217.55 41.94 217.32 44.75
  Q 216.85 50.56 210.49 52.43
  A 0.53 0.52 -47.4 0 0 210.53 53.45
  Z
  M 196.04 50.28
  Q 195.84 51.05 196.62 51.11
  C 200.37 51.41 212.22 52.49 210.57 45.36
  A 2.06 2.04 84.1 0 0 208.63 43.77
  L 198.44 43.49
  Q 197.83 43.47 197.68 44.06
  L 196.04 50.28
  Z
  M 194.67 55.56
  C 193.84 57.81 192.81 61.26 192.79 63.64
  Q 192.78 64.11 193.26 64.13
  C 198.88 64.39 207.58 65.61 208.27 58.82
  C 208.80 53.72 198.20 54.90 195.33 55.07
  Q 194.84 55.09 194.67 55.56
  Z"
/>
<path fill="#042666" d="
  M 280.79 56.07
  A 0.44 0.44 0.0 0 0 281.48 56.29
  C 285.76 52.98 291.79 47.02 297.64 48.65
  Q 298.25 48.82 297.74 49.18
  L 287.73 56.30
  A 0.87 0.86 53.5 0 0 287.55 57.54
  L 295.44 67.67
  A 0.40 0.40 0.0 0 1 295.12 68.31
  L 289.08 68.16
  A 1.26 1.26 0.0 0 1 288.08 67.64
  L 281.09 58.07
  A 0.67 0.67 0.0 0 0 279.90 58.30
  L 277.37 67.57
  A 0.88 0.87 7.0 0 1 276.54 68.21
  L 273.10 68.21
  A 0.90 0.89 -82.5 0 1 272.24 67.08
  L 279.33 40.43
  Q 279.51 39.77 280.20 39.73
  L 284.19 39.50
  Q 284.92 39.46 284.73 40.17
  Q 282.83 47.48 280.82 54.76
  Q 280.62 55.49 280.79 56.07
  Z"
/>
<path fill="#042666" d="
  M 67.37 66.07
  C 66.48 69.19 60.69 68.41 58.07 68.07
  Q 57.48 68.00 57.64 67.43
  L 65.01 40.41
  A 0.87 0.86 -82.9 0 1 65.83 39.77
  L 73.67 39.65
  Q 74.42 39.63 74.24 40.37
  Q 70.99 53.30 67.37 66.07
  Z"
/>
<path fill="#042666" d="
  M 98.65 46.24
  Q 95.50 43.69 91.70 45.28
  Q 85.04 48.06 84.17 56.09
  C 83.16 65.43 93.89 64.73 97.50 58.58
  Q 97.84 58.00 98.51 58.00
  L 106.46 57.98
  A 0.53 0.53 0.0 0 1 106.95 58.72
  Q 104.56 64.40 98.24 66.52
  C 92.45 68.45 81.60 69.57 76.92 65.00
  C 70.67 58.88 76.91 47.82 82.43 43.79
  C 88.24 39.54 97.91 38.71 104.63 40.81
  Q 109.78 42.41 108.88 48.34
  Q 108.81 48.81 108.34 48.87
  Q 104.52 49.40 101.22 49.02
  Q 99.54 48.83 99.15 47.06
  A 1.53 1.49 14.4 0 0 98.65 46.24
  Z"
/>
<path fill="#042666" d="
  M 135.79 54.29
  C 132.98 64.92 144.39 65.39 149.16 58.47
  A 1.08 1.07 17.1 0 1 150.05 58.00
  L 157.95 57.95
  A 0.42 0.41 10.9 0 1 158.34 58.52
  C 154.66 67.61 142.89 69.25 134.54 67.70
  C 128.09 66.51 124.44 61.72 126.20 55.23
  Q 129.84 41.81 143.77 40.11
  C 150.45 39.29 159.34 39.01 160.64 47.10
  A 1.72 1.72 0.0 0 1 158.93 49.09
  L 152.31 49.05
  A 1.12 1.12 0.0 0 1 151.34 48.46
  Q 148.38 42.90 142.29 45.87
  Q 137.38 48.27 135.79 54.29
  Z"
/>
<path fill="#042666" d="
  M 230.72 66.55
  C 226.56 68.75 214.72 71.13 216.57 62.32
  C 218.02 55.43 229.06 55.95 234.08 56.00
  Q 234.57 56.00 234.74 55.54
  C 236.93 49.87 229.78 49.87 226.90 52.11
  Q 224.40 54.04 221.51 53.19
  Q 220.88 53.01 221.24 52.47
  C 223.95 48.37 230.70 47.47 234.94 48.04
  C 242.07 48.99 240.59 54.06 239.26 59.36
  Q 238.26 63.35 236.97 67.25
  A 0.79 0.79 0.0 0 1 236.57 67.72
  Q 233.34 69.35 231.55 66.76
  Q 231.23 66.29 230.72 66.55
  Z
  M 233.35 59.07
  C 230.44 58.28 222.03 58.49 221.96 63.02
  Q 221.92 65.56 224.01 65.78
  Q 231.07 66.51 233.78 59.95
  A 0.66 0.65 19.0 0 0 233.35 59.07
  Z"
/>
<path fill="#042666" d="
  M 253.77 51.05
  C 258.72 47.38 271.09 45.34 269.36 55.48
  Q 268.74 59.12 265.91 67.58
  A 0.84 0.83 -81.9 0 1 265.15 68.16
  L 261.09 68.30
  A 0.46 0.46 0.0 0 1 260.63 67.70
  C 262.18 63.01 268.05 48.74 257.31 51.73
  C 250.52 53.62 250.09 61.88 248.46 67.75
  A 0.66 0.65 -82.5 0 1 247.83 68.24
  L 243.56 68.25
  A 0.56 0.55 -83.0 0 1 243.03 67.56
  L 247.91 48.93
  A 0.67 0.67 0.0 0 1 248.58 48.44
  L 252.32 48.56
  Q 252.94 48.58 252.96 49.19
  L 253.04 50.71
  Q 253.08 51.57 253.77 51.05
  Z"
/>
</svg>
