<?xml version="1.0" encoding="UTF-8" standalone="no"?>
<!DOCTYPE svg PUBLIC "-//W3C//DTD SVG 1.1//EN" "http://www.w3.org/Graphics/SVG/1.1/DTD/svg11.dtd">
<svg xmlns="http://www.w3.org/2000/svg" version="1.1" viewBox="0.00 0.00 213.00 215.00">
<path fill="#3737c8" d="
  M 0.00 112.16
  L 0.00 103.23
  Q 1.99 65.62 26.22 37.98
  C 72.28 -14.58 155.52 -9.54 194.65 48.65
  C 224.96 93.74 216.20 154.32 174.86 189.07
  C 106.87 246.22 4.65 200.32 0.00 112.16
  Z
  M 115.49 17.30
  L 110.99 9.43
  Q 110.71 8.95 110.16 8.93
  L 106.53 8.84
  Q 105.88 8.82 105.87 9.47
  L 105.65 24.73
  Q 105.64 25.31 106.22 25.31
  L 109.21 25.31
  Q 109.73 25.31 109.74 24.79
  L 109.85 16.55
  Q 109.87 15.78 110.25 16.45
  L 115.03 24.86
  A 1.05 1.04 -14.0 0 0 115.90 25.38
  L 118.96 25.49
  Q 119.68 25.51 119.68 24.79
  L 119.80 9.75
  Q 119.80 9.19 119.25 9.17
  L 116.20 9.05
  Q 115.68 9.03 115.69 9.55
  L 115.84 17.20
  Q 115.85 17.94 115.49 17.30
  Z
  M 102.3552 9.6495
  A 0.45 0.45 0.0 0 0 101.8749 9.2320
  L 97.6453 9.5278
  A 0.45 0.45 0.0 0 0 97.2277 10.0081
  L 98.3048 25.4105
  A 0.45 0.45 0.0 0 0 98.7851 25.8280
  L 103.0147 25.5322
  A 0.45 0.45 0.0 0 0 103.4323 25.0519
  L 102.3552 9.6495
  Z
  M 125.05 10.69
  L 121.77 25.25
  A 0.73 0.73 0.0 0 0 122.32 26.12
  L 128.40 27.49
  A 7.60 7.58 12.7 0 0 137.48 21.77
  L 137.75 20.58
  A 7.60 7.58 12.7 0 0 132.00 11.51
  L 125.92 10.14
  A 0.73 0.73 0.0 0 0 125.05 10.69
  Z
  M 147.3021 17.1316
  A 0.40 0.40 0.0 0 0 147.0711 16.6152
  L 142.9980 15.0599
  A 0.40 0.40 0.0 0 0 142.4816 15.2908
  L 136.9379 29.8084
  A 0.40 0.40 0.0 0 0 137.1689 30.3248
  L 141.2420 31.8801
  A 0.40 0.40 0.0 0 0 141.7584 31.6492
  L 147.3021 17.1316
  Z
  M 80.45 23.45
  A 3.94 3.94 0.0 0 0 76.51 19.51
  A 3.94 3.94 0.0 0 0 72.57 23.45
  A 3.94 3.94 0.0 0 0 76.51 27.39
  A 3.94 3.94 0.0 0 0 80.45 23.45
  Z
  M 148.64 32.41
  Q 152.76 32.96 151.65 36.84
  A 0.79 0.78 -67.6 0 0 152.02 37.74
  L 155.40 39.60
  Q 156.03 39.95 156.17 39.24
  L 159.41 23.59
  A 0.67 0.67 0.0 0 0 159.08 22.87
  L 155.36 20.81
  Q 154.90 20.55 154.52 20.91
  L 142.88 31.90
  A 0.53 0.53 0.0 0 0 143.01 32.76
  L 145.76 34.17
  Q 146.18 34.38 146.50 34.05
  L 147.81 32.70
  Q 148.15 32.35 148.64 32.41
  Z
  M 33.97 42.47
  L 30.58 46.17
  A 0.46 0.46 0.0 0 0 30.86 46.93
  L 33.41 47.27
  A 0.86 0.85 23.9 0 0 34.17 46.98
  L 36.83 43.93
  A 0.75 0.74 44.3 0 1 37.95 43.92
  L 39.24 45.35
  Q 39.81 45.99 39.09 46.44
  L 37.88 47.19
  A 1.78 1.78 0.0 0 0 38.11 50.34
  C 41.91 51.98 46.75 50.72 50.49 48.79
  Q 50.94 48.56 50.71 48.10
  Q 50.12 46.90 48.87 47.33
  Q 46.15 48.25 43.84 47.96
  Q 43.26 47.89 43.33 47.31
  Q 43.88 42.97 39.66 41.90
  A 0.40 0.40 0.0 0 1 39.48 41.23
  Q 44.86 36.07 50.91 31.93
  Q 51.71 31.39 52.22 31.63
  Q 52.89 31.94 52.91 33.19
  A 1.49 1.49 0.0 0 1 51.21 34.68
  C 43.07 33.47 42.84 46.52 55.34 44.13
  Q 55.79 44.05 55.82 43.59
  L 55.88 42.65
  A 0.61 0.61 0.0 0 0 55.12 42.02
  Q 51.70 42.86 49.31 40.55
  A 1.36 1.35 -68.9 0 1 48.89 39.59
  Q 48.85 37.75 50.65 37.38
  Q 51.15 37.27 51.37 37.74
  Q 52.26 39.61 54.41 38.80
  Q 54.77 38.67 54.79 38.29
  L 54.92 36.01
  Q 54.98 34.85 55.68 35.78
  L 58.55 39.58
  A 0.84 0.83 66.2 0 0 59.36 39.90
  L 62.76 39.30
  Q 63.30 39.21 62.97 38.77
  L 55.77 29.44
  Q 55.36 28.92 55.94 28.59
  L 57.17 27.89
  A 0.52 0.52 0.0 0 0 57.22 27.01
  L 55.49 25.75
  Q 55.01 25.41 54.51 25.71
  Q 45.07 31.34 37.26 39.07
  A 1.44 1.42 -67.3 0 1 36.25 39.49
  L 27.79 39.56
  A 0.88 0.87 18.1 0 0 27.09 39.91
  L 24.63 43.18
  Q 24.12 43.85 24.90 44.18
  L 26.81 45.00
  Q 27.46 45.27 27.82 44.67
  Q 29.77 41.37 33.87 42.17
  Q 34.19 42.23 33.97 42.47
  Z
  M 164.89 37.15
  A 0.32 0.32 0.0 0 1 165.45 37.40
  L 163.96 46.87
  A 0.32 0.32 0.0 0 0 164.07 47.17
  L 166.92 49.57
  A 0.32 0.32 0.0 0 0 167.37 49.53
  L 177.55 37.44
  A 0.32 0.32 0.0 0 0 177.51 36.98
  L 174.69 34.68
  A 0.32 0.32 0.0 0 0 174.23 34.73
  L 169.74 40.58
  A 0.32 0.32 0.0 0 1 169.17 40.33
  L 170.62 31.47
  A 0.32 0.32 0.0 0 0 170.51 31.17
  L 167.23 28.45
  A 0.32 0.32 0.0 0 0 166.79 28.49
  L 156.58 40.52
  A 0.32 0.32 0.0 0 0 156.61 40.97
  L 159.33 43.28
  A 0.32 0.32 0.0 0 0 159.79 43.24
  L 164.89 37.15
  Z
  M 108.17 32.29
  A 0.34 0.34 0.0 0 1 107.83 32.05
  L 107.04 29.47
  A 0.34 0.34 0.0 0 0 106.39 29.48
  L 105.64 32.07
  A 0.34 0.34 0.0 0 1 105.31 32.31
  L 102.61 32.27
  A 0.34 0.34 0.0 0 0 102.41 32.89
  L 104.65 34.40
  A 0.34 0.34 0.0 0 1 104.78 34.79
  L 103.90 37.34
  A 0.34 0.34 0.0 0 0 104.43 37.72
  L 106.56 36.07
  A 0.34 0.34 0.0 0 1 106.97 36.07
  L 109.13 37.69
  A 0.34 0.34 0.0 0 0 109.65 37.30
  L 108.74 34.77
  A 0.34 0.34 0.0 0 1 108.86 34.37
  L 111.07 32.83
  A 0.34 0.34 0.0 0 0 110.86 32.21
  L 108.17 32.29
  Z
  M 82.28 36.22
  A 0.35 0.35 0.0 0 1 81.89 36.11
  L 80.29 34.09
  A 0.35 0.35 0.0 0 0 79.66 34.32
  L 79.79 36.90
  A 0.35 0.35 0.0 0 1 79.56 37.24
  L 77.14 38.14
  A 0.35 0.35 0.0 0 0 77.17 38.80
  L 79.66 39.48
  A 0.35 0.35 0.0 0 1 79.91 39.81
  L 80.02 42.38
  A 0.35 0.35 0.0 0 0 80.66 42.56
  L 82.07 40.41
  A 0.35 0.35 0.0 0 1 82.46 40.26
  L 84.94 40.96
  A 0.35 0.35 0.0 0 0 85.31 40.40
  L 83.70 38.39
  A 0.35 0.35 0.0 0 1 83.68 37.98
  L 85.11 35.83
  A 0.35 0.35 0.0 0 0 84.70 35.31
  L 82.28 36.22
  Z
  M 133.89 37.28
  A 0.34 0.34 0.0 0 1 133.65 36.94
  L 133.77 34.25
  A 0.34 0.34 0.0 0 0 133.15 34.04
  L 131.57 36.22
  A 0.34 0.34 0.0 0 1 131.18 36.34
  L 128.66 35.40
  A 0.34 0.34 0.0 0 0 128.27 35.92
  L 129.85 38.09
  A 0.34 0.34 0.0 0 1 129.84 38.50
  L 128.17 40.61
  A 0.34 0.34 0.0 0 0 128.54 41.14
  L 131.10 40.31
  A 0.34 0.34 0.0 0 1 131.49 40.44
  L 132.97 42.68
  A 0.34 0.34 0.0 0 0 133.59 42.50
  L 133.59 39.81
  A 0.34 0.34 0.0 0 1 133.84 39.48
  L 136.43 38.76
  A 0.34 0.34 0.0 0 0 136.45 38.11
  L 133.89 37.28
  Z
  M 128.32 48.94
  C 181.82 68.72 183.59 144.51 129.77 166.20
  C 124.76 168.22 121.29 170.94 117.10 173.88
  A 0.33 0.33 0.0 0 0 117.35 174.47
  Q 144.17 169.42 160.05 148.92
  C 190.19 110.00 169.47 53.38 121.91 42.14
  C 89.45 34.47 55.74 52.40 43.80 83.46
  C 35.54 104.98 38.66 128.12 51.85 147.11
  Q 52.37 147.86 52.70 147.01
  L 53.01 146.22
  Q 53.25 145.60 52.75 145.17
  Q 50.40 143.12 52.60 141.04
  A 0.87 0.86 53.3 0 0 52.75 139.97
  Q 41.84 121.13 44.34 100.29
  C 49.16 60.24 90.43 34.93 128.32 48.94
  Z
  M 61.16 50.42
  A 0.34 0.34 0.0 0 1 61.00 50.03
  L 61.70 47.41
  A 0.34 0.34 0.0 0 0 61.14 47.07
  L 59.13 48.89
  A 0.34 0.34 0.0 0 1 58.72 48.92
  L 56.45 47.45
  A 0.34 0.34 0.0 0 0 55.95 47.88
  L 57.06 50.35
  A 0.34 0.34 0.0 0 1 56.96 50.75
  L 54.86 52.46
  A 0.34 0.34 0.0 0 0 55.11 53.06
  L 57.80 52.78
  A 0.34 0.34 0.0 0 1 58.16 52.99
  L 59.13 55.52
  A 0.34 0.34 0.0 0 0 59.78 55.47
  L 60.34 52.82
  A 0.34 0.34 0.0 0 1 60.66 52.55
  L 63.36 52.40
  A 0.34 0.34 0.0 0 0 63.51 51.77
  L 61.16 50.42
  Z
  M 156.48 50.81
  A 0.34 0.34 0.0 0 1 156.38 50.41
  L 157.41 47.95
  A 0.34 0.34 0.0 0 0 156.91 47.53
  L 154.68 49.00
  A 0.34 0.34 0.0 0 1 154.27 48.98
  L 152.25 47.23
  A 0.34 0.34 0.0 0 0 151.70 47.58
  L 152.41 50.15
  A 0.34 0.34 0.0 0 1 152.26 50.53
  L 149.98 51.92
  A 0.34 0.34 0.0 0 0 150.14 52.55
  L 152.81 52.67
  A 0.34 0.34 0.0 0 1 153.12 52.93
  L 153.73 55.53
  A 0.34 0.34 0.0 0 0 154.38 55.57
  L 155.32 53.07
  A 0.34 0.34 0.0 0 1 155.67 52.85
  L 158.33 53.08
  A 0.34 0.34 0.0 0 0 158.57 52.47
  L 156.48 50.81
  Z
  M 181.10 67.37
  L 184.36 62.58
  A 0.66 0.65 -59.2 0 1 185.20 62.36
  C 189.84 64.73 193.73 59.56 191.12 55.02
  Q 188.97 51.29 186.41 47.61
  Q 186.13 47.20 185.72 47.47
  L 172.79 55.85
  Q 172.38 56.12 172.64 56.52
  L 174.94 60.00
  A 0.54 0.54 0.0 0 0 175.69 60.15
  L 179.92 57.39
  A 0.77 0.77 0.0 0 1 180.96 58.48
  L 177.95 62.72
  A 1.46 1.46 0.0 0 0 177.89 64.34
  L 182.27 71.61
  Q 182.54 72.07 183.07 71.99
  Q 186.81 71.39 186.73 75.70
  Q 186.72 76.12 186.39 76.38
  L 185.02 77.46
  Q 184.50 77.87 184.74 78.48
  L 186.19 82.14
  A 0.46 0.45 -30.7 0 0 186.91 82.32
  L 199.33 72.13
  A 0.73 0.73 0.0 0 0 199.55 71.29
  L 198.07 67.44
  Q 197.86 66.90 197.28 66.94
  L 181.52 68.11
  A 0.47 0.47 0.0 0 1 181.10 67.37
  Z
  M 113.24 55.80
  L 136.23 55.84
  A 0.28 0.28 0.0 0 0 136.36 55.31
  Q 106.68 39.80 77.02 55.27
  A 0.33 0.33 0.0 0 0 77.18 55.89
  Q 84.91 55.73 92.62 55.81
  C 99.63 55.89 105.66 49.10 112.37 55.45
  Q 112.74 55.80 113.24 55.80
  Z
  M 113.77 70.94
  Q 114.45 64.20 113.11 59.54
  C 106.76 37.42 53.76 88.78 47.69 94.97
  Q 46.97 95.71 47.70 97.12
  A 0.39 0.38 -36.2 0 0 48.31 97.21
  C 60.82 84.95 78.30 70.57 94.93 66.22
  Q 101.85 64.42 104.24 70.75
  Q 104.41 71.20 104.89 71.21
  L 113.32 71.34
  A 0.44 0.44 0.0 0 0 113.77 70.94
  Z
  M 31.61 66.58
  Q 34.52 67.48 36.39 64.90
  Q 36.68 64.50 36.24 64.28
  L 26.21 59.23
  Q 25.67 58.96 25.98 58.44
  L 26.63 57.36
  Q 27.04 56.68 26.24 56.69
  L 23.79 56.74
  Q 23.19 56.75 22.88 57.27
  Q 18.73 64.19 15.95 71.76
  A 1.05 1.03 -85.6 0 1 15.20 72.42
  C 9.13 73.81 6.38 74.98 6.46 82.09
  Q 6.49 84.50 7.40 85.17
  Q 8.68 86.10 11.48 84.92
  Q 12.07 84.68 11.95 85.30
  Q 7.92 106.51 13.59 127.36
  Q 13.81 128.16 14.40 127.57
  L 15.98 125.99
  Q 16.41 125.55 16.27 124.95
  L 15.45 121.56
  Q 15.30 120.91 15.95 120.77
  L 18.66 120.18
  Q 19.22 120.06 19.42 120.60
  L 20.65 124.01
  Q 20.84 124.55 20.33 124.79
  C 15.54 127.08 13.48 133.06 18.74 136.22
  Q 19.15 136.47 19.63 136.37
  C 24.12 135.43 22.69 131.44 21.73 128.37
  A 0.34 0.34 0.0 0 1 22.37 128.15
  L 23.23 130.37
  A 1.56 1.56 0.0 0 0 25.89 130.79
  Q 28.35 127.75 27.45 123.86
  A 1.39 1.39 0.0 0 0 25.63 122.86
  L 24.61 123.21
  Q 24.05 123.41 23.89 122.84
  L 23.09 120.13
  Q 22.91 119.53 23.54 119.46
  Q 27.21 119.06 27.08 115.12
  Q 27.06 114.80 26.75 114.85
  L 15.19 116.71
  Q 14.56 116.81 14.47 116.19
  L 14.27 114.88
  A 0.64 0.63 82.7 0 1 14.83 114.15
  L 24.26 113.11
  A 0.96 0.95 -82.4 0 0 25.05 112.50
  L 26.17 109.52
  A 0.38 0.37 7.3 0 0 25.78 109.02
  L 14.26 110.18
  Q 13.78 110.23 13.75 109.75
  L 13.49 104.35
  Q 13.46 103.66 14.16 103.67
  L 16.41 103.70
  A 0.67 0.67 0.0 0 1 17.03 104.59
  L 16.51 106.06
  Q 16.32 106.59 16.67 107.02
  C 20.39 111.63 25.89 101.37 26.70 98.33
  Q 26.81 97.93 26.41 97.81
  Q 25.22 97.44 24.69 98.47
  Q 23.34 101.14 21.44 102.49
  Q 20.92 102.86 20.56 102.34
  Q 18.12 98.81 14.18 100.89
  Q 13.54 101.23 13.56 100.51
  Q 13.80 92.58 15.61 84.85
  A 0.57 0.57 0.0 0 1 16.26 84.42
  L 17.06 84.56
  Q 17.79 84.69 17.62 85.41
  C 16.82 88.89 14.45 96.48 20.56 94.90
  Q 25.08 93.74 27.56 89.66
  A 0.84 0.84 0.0 0 0 26.37 88.52
  L 21.80 91.58
  A 1.53 1.52 -9.0 0 1 19.48 89.90
  L 20.65 85.78
  Q 20.80 85.25 21.35 85.35
  L 25.78 86.20
  Q 26.32 86.30 26.66 85.87
  L 28.64 83.35
  A 0.45 0.45 0.0 0 0 28.37 82.63
  L 17.28 80.58
  Q 16.71 80.48 16.88 79.93
  L 17.64 77.46
  Q 17.79 76.95 18.30 77.13
  L 27.28 80.21
  A 0.99 0.96 31.7 0 0 28.27 79.99
  L 30.42 77.88
  Q 30.99 77.33 30.24 77.06
  L 19.48 73.30
  Q 19.06 73.15 19.23 72.74
  L 20.96 68.62
  A 1.50 1.50 0.0 0 1 23.83 69.42
  L 23.53 71.45
  Q 23.31 72.90 24.77 73.00
  Q 31.38 73.44 31.19 66.90
  Q 31.18 66.44 31.61 66.58
  Z
  M 90.87 57.99
  A 0.32 0.32 0.0 0 0 90.69 57.40
  L 73.34 57.47
  A 0.32 0.32 0.0 0 0 73.13 57.54
  L 62.58 66.39
  A 0.32 0.32 0.0 0 0 62.79 66.95
  L 77.29 66.97
  A 0.32 0.32 0.0 0 0 77.47 66.92
  L 90.87 57.99
  Z
  M 114.42 57.43
  A 0.35 0.35 0.0 0 0 114.08 57.83
  L 115.31 66.66
  A 0.35 0.35 0.0 0 0 115.65 66.96
  L 150.01 66.96
  A 0.35 0.35 0.0 0 0 150.24 66.34
  L 139.81 57.54
  A 0.35 0.35 0.0 0 0 139.58 57.46
  L 114.42 57.43
  Z
  M 44.25 69.49
  A 0.34 0.34 0.0 0 1 43.96 69.19
  L 43.71 66.48
  A 0.34 0.34 0.0 0 0 43.07 66.36
  L 41.82 68.77
  A 0.34 0.34 0.0 0 1 41.45 68.95
  L 38.79 68.35
  A 0.34 0.34 0.0 0 0 38.48 68.92
  L 40.39 70.85
  A 0.34 0.34 0.0 0 1 40.44 71.27
  L 39.05 73.61
  A 0.34 0.34 0.0 0 0 39.50 74.08
  L 41.93 72.86
  A 0.34 0.34 0.0 0 1 42.34 72.94
  L 44.13 74.98
  A 0.34 0.34 0.0 0 0 44.72 74.71
  L 44.31 72.02
  A 0.34 0.34 0.0 0 1 44.51 71.66
  L 47.01 70.58
  A 0.34 0.34 0.0 0 0 46.93 69.93
  L 44.25 69.49
  Z
  M 171.94 69.01
  A 0.34 0.34 0.0 0 1 171.57 68.85
  L 170.25 66.53
  A 0.34 0.34 0.0 0 0 169.62 66.67
  L 169.40 69.33
  A 0.34 0.34 0.0 0 1 169.13 69.63
  L 166.52 70.17
  A 0.34 0.34 0.0 0 0 166.46 70.82
  L 168.91 71.85
  A 0.34 0.34 0.0 0 1 169.12 72.20
  L 168.83 74.84
  A 0.34 0.34 0.0 0 0 169.43 75.10
  L 171.16 73.08
  A 0.34 0.34 0.0 0 1 171.56 73.00
  L 173.99 74.09
  A 0.34 0.34 0.0 0 0 174.42 73.61
  L 173.03 71.33
  A 0.34 0.34 0.0 0 1 173.07 70.93
  L 174.86 68.96
  A 0.34 0.34 0.0 0 0 174.53 68.40
  L 171.94 69.01
  Z
  M 60.66 68.88
  A 0.34 0.34 0.0 0 0 60.38 69.03
  L 54.30 77.83
  A 0.34 0.34 0.0 0 0 54.58 78.37
  L 63.69 78.31
  A 0.34 0.34 0.0 0 0 63.90 78.23
  L 74.41 69.43
  A 0.34 0.34 0.0 0 0 74.19 68.83
  L 60.66 68.88
  Z
  M 101.25 72.71
  L 102.40 71.91
  Q 102.84 71.60 102.98 71.07
  C 103.40 69.40 102.18 68.84 100.72 68.84
  C 96.29 68.84 91.01 68.21 86.92 70.07
  Q 79.79 73.30 73.33 77.85
  Q 72.60 78.36 73.49 78.36
  L 100.23 78.34
  A 1.83 1.82 -80.3 0 0 101.95 77.12
  Q 102.69 75.06 101.18 73.57
  Q 100.70 73.10 101.25 72.71
  Z
  M 116.72 73.47
  Q 115.72 74.76 115.64 76.37
  A 1.91 1.91 0.0 0 0 117.55 78.39
  L 158.52 78.33
  Q 159.42 78.33 158.91 77.59
  L 153.14 69.29
  A 0.95 0.94 -17.0 0 0 152.36 68.88
  L 115.51 68.87
  Q 115.01 68.87 114.89 69.35
  Q 114.25 71.83 116.49 72.67
  A 0.52 0.52 0.0 0 1 116.72 73.47
  Z
  M 115.04 73.63
  C 110.90 71.57 107.94 72.35 103.62 73.15
  Q 102.92 73.28 102.68 74.11
  A 0.81 0.81 0.0 0 0 103.78 75.08
  Q 108.93 72.82 114.05 75.08
  Q 114.55 75.30 114.88 74.86
  L 115.23 74.40
  Q 115.60 73.91 115.04 73.63
  Z
  M 92.82 135.15
  C 116.39 148.93 145.04 127.35 137.80 101.03
  Q 133.24 84.42 115.46 79.13
  Q 114.97 78.99 114.64 78.61
  Q 108.76 71.93 102.80 78.62
  A 1.42 1.38 13.8 0 1 102.05 79.06
  C 75.19 85.31 68.72 121.06 92.82 135.15
  Z
  M 202.3835 80.1317
  A 0.53 0.53 0.0 0 0 201.7410 79.7456
  L 186.8955 83.4470
  A 0.53 0.53 0.0 0 0 186.5095 84.0895
  L 187.4965 88.0483
  A 0.53 0.53 0.0 0 0 188.1390 88.4344
  L 202.9845 84.7330
  A 0.53 0.53 0.0 0 0 203.3705 84.0905
  L 202.3835 80.1317
  Z
  M 60.82 81.06
  Q 61.69 80.25 60.50 80.25
  L 53.46 80.26
  Q 52.91 80.26 52.70 80.77
  L 49.57 88.47
  A 1.20 1.20 0.0 0 0 51.51 89.80
  L 60.82 81.06
  Z
  M 94.92 80.80
  A 0.30 0.30 0.0 0 0 94.75 80.25
  L 70.11 80.26
  Q 69.58 80.26 69.16 80.59
  L 58.43 89.12
  Q 57.66 89.73 58.64 89.74
  Q 66.83 89.79 74.91 89.76
  Q 77.87 89.75 80.42 88.67
  Q 87.89 85.51 94.92 80.80
  Z
  M 121.86 80.84
  Q 128.20 83.96 132.70 89.42
  A 0.96 0.93 -19.2 0 0 133.43 89.76
  L 163.61 89.75
  A 0.48 0.48 0.0 0 0 164.05 89.09
  L 160.64 80.79
  A 0.86 0.85 -11.4 0 0 159.85 80.27
  L 122.00 80.24
  A 0.32 0.32 0.0 0 0 121.86 80.84
  Z
  M 78.41 97.39
  A 0.31 0.31 0.0 0 0 78.99 97.55
  L 83.80 89.25
  A 0.31 0.31 0.0 0 0 83.40 88.82
  L 78.71 90.93
  A 0.31 0.31 0.0 0 0 78.53 91.21
  L 78.41 97.39
  Z
  M 192.76 95.61
  A 0.35 0.35 0.0 0 1 193.06 95.21
  L 204.61 93.61
  A 0.35 0.35 0.0 0 0 204.91 93.21
  L 204.20 88.84
  A 0.35 0.35 0.0 0 0 203.80 88.55
  L 188.35 90.73
  A 0.35 0.35 0.0 0 0 188.06 91.12
  L 189.50 101.90
  A 0.35 0.35 0.0 0 0 189.90 102.19
  L 193.28 101.66
  A 0.35 0.35 0.0 0 0 193.57 101.27
  L 192.76 95.61
  Z
  M 34.99 93.16
  A 0.34 0.34 0.0 0 1 34.61 92.97
  L 33.48 90.47
  A 0.34 0.34 0.0 0 0 32.83 90.57
  L 32.48 93.29
  A 0.34 0.34 0.0 0 1 32.18 93.58
  L 29.45 93.89
  A 0.34 0.34 0.0 0 0 29.35 94.53
  L 31.83 95.71
  A 0.34 0.34 0.0 0 1 32.01 96.09
  L 31.46 98.77
  A 0.34 0.34 0.0 0 0 32.04 99.08
  L 33.93 97.08
  A 0.34 0.34 0.0 0 1 34.34 97.02
  L 36.73 98.38
  A 0.34 0.34 0.0 0 0 37.19 97.92
  L 35.88 95.51
  A 0.34 0.34 0.0 0 1 35.95 95.09
  L 37.98 93.24
  A 0.34 0.34 0.0 0 0 37.69 92.66
  L 34.99 93.16
  Z
  M 181.23 93.65
  A 0.35 0.35 0.0 0 1 180.92 93.36
  L 180.46 90.76
  A 0.35 0.35 0.0 0 0 179.80 90.68
  L 178.70 93.07
  A 0.35 0.35 0.0 0 1 178.33 93.27
  L 175.72 92.91
  A 0.35 0.35 0.0 0 0 175.44 93.52
  L 177.37 95.30
  A 0.35 0.35 0.0 0 1 177.45 95.71
  L 176.30 98.08
  A 0.35 0.35 0.0 0 0 176.79 98.54
  L 179.08 97.25
  A 0.35 0.35 0.0 0 1 179.50 97.30
  L 181.40 99.13
  A 0.35 0.35 0.0 0 0 181.98 98.81
  L 181.47 96.23
  A 0.35 0.35 0.0 0 1 181.64 95.85
  L 183.97 94.61
  A 0.35 0.35 0.0 0 0 183.84 93.95
  L 181.23 93.65
  Z
  M 166.32 101.13
  A 0.32 0.32 0.0 0 0 166.64 100.75
  L 164.94 91.94
  A 0.32 0.32 0.0 0 0 164.63 91.68
  L 135.16 91.65
  A 0.32 0.32 0.0 0 0 134.87 92.10
  L 138.84 100.95
  A 0.32 0.32 0.0 0 0 139.13 101.14
  L 166.32 101.13
  Z
  M 55.73 91.67
  A 0.30 0.30 0.0 0 0 55.52 91.75
  L 46.08 100.61
  A 0.30 0.30 0.0 0 0 46.29 101.13
  L 70.15 101.13
  A 0.30 0.30 0.0 0 0 70.40 101.00
  L 76.48 92.13
  A 0.30 0.30 0.0 0 0 76.23 91.66
  L 55.73 91.67
  Z
  M 43.28 166.14
  Q 42.22 166.85 41.88 168.04
  Q 41.66 168.78 42.39 168.53
  L 76.57 156.75
  Q 77.00 156.60 77.00 156.15
  L 77.57 94.49
  A 0.44 0.44 0.0 0 0 76.78 94.22
  Q 73.01 99.10 69.73 104.31
  Q 68.26 106.65 67.78 109.57
  C 67.22 112.95 67.06 116.73 65.18 119.73
  Q 63.02 123.18 61.47 126.92
  Q 59.62 131.37 58.03 133.96
  Q 55.42 138.20 52.85 142.52
  A 0.72 0.71 -46.9 0 0 52.87 143.28
  L 54.17 145.21
  A 1.04 1.03 43.1 0 1 54.21 146.29
  Q 49.08 155.28 44.00 164.25
  Q 43.76 164.67 43.70 165.42
  Q 43.66 165.88 43.28 166.14
  Z
  M 197.01 112.12
  L 189.63 113.49
  Q 189.10 113.58 189.05 114.13
  L 188.81 117.16
  Q 188.76 117.82 189.39 118.04
  L 204.24 123.13
  Q 204.81 123.32 204.85 122.71
  L 205.00 119.81
  A 0.57 0.57 0.0 0 0 204.60 119.24
  L 197.26 116.89
  A 0.32 0.32 0.0 0 1 197.28 116.27
  Q 200.37 115.50 203.69 115.33
  A 2.54 2.54 0.0 0 0 204.32 110.37
  L 197.48 108.25
  Q 196.56 107.97 197.51 107.80
  L 205.31 106.41
  Q 205.92 106.30 205.97 105.68
  L 206.22 102.34
  Q 206.28 101.64 205.59 101.77
  L 190.28 104.68
  Q 189.61 104.81 189.56 105.48
  L 189.33 108.63
  A 0.78 0.77 -79.5 0 0 189.87 109.42
  L 197.04 111.61
  Q 198.06 111.92 197.01 112.12
  Z
  M 67.00 106.75
  C 67.20 105.38 67.85 104.78 68.57 103.63
  Q 68.92 103.07 68.26 103.07
  L 46.96 103.06
  Q 46.47 103.06 46.47 103.54
  L 46.47 111.89
  Q 46.47 112.55 47.14 112.55
  L 65.42 112.57
  Q 65.94 112.57 66.05 112.07
  Q 66.59 109.41 67.00 106.75
  Z
  M 166.8722 103.3060
  A 0.26 0.26 0.0 0 0 166.6117 103.0464
  L 139.5917 103.0936
  A 0.26 0.26 0.0 0 0 139.3322 103.3540
  L 139.3478 112.3140
  A 0.26 0.26 0.0 0 0 139.6083 112.5736
  L 166.6283 112.5264
  A 0.26 0.26 0.0 0 0 166.8878 112.2660
  L 166.8722 103.3060
  Z
  M 60.84 123.98
  A 1.14 1.14 0.0 0 0 61.84 123.39
  L 65.83 116.15
  A 1.14 1.14 0.0 0 0 64.83 114.46
  L 48.02 114.46
  A 1.14 1.14 0.0 0 0 46.90 115.82
  L 48.30 123.04
  A 1.14 1.14 0.0 0 0 49.42 123.96
  L 60.84 123.98
  Z
  M 165.69 114.48
  L 139.43 114.34
  A 0.67 0.67 0.0 0 0 138.75 115.01
  L 138.75 116.09
  A 7.87 1.27 -89.7 0 0 139.97 123.96
  L 165.03 124.10
  A 7.87 1.27 -89.7 0 0 166.35 116.23
  L 166.35 115.15
  A 0.67 0.67 0.0 0 0 165.69 114.48
  Z
  M 35.95 120.37
  A 0.34 0.34 0.0 0 1 35.87 119.97
  L 37.09 117.57
  A 0.34 0.34 0.0 0 0 36.62 117.12
  L 34.28 118.45
  A 0.34 0.34 0.0 0 1 33.87 118.40
  L 31.96 116.50
  A 0.34 0.34 0.0 0 0 31.39 116.81
  L 31.93 119.44
  A 0.34 0.34 0.0 0 1 31.76 119.81
  L 29.36 121.04
  A 0.34 0.34 0.0 0 0 29.48 121.68
  L 32.15 121.98
  A 0.34 0.34 0.0 0 1 32.45 122.26
  L 32.88 124.92
  A 0.34 0.34 0.0 0 0 33.53 125.00
  L 34.63 122.55
  A 0.34 0.34 0.0 0 1 35.00 122.36
  L 37.65 122.77
  A 0.34 0.34 0.0 0 0 37.93 122.18
  L 35.95 120.37
  Z
  M 181.59 119.93
  A 0.35 0.35 0.0 0 1 181.40 119.56
  L 181.85 116.99
  A 0.35 0.35 0.0 0 0 181.25 116.69
  L 179.42 118.53
  A 0.35 0.35 0.0 0 1 179.01 118.59
  L 176.71 117.37
  A 0.35 0.35 0.0 0 0 176.23 117.84
  L 177.42 120.16
  A 0.35 0.35 0.0 0 1 177.35 120.57
  L 175.48 122.38
  A 0.35 0.35 0.0 0 0 175.78 122.98
  L 178.35 122.56
  A 0.35 0.35 0.0 0 1 178.72 122.75
  L 179.86 125.09
  A 0.35 0.35 0.0 0 0 180.52 124.99
  L 180.93 122.42
  A 0.35 0.35 0.0 0 1 181.22 122.13
  L 183.80 121.76
  A 0.35 0.35 0.0 0 0 183.91 121.10
  L 181.59 119.93
  Z
  M 80.15 129.52
  L 84.27 129.50
  Q 85.05 129.50 84.53 128.92
  Q 80.35 124.26 78.68 118.20
  A 0.34 0.34 0.0 0 0 78.01 118.29
  L 78.04 131.44
  A 0.73 0.72 -44.0 0 0 79.49 131.46
  L 79.55 130.10
  A 0.61 0.60 0.5 0 1 80.15 129.52
  Z
  M 136.60 130.01
  L 136.74 131.21
  A 0.61 0.61 0.0 0 0 137.95 131.15
  L 138.03 119.98
  A 0.25 0.25 0.0 0 0 137.55 119.89
  Q 135.69 124.90 132.21 128.95
  Q 131.71 129.54 132.48 129.54
  L 136.04 129.51
  A 0.57 0.55 86.0 0 1 136.60 130.01
  Z
  M 189.76 125.50
  A 0.53 0.53 0.0 0 1 190.00 126.10
  L 189.05 129.50
  A 0.53 0.53 0.0 0 1 188.54 129.89
  L 186.09 129.90
  A 0.53 0.53 0.0 0 0 185.58 130.29
  L 184.48 134.24
  A 0.53 0.53 0.0 0 0 185.02 134.91
  L 201.07 134.27
  A 0.53 0.53 0.0 0 0 201.56 133.88
  L 202.78 129.53
  A 0.53 0.53 0.0 0 0 202.56 128.94
  L 188.93 120.25
  A 0.53 0.53 0.0 0 0 188.13 120.57
  L 187.36 123.61
  A 0.53 0.53 0.0 0 0 187.60 124.19
  L 189.76 125.50
  Z
  M 59.43 125.87
  L 50.17 125.79
  A 0.23 0.23 0.0 0 0 49.94 126.02
  L 49.94 126.19
  A 8.92 4.73 -89.5 0 0 54.59 135.15
  L 54.85 135.15
  A 8.92 4.73 -89.5 0 0 59.66 126.27
  L 59.66 126.10
  A 0.23 0.23 0.0 0 0 59.43 125.87
  Z
  M 164.13 126.27
  A 0.30 0.30 0.0 0 0 163.85 125.86
  L 139.07 125.86
  A 0.30 0.30 0.0 0 0 138.77 126.16
  L 138.80 135.04
  A 0.30 0.30 0.0 0 0 139.10 135.34
  L 160.24 135.34
  A 0.30 0.30 0.0 0 0 160.52 135.15
  L 164.13 126.27
  Z
  M 86.13 131.69
  A 0.38 0.38 0.0 0 0 86.41 131.04
  L 85.80 130.47
  Q 85.14 129.84 85.21 130.75
  Q 85.27 131.64 86.13 131.69
  Z
  M 130.2913 131.5578
  A 0.79 0.49 137.1 0 0 131.2036 131.3789
  A 0.79 0.49 137.1 0 0 131.4487 130.4822
  A 0.79 0.49 137.1 0 0 130.5364 130.6611
  A 0.79 0.49 137.1 0 0 130.2913 131.5578
  Z
  M 85.59 135.29
  A 2.40 2.40 0.0 0 0 83.19 132.89
  A 2.40 2.40 0.0 0 0 80.79 135.29
  A 2.40 2.40 0.0 0 0 83.19 137.69
  A 2.40 2.40 0.0 0 0 85.59 135.29
  Z
  M 136.20 135.29
  A 2.38 2.38 0.0 0 0 133.82 132.91
  A 2.38 2.38 0.0 0 0 131.44 135.29
  A 2.38 2.38 0.0 0 0 133.82 137.67
  A 2.38 2.38 0.0 0 0 136.20 135.29
  Z
  M 113.23 139.63
  A 0.32 0.32 0.0 0 0 113.27 140.27
  L 121.22 140.28
  A 1.04 1.01 20.9 0 0 121.97 139.96
  Q 124.58 137.28 128.26 138.62
  Q 128.77 138.81 128.76 138.27
  L 128.71 133.28
  A 0.35 0.35 0.0 0 0 128.14 133.02
  Q 121.61 138.39 113.23 139.63
  Z
  M 102.99 140.24
  A 0.38 0.38 0.0 0 0 103.04 139.48
  Q 95.08 138.30 88.93 133.18
  A 0.43 0.43 0.0 0 0 88.22 133.51
  L 88.20 137.91
  Q 88.20 138.57 88.84 138.40
  Q 92.08 137.55 94.37 139.90
  A 1.23 1.22 -22.2 0 0 95.28 140.28
  L 102.99 140.24
  Z
  M 139.14 137.24
  A 0.35 0.35 0.0 0 0 138.79 137.59
  L 138.86 146.40
  A 0.35 0.35 0.0 0 0 139.21 146.75
  L 152.65 146.73
  A 0.35 0.35 0.0 0 0 152.93 146.58
  L 159.08 137.79
  A 0.35 0.35 0.0 0 0 158.80 137.24
  L 139.14 137.24
  Z
  M 192.55 144.49
  A 0.34 0.34 0.0 0 1 192.80 143.94
  L 197.86 143.60
  A 0.34 0.34 0.0 0 0 198.14 143.40
  L 200.12 139.01
  A 0.34 0.34 0.0 0 0 199.77 138.53
  L 189.62 139.63
  A 0.34 0.34 0.0 0 1 189.45 139.60
  L 183.42 137.01
  A 0.34 0.34 0.0 0 0 182.98 137.19
  L 181.28 141.11
  A 0.34 0.34 0.0 0 0 181.46 141.55
  L 187.37 144.11
  A 0.34 0.34 0.0 0 1 187.50 144.21
  L 193.72 152.28
  A 0.34 0.34 0.0 0 0 194.30 152.20
  L 195.70 148.71
  A 0.34 0.34 0.0 0 0 195.65 148.38
  L 192.55 144.49
  Z
  M 94.63 143.09
  A 4.13 4.13 0.0 0 0 90.50 138.96
  A 4.13 4.13 0.0 0 0 86.37 143.09
  A 4.13 4.13 0.0 0 0 90.50 147.22
  A 4.13 4.13 0.0 0 0 94.63 143.09
  Z
  M 129.99 143.09
  A 4.11 4.11 0.0 0 0 125.88 138.98
  A 4.11 4.11 0.0 0 0 121.77 143.09
  A 4.11 4.11 0.0 0 0 125.88 147.20
  A 4.11 4.11 0.0 0 0 129.99 143.09
  Z
  M 86.7607 139.5550
  A 0.27 0.27 0.0 0 0 86.4917 139.2841
  L 78.4117 139.2559
  A 0.27 0.27 0.0 0 0 78.1408 139.5250
  L 78.1393 139.9650
  A 0.27 0.27 0.0 0 0 78.4083 140.2359
  L 86.4883 140.2641
  A 0.27 0.27 0.0 0 0 86.7592 139.9950
  L 86.7607 139.5550
  Z
  M 138.2798 139.8160
  A 4.39 0.56 0.6 0 0 133.8959 139.2100
  A 4.39 0.56 0.6 0 0 129.5002 139.7240
  A 4.39 0.56 0.6 0 0 133.8841 140.3300
  A 4.39 0.56 0.6 0 0 138.2798 139.8160
  Z
  M 44.45 143.84
  A 0.34 0.34 0.0 0 1 44.24 143.49
  L 44.55 140.81
  A 0.34 0.34 0.0 0 0 43.95 140.55
  L 42.20 142.60
  A 0.34 0.34 0.0 0 1 41.80 142.69
  L 39.34 141.57
  A 0.34 0.34 0.0 0 0 38.91 142.06
  L 40.32 144.36
  A 0.34 0.34 0.0 0 1 40.29 144.77
  L 38.46 146.75
  A 0.34 0.34 0.0 0 0 38.79 147.32
  L 41.41 146.68
  A 0.34 0.34 0.0 0 1 41.79 146.85
  L 43.12 149.20
  A 0.34 0.34 0.0 0 0 43.75 149.06
  L 43.96 146.36
  A 0.34 0.34 0.0 0 1 44.23 146.06
  L 46.88 145.52
  A 0.34 0.34 0.0 0 0 46.94 144.87
  L 44.45 143.84
  Z
  M 171.44 142.84
  A 0.34 0.34 0.0 0 1 171.03 142.75
  L 169.25 140.68
  A 0.34 0.34 0.0 0 0 168.65 140.95
  L 169.03 143.66
  A 0.34 0.34 0.0 0 1 168.82 144.02
  L 166.30 145.08
  A 0.34 0.34 0.0 0 0 166.37 145.73
  L 169.06 146.21
  A 0.34 0.34 0.0 0 1 169.34 146.52
  L 169.57 149.25
  A 0.34 0.34 0.0 0 0 170.21 149.38
  L 171.50 146.96
  A 0.34 0.34 0.0 0 1 171.88 146.79
  L 174.54 147.42
  A 0.34 0.34 0.0 0 0 174.87 146.85
  L 172.97 144.88
  A 0.34 0.34 0.0 0 1 172.92 144.47
  L 174.34 142.13
  A 0.34 0.34 0.0 0 0 173.91 141.64
  L 171.44 142.84
  Z
  M 104.76 143.64
  Q 104.51 142.75 104.96 141.88
  Q 105.03 141.75 104.89 141.68
  Q 104.73 141.60 104.59 141.53
  Q 103.88 141.20 103.88 141.97
  L 103.86 144.97
  Q 103.86 145.59 104.48 145.59
  L 109.03 145.57
  A 1.28 1.28 0.0 0 0 109.45 143.09
  Q 106.70 142.12 105.15 143.73
  Q 104.88 144.02 104.76 143.64
  Z
  M 85.6544 141.7366
  A 0.26 0.26 0.0 0 0 85.3921 141.4789
  L 78.2524 141.5412
  A 0.26 0.26 0.0 0 0 77.9947 141.8035
  L 78.0256 145.3434
  A 0.26 0.26 0.0 0 0 78.2879 145.6011
  L 85.4276 145.5388
  A 0.26 0.26 0.0 0 0 85.6853 145.2765
  L 85.6544 141.7366
  Z
  M 102.8918 141.8566
  A 0.31 0.31 0.0 0 0 102.5840 141.5444
  L 95.6042 141.4957
  A 0.31 0.31 0.0 0 0 95.2920 141.8035
  L 95.2682 145.2234
  A 0.31 0.31 0.0 0 0 95.5760 145.5356
  L 102.5558 145.5843
  A 0.31 0.31 0.0 0 0 102.8680 145.2765
  L 102.8918 141.8566
  Z
  M 107.66 141.76
  Q 107.57 141.64 107.48 141.51
  A 0.09 0.09 0.0 0 0 107.33 141.52
  Q 107.26 141.64 107.19 141.76
  Q 107.11 141.90 107.27 141.93
  L 108.80 142.17
  A 0.35 0.35 0.0 0 0 109.02 141.52
  Q 108.26 141.10 107.82 141.75
  Q 107.74 141.87 107.66 141.76
  Z
  M 112.1924 141.8320
  A 0.44 0.44 0.0 0 0 111.7351 141.4101
  L 111.1556 141.4333
  A 0.44 0.44 0.0 0 0 110.7336 141.8906
  L 110.8676 145.2280
  A 0.44 0.44 0.0 0 0 111.3249 145.6499
  L 111.9044 145.6267
  A 0.44 0.44 0.0 0 0 112.3264 145.1694
  L 112.1924 141.8320
  Z
  M 121.04 141.80
  A 0.28 0.28 0.0 0 0 120.76 141.52
  L 113.50 141.52
  A 0.28 0.28 0.0 0 0 113.22 141.80
  L 113.22 145.28
  A 0.28 0.28 0.0 0 0 113.50 145.56
  L 120.76 145.56
  A 0.28 0.28 0.0 0 0 121.04 145.28
  L 121.04 141.80
  Z
  M 138.0990 141.8394
  A 0.30 0.30 0.0 0 0 137.8005 141.5378
  L 131.0006 141.5022
  A 0.30 0.30 0.0 0 0 130.6991 141.8007
  L 130.6810 145.2406
  A 0.30 0.30 0.0 0 0 130.9795 145.5422
  L 137.7794 145.5778
  A 0.30 0.30 0.0 0 0 138.0809 145.2793
  L 138.0990 141.8394
  Z
  M 122.79 148.11
  L 123.11 147.59
  A 0.68 0.68 0.0 0 0 122.53 146.56
  Q 108.47 146.45 94.34 146.55
  Q 93.39 146.56 93.21 147.30
  Q 93.08 147.84 93.63 147.89
  Q 97.15 148.18 100.68 147.85
  Q 101.01 147.82 101.31 147.93
  Q 101.64 148.05 102.03 148.14
  Q 103.14 148.40 102.00 148.39
  L 89.29 148.29
  A 1.18 1.18 0.0 0 1 88.43 147.92
  C 86.26 145.66 81.38 146.51 78.45 146.49
  Q 77.84 146.49 77.86 147.10
  L 78.09 158.59
  A 0.46 0.46 0.0 0 0 78.63 159.03
  Q 78.80 158.99 78.96 158.96
  Q 79.28 158.91 79.25 158.58
  L 79.05 156.61
  A 0.59 0.59 0.0 0 1 79.65 155.96
  L 83.05 155.99
  Q 83.98 156.00 83.31 156.64
  L 80.75 159.11
  A 0.70 0.70 0.0 0 0 80.88 160.22
  L 84.60 162.40
  Q 84.94 162.60 85.32 162.55
  L 89.87 162.00
  Q 91.08 161.86 90.33 162.82
  L 89.16 164.30
  A 0.53 0.53 0.0 0 0 89.31 165.08
  C 92.07 166.75 94.68 168.75 97.99 168.80
  Q 98.44 168.81 98.34 169.25
  Q 98.30 169.40 98.25 169.55
  Q 98.06 170.11 98.58 170.41
  L 107.66 175.68
  Q 108.10 175.93 108.54 175.67
  L 116.20 171.18
  Q 116.74 170.86 116.68 170.24
  L 116.63 169.59
  Q 116.58 169.02 117.16 169.01
  Q 121.70 168.94 125.11 165.80
  Q 125.47 165.47 125.00 165.31
  Q 123.26 164.73 124.36 162.54
  Q 124.58 162.10 125.07 162.10
  L 126.56 162.10
  A 0.58 0.58 0.0 0 1 127.14 162.68
  L 127.14 163.98
  A 0.50 0.50 0.0 0 0 127.88 164.42
  L 137.62 158.97
  A 0.92 0.91 75.6 0 0 138.09 158.17
  L 137.96 147.29
  Q 137.95 146.50 137.16 146.50
  L 129.28 146.55
  A 0.62 0.62 0.0 0 0 129.24 147.79
  L 133.00 148.07
  Q 133.13 148.08 133.13 148.12
  L 133.13 148.39
  Q 133.13 148.40 133.11 148.40
  L 122.87 148.25
  Q 122.71 148.25 122.79 148.11
  Z
  M 176.98 155.41
  Q 177.64 152.87 180.40 152.77
  Q 180.97 152.75 181.20 152.24
  L 182.61 149.04
  A 0.56 0.56 0.0 0 0 182.26 148.28
  C 176.39 146.50 169.66 155.58 173.97 160.16
  C 177.60 164.03 181.48 160.08 184.14 157.55
  A 0.82 0.82 0.0 0 1 185.50 157.95
  C 185.77 159.01 184.72 159.85 183.71 160.24
  Q 181.18 161.22 181.30 164.41
  Q 181.32 164.88 181.79 164.87
  C 189.55 164.74 193.55 153.33 184.64 151.94
  Q 184.10 151.85 183.66 152.17
  L 178.05 156.15
  A 0.69 0.69 0.0 0 1 176.98 155.41
  Z
  M 150.26 149.36
  Q 150.93 148.67 149.97 148.66
  L 139.29 148.63
  Q 138.70 148.63 138.70 149.21
  L 138.75 157.74
  A 0.56 0.56 0.0 0 0 139.62 158.20
  Q 145.41 154.34 150.26 149.36
  Z
  M 79.81 156.91
  Q 79.35 156.98 79.49 157.43
  L 79.66 157.97
  Q 79.96 158.90 80.67 158.23
  L 81.68 157.27
  Q 82.49 156.49 81.38 156.66
  L 79.81 156.91
  Z
  M 53.51 166.75
  Q 54.05 166.33 54.74 166.18
  Q 65.70 163.77 76.57 160.83
  Q 77.19 160.66 77.16 160.02
  L 77.09 158.40
  Q 77.05 157.71 76.40 157.94
  L 43.59 169.13
  A 0.33 0.33 0.0 0 0 43.72 169.78
  L 76.39 167.21
  Q 76.94 167.16 76.97 166.61
  L 77.16 162.76
  Q 77.19 162.07 76.52 162.22
  L 53.68 167.11
  Q 52.77 167.31 53.51 166.75
  Z
  M 155.55 162.87
  A 0.35 0.35 0.0 0 1 155.19 162.65
  L 154.22 160.28
  A 0.35 0.35 0.0 0 0 153.56 160.33
  L 152.97 162.83
  A 0.35 0.35 0.0 0 1 152.66 163.10
  L 150.10 163.29
  A 0.35 0.35 0.0 0 0 149.94 163.93
  L 152.14 165.26
  A 0.35 0.35 0.0 0 1 152.29 165.65
  L 151.68 168.14
  A 0.35 0.35 0.0 0 0 152.25 168.48
  L 154.19 166.81
  A 0.35 0.35 0.0 0 1 154.61 166.78
  L 156.79 168.13
  A 0.35 0.35 0.0 0 0 157.29 167.70
  L 156.30 165.33
  A 0.35 0.35 0.0 0 1 156.40 164.93
  L 158.36 163.27
  A 0.35 0.35 0.0 0 0 158.10 162.66
  L 155.55 162.87
  Z
  M 88.7000 163.4184
  A 0.93 0.60 -0.1 0 0 87.7690 162.8200
  A 0.93 0.60 -0.1 0 0 86.8400 163.4216
  A 0.93 0.60 -0.1 0 0 87.7710 164.0200
  A 0.93 0.60 -0.1 0 0 88.7000 163.4184
  Z
  M 77.64 168.41
  A 0.36 0.36 0.0 0 0 77.85 168.72
  Q 87.91 173.43 98.93 174.83
  Q 99.75 174.93 99.10 174.41
  Q 92.50 169.15 89.33 168.14
  Q 83.58 166.31 78.02 163.70
  Q 77.36 163.39 77.40 164.12
  L 77.64 168.41
  Z
  M 69.09 171.73
  Q 69.55 175.18 72.87 175.77
  A 1.10 1.09 -58.3 0 0 73.74 175.56
  Q 77.15 173.02 77.05 168.72
  Q 77.04 168.18 76.50 168.22
  L 40.71 170.93
  A 0.66 0.66 0.0 0 0 40.55 172.22
  L 46.72 174.20
  A 0.75 0.75 0.0 0 0 47.43 174.07
  L 48.04 173.59
  A 0.65 0.64 60.2 0 1 49.04 173.87
  Q 49.58 175.26 51.08 175.50
  Q 51.69 175.60 52.11 175.15
  L 53.88 173.24
  Q 54.24 172.85 54.46 173.33
  Q 55.32 175.26 57.35 175.70
  Q 57.82 175.80 58.22 175.52
  Q 59.44 174.66 59.72 173.28
  Q 59.89 172.46 60.26 173.21
  L 61.62 175.98
  A 0.88 0.84 0.7 0 0 62.02 176.37
  C 65.94 178.23 67.49 174.73 68.54 171.67
  A 0.29 0.28 50.9 0 1 69.09 171.73
  Z
  M 82.26 175.39
  A 0.34 0.34 0.0 0 1 81.87 175.25
  L 80.38 172.98
  A 0.34 0.34 0.0 0 0 79.76 173.16
  L 79.75 175.88
  A 0.34 0.34 0.0 0 1 79.50 176.20
  L 76.87 176.92
  A 0.34 0.34 0.0 0 0 76.86 177.57
  L 79.44 178.42
  A 0.34 0.34 0.0 0 1 79.67 178.76
  L 79.54 181.47
  A 0.34 0.34 0.0 0 0 80.15 181.69
  L 81.76 179.50
  A 0.34 0.34 0.0 0 1 82.15 179.38
  L 84.69 180.34
  A 0.34 0.34 0.0 0 0 85.09 179.83
  L 83.50 177.62
  A 0.34 0.34 0.0 0 1 83.51 177.21
  L 85.21 175.09
  A 0.34 0.34 0.0 0 0 84.84 174.56
  L 82.26 175.39
  Z
  M 133.73 176.21
  A 0.35 0.35 0.0 0 1 133.48 175.89
  L 133.37 173.35
  A 0.35 0.35 0.0 0 0 132.73 173.17
  L 131.33 175.30
  A 0.35 0.35 0.0 0 1 130.94 175.44
  L 128.49 174.75
  A 0.35 0.35 0.0 0 0 128.12 175.31
  L 129.71 177.30
  A 0.35 0.35 0.0 0 1 129.73 177.71
  L 128.32 179.83
  A 0.35 0.35 0.0 0 0 128.74 180.35
  L 131.12 179.46
  A 0.35 0.35 0.0 0 1 131.52 179.57
  L 133.10 181.56
  A 0.35 0.35 0.0 0 0 133.72 181.33
  L 133.60 178.79
  A 0.35 0.35 0.0 0 1 133.83 178.44
  L 136.22 177.55
  A 0.35 0.35 0.0 0 0 136.19 176.89
  L 133.73 176.21
  Z
  M 108.73 181.29
  A 0.35 0.35 0.0 0 1 108.60 180.90
  L 109.38 178.47
  A 0.35 0.35 0.0 0 0 108.84 178.08
  L 106.79 179.60
  A 0.35 0.35 0.0 0 1 106.38 179.60
  L 104.31 178.11
  A 0.35 0.35 0.0 0 0 103.77 178.50
  L 104.58 180.92
  A 0.35 0.35 0.0 0 1 104.46 181.32
  L 102.40 182.83
  A 0.35 0.35 0.0 0 0 102.61 183.46
  L 105.16 183.43
  A 0.35 0.35 0.0 0 1 105.50 183.67
  L 106.30 186.10
  A 0.35 0.35 0.0 0 0 106.96 186.09
  L 107.73 183.66
  A 0.35 0.35 0.0 0 1 108.06 183.41
  L 110.61 183.40
  A 0.35 0.35 0.0 0 0 110.81 182.77
  L 108.73 181.29
  Z"
/>
<path fill="#3737c8" d="
  M 129.37 15.06
  A 0.27 0.27 0.0 0 1 129.69 14.85
  L 129.87 14.89
  A 4.00 3.69 -77.4 0 1 132.59 19.60
  L 132.41 20.44
  A 4.00 3.69 -77.4 0 1 127.93 23.54
  L 127.76 23.50
  A 0.27 0.27 0.0 0 1 127.55 23.18
  L 129.37 15.06
  Z"
/>
<path fill="#3737c8" d="
  M 151.29 29.13
  L 153.54 26.76
  A 0.31 0.31 0.0 0 1 154.07 27.05
  L 153.24 30.22
  A 0.31 0.31 0.0 0 1 152.79 30.41
  L 151.36 29.62
  A 0.31 0.31 0.0 0 1 151.29 29.13
  Z"
/>
<rect fill="#3737c8" x="-1.53" y="-2.05" transform="translate(185.76,55.88) rotate(-33.0)" width="3.06" height="4.10" rx="1.10"/>
<path fill="#3737c8" d="
  M 26.30 69.51
  C 27.02 67.02 25.98 65.22 23.34 65.03
  A 0.41 0.41 0.0 0 1 22.99 64.46
  L 23.40 63.51
  Q 23.64 62.95 24.24 63.03
  Q 29.87 63.80 27.99 69.15
  Q 27.62 70.18 26.70 70.09
  Q 26.15 70.03 26.30 69.51
  Z"
/>
<path fill="#3737c8" d="
  M 189.88 72.92
  L 189.53 72.03
  Q 189.28 71.38 189.97 71.29
  L 192.88 70.90
  Q 193.78 70.78 193.07 71.34
  L 190.79 73.16
  A 0.58 0.58 0.0 0 1 189.88 72.92
  Z"
/>
<path fill="#3737c8" d="
  M 13.61 78.17
  Q 13.58 81.07 10.71 81.38
  Q 10.16 81.44 10.08 80.89
  Q 9.40 76.39 13.75 76.27
  Q 14.27 76.25 14.20 76.77
  Q 14.13 77.31 13.75 77.77
  A 0.67 0.63 -27.4 0 0 13.61 78.17
  Z"
/>
<rect fill="#3737c8" x="106.97" y="77.05" width="1.04" height="10.16" rx="0.26"/>
<rect fill="#3737c8" x="-0.59" y="-5.05" transform="translate(109.60,82.07) rotate(-0.5)" width="1.18" height="10.10" rx="0.35"/>
<path fill="#3737c8" d="
  M 112.35 84.89
  Q 112.44 84.99 112.55 85.08
  Q 112.58 85.11 112.57 85.15
  Q 112.26 85.88 111.64 86.35
  A 0.39 0.39 0.0 0 1 111.01 86.03
  L 111.20 77.84
  Q 111.21 77.27 111.65 77.63
  L 112.02 77.93
  Q 112.48 78.31 112.38 78.90
  Q 111.88 81.79 112.25 84.69
  Q 112.26 84.81 112.35 84.89
  Z"
/>
<rect fill="#3737c8" x="-0.50" y="-4.28" transform="translate(105.50,82.10) rotate(0.2)" width="1.00" height="8.56" rx="0.27"/>
<path fill="#3737c8" d="
  M 112.86 83.72
  L 113.18 80.36
  Q 113.25 79.66 113.54 80.29
  Q 114.42 82.21 113.37 83.89
  Q 112.76 84.87 112.86 83.72
  Z"
/>
<path fill="#3737c8" d="
  M 106.19 89.41
  Q 108.62 90.16 110.78 89.22
  Q 111.45 88.93 111.18 89.61
  Q 110.99 90.06 111.24 90.46
  A 0.24 0.24 0.0 0 0 111.68 90.28
  L 111.39 88.98
  A 0.61 0.61 0.0 0 1 111.67 88.32
  Q 115.57 85.91 115.40 81.28
  Q 115.37 80.72 115.92 80.87
  C 134.64 86.03 142.67 105.70 134.12 122.67
  A 0.84 0.84 0.0 0 1 133.00 123.04
  L 123.61 118.31
  A 0.46 0.46 0.0 0 1 123.42 117.68
  C 128.24 109.02 125.45 97.52 116.21 93.17
  C 100.53 85.79 85.19 102.69 93.70 117.61
  Q 93.96 118.07 93.49 118.31
  L 83.76 123.24
  A 0.42 0.41 62.8 0 1 83.21 123.06
  C 74.19 105.98 82.46 85.62 101.61 80.73
  Q 102.05 80.61 102.02 81.06
  Q 101.76 85.71 105.64 88.15
  A 0.83 0.81 15.2 0 1 106.02 88.80
  L 106.05 89.22
  Q 106.05 89.37 106.19 89.41
  Z
  M 89.44 94.81
  Q 90.33 93.41 92.20 91.96
  Q 93.03 91.32 92.02 90.34
  A 0.69 0.69 0.0 0 0 91.06 90.34
  L 87.59 93.61
  A 1.14 1.13 -64.7 0 1 86.74 93.92
  L 85.28 93.84
  A 0.49 0.48 81.6 0 0 84.80 94.49
  L 85.29 95.84
  Q 85.48 96.35 85.19 96.81
  Q 80.39 104.44 83.73 112.85
  Q 83.93 113.36 83.56 113.75
  L 82.74 114.58
  A 0.57 0.57 0.0 0 0 83.11 115.54
  L 84.62 115.63
  A 0.73 0.71 -13.0 0 1 85.18 115.97
  L 87.10 119.00
  A 0.71 0.71 0.0 0 0 88.06 119.23
  L 88.99 118.67
  Q 89.57 118.32 89.18 117.77
  L 87.31 115.09
  Q 87.00 114.65 87.28 114.18
  L 87.65 113.58
  A 0.52 0.51 21.9 0 0 87.32 112.82
  L 86.12 112.56
  Q 85.70 112.47 85.54 112.07
  Q 82.28 104.27 87.01 97.58
  Q 87.40 97.03 88.07 97.07
  L 89.01 97.13
  A 0.51 0.51 0.0 0 0 89.53 96.48
  L 89.31 95.74
  Q 89.17 95.25 89.44 94.81
  Z
  M 133.51 112.50
  Q 136.60 104.15 131.81 96.61
  Q 131.52 96.16 131.76 95.68
  L 132.33 94.52
  A 0.54 0.53 8.4 0 0 131.76 93.76
  L 130.34 93.97
  A 0.72 0.72 0.0 0 1 129.73 93.79
  L 126.10 90.45
  A 0.91 0.91 0.0 0 0 124.85 91.77
  L 127.84 94.67
  Q 128.20 95.03 128.02 95.50
  L 127.64 96.45
  A 0.52 0.52 0.0 0 0 128.22 97.15
  L 129.09 96.99
  A 0.79 0.79 0.0 0 1 129.88 97.29
  Q 134.99 104.14 131.57 112.08
  A 0.87 0.87 0.0 0 1 130.94 112.59
  L 129.91 112.80
  A 0.60 0.59 -17.4 0 0 129.48 113.61
  L 129.74 114.26
  Q 129.95 114.74 129.66 115.18
  L 128.09 117.60
  A 1.22 1.15 79.9 0 0 129.99 119.01
  Q 130.95 117.55 131.79 116.11
  A 1.06 1.05 13.2 0 1 132.62 115.60
  L 134.11 115.49
  Q 134.79 115.44 134.45 114.85
  L 133.60 113.41
  Q 133.34 112.97 133.51 112.50
  Z"
/>
<ellipse fill="#3737c8" cx="0.00" cy="0.00" transform="translate(103.66,81.89) rotate(91.0)" rx="1.57" ry="0.37"/>
<path fill="#3737c8" d="
  M 112.99 96.98
  Q 112.56 97.52 112.44 97.89
  A 0.40 0.40 0.0 0 0 112.94 98.39
  L 114.66 97.82
  Q 115.57 97.52 115.31 98.44
  L 115.03 99.44
  Q 114.89 99.95 115.41 99.84
  Q 116.58 99.58 116.12 98.49
  Q 115.28 96.50 112.99 96.98
  Q 113.05 96.66 113.40 96.35
  Q 113.77 96.01 114.25 96.17
  C 116.49 96.96 119.17 100.03 116.21 101.87
  Q 115.93 102.04 115.69 101.82
  Q 115.58 101.71 115.46 101.62
  A 0.14 0.13 16.2 0 0 115.24 101.74
  L 115.66 105.44
  A 1.32 1.27 -32.6 0 1 115.46 106.28
  Q 113.97 108.59 113.88 111.75
  Q 113.87 112.34 113.27 112.63
  Q 113.04 112.74 113.05 112.48
  L 113.14 109.01
  A 0.48 0.48 0.0 0 0 112.20 108.85
  L 111.82 110.02
  A 0.36 0.36 0.0 0 1 111.12 109.92
  L 111.10 108.81
  A 0.45 0.45 0.0 0 0 110.22 108.67
  Q 109.76 110.01 108.35 110.17
  Q 107.91 110.22 107.71 109.82
  L 107.37 109.13
  A 0.65 0.65 0.0 0 0 106.59 108.80
  Q 105.56 109.14 104.94 108.33
  A 0.50 0.50 0.0 0 0 104.12 108.37
  C 103.24 109.80 104.21 111.68 103.81 112.30
  Q 103.55 112.70 103.49 112.23
  L 103.10 109.18
  A 1.85 1.81 20.6 0 0 102.62 108.15
  Q 100.78 106.18 101.38 103.67
  Q 101.53 103.03 101.09 102.55
  L 99.74 101.06
  A 0.80 0.77 -63.8 0 1 99.55 100.47
  Q 99.81 98.07 101.50 96.81
  Q 102.27 96.23 103.04 96.71
  Q 103.76 97.14 102.94 97.01
  Q 102.65 96.96 102.38 96.80
  Q 102.13 96.66 101.93 96.88
  Q 100.70 98.23 100.94 100.01
  A 0.44 0.44 0.0 0 0 101.80 100.03
  L 102.13 98.29
  A 0.35 0.35 0.0 0 1 102.77 98.17
  L 103.29 98.96
  A 0.51 0.51 0.0 0 0 104.20 98.54
  L 104.04 97.98
  Q 103.90 97.51 104.28 97.21
  Q 105.42 96.33 106.26 97.35
  Q 106.62 97.79 106.69 97.22
  L 106.76 96.64
  Q 106.83 96.13 106.32 95.99
  Q 106.16 95.95 105.98 95.98
  A 0.65 0.59 -56.8 0 1 105.79 94.76
  Q 110.97 93.09 111.54 96.44
  Q 111.68 97.30 112.99 96.98
  Z
  M 108.48 94.93
  Q 107.70 94.60 107.42 95.03
  A 1.07 1.07 0.0 0 0 109.04 96.41
  Q 109.38 96.10 109.09 95.50
  Q 108.91 95.11 108.48 94.93
  Z
  M 104.0898 102.2867
  A 0.65 0.57 64.5 0 0 104.3245 101.4546
  A 0.65 0.57 64.5 0 0 103.5302 101.1133
  A 0.65 0.57 64.5 0 0 103.2955 101.9454
  A 0.65 0.57 64.5 0 0 104.0898 102.2867
  Z"
/>
<path fill="#3737c8" d="
  M 112.33 114.67
  L 113.76 115.96
  A 0.29 0.29 0.0 0 0 114.25 115.78
  Q 114.36 114.84 113.30 114.90
  A 0.39 0.39 0.0 0 1 113.03 114.22
  L 113.24 114.04
  Q 113.37 113.94 113.51 114.02
  Q 115.58 115.25 116.60 117.35
  C 117.93 120.08 115.59 123.33 112.76 123.43
  Q 108.28 123.60 103.78 123.41
  Q 103.27 123.39 103.08 122.90
  Q 102.74 122.00 101.73 122.00
  A 0.76 0.76 0.0 0 1 100.99 121.40
  Q 100.04 116.82 103.61 113.86
  Q 103.86 113.65 103.97 113.95
  L 104.11 114.35
  A 0.49 0.49 0.0 0 0 105.05 114.23
  L 105.46 110.32
  A 0.18 0.18 0.0 0 1 105.81 110.29
  Q 106.36 111.97 105.75 113.64
  A 0.39 0.39 0.0 0 0 106.23 114.14
  L 106.65 114.00
  A 0.42 0.42 0.0 0 0 106.93 113.67
  L 107.50 110.53
  A 0.19 0.18 -71.2 0 1 107.76 110.40
  Q 107.88 110.45 108.01 110.51
  Q 108.20 110.59 108.14 110.79
  Q 107.48 113.26 107.87 115.79
  A 0.59 0.59 0.0 0 0 109.04 115.72
  L 109.17 111.48
  A 0.42 0.42 0.0 0 1 110.00 111.40
  L 110.45 113.51
  A 0.28 0.28 0.0 0 0 111.01 113.46
  L 111.08 112.01
  A 0.39 0.39 0.0 0 1 111.86 112.02
  L 111.91 113.76
  Q 111.93 114.30 112.33 114.67
  Z
  M 102.02 118.62
  Q 101.88 118.64 101.74 118.64
  A 0.39 0.39 0.0 0 0 101.37 119.10
  Q 101.96 122.19 105.00 122.06
  A 0.57 0.57 0.0 0 0 105.37 121.08
  Q 104.52 120.26 105.10 119.27
  Q 105.36 118.82 105.87 118.94
  Q 107.12 119.25 107.51 118.03
  Q 107.61 117.73 107.32 117.60
  Q 105.67 116.89 103.85 116.78
  Q 103.10 116.74 102.73 117.08
  Q 102.26 117.52 102.32 118.25
  Q 102.34 118.58 102.02 118.62
  Z
  M 110.77 121.69
  Q 110.96 121.83 111.17 121.87
  Q 111.49 121.95 111.87 121.65
  Q 112.07 121.49 112.24 121.30
  Q 112.60 120.90 113.15 120.92
  Q 115.29 121.02 116.56 119.20
  A 0.69 0.68 36.5 0 0 116.42 118.27
  Q 114.76 116.96 112.62 117.10
  A 0.61 0.61 0.0 0 0 112.12 117.98
  L 113.12 119.89
  A 0.41 0.40 -84.6 0 1 112.51 120.40
  L 111.92 119.93
  Q 111.47 119.57 111.21 120.08
  L 110.78 120.89
  Q 110.59 121.26 110.17 121.19
  C 108.72 120.95 107.47 119.29 106.89 119.24
  Q 106.28 119.20 106.56 119.74
  C 107.27 121.14 108.20 122.93 110.16 121.66
  Q 110.48 121.46 110.77 121.69
  Z
  M 110.25 118.71
  A 0.19 0.19 0.0 0 0 110.60 118.75
  L 111.18 117.67
  Q 111.61 116.87 110.73 117.11
  L 110.40 117.21
  Q 109.91 117.35 110.03 117.84
  L 110.25 118.71
  Z"
/>
<path fill="#3737c8" d="
  M 126.60 124.59
  Q 125.09 125.43 123.75 126.51
  Q 122.72 127.33 123.01 128.38
  Q 123.14 128.85 123.07 129.34
  L 122.57 132.78
  A 0.42 0.42 0.0 0 1 121.82 132.97
  Q 120.82 131.61 121.72 130.93
  Q 122.13 129.63 122.24 128.26
  Q 122.29 127.69 121.76 127.92
  Q 121.51 128.03 121.32 128.25
  C 120.87 128.74 120.55 130.65 120.00 131.54
  Q 119.79 131.88 120.15 132.04
  Q 120.42 132.16 120.53 132.18
  A 0.49 0.43 -47.0 0 1 120.50 133.08
  Q 119.09 133.50 118.70 131.94
  Q 118.58 131.44 118.94 131.07
  Q 119.63 130.38 119.96 129.43
  Q 120.26 128.56 119.44 128.99
  L 117.45 130.04
  A 0.85 0.83 74.6 0 0 117.01 130.83
  L 117.28 134.60
  A 0.33 0.33 0.0 0 1 116.62 134.65
  L 116.54 133.49
  Q 116.49 132.82 115.87 133.10
  Q 115.16 133.43 115.38 134.28
  A 0.98 0.98 0.0 0 1 115.01 135.31
  Q 113.26 136.62 112.21 134.49
  A 0.28 0.28 0.0 0 1 112.65 134.16
  L 113.36 134.83
  Q 113.93 135.37 114.39 134.73
  L 114.91 134.03
  A 0.55 0.55 0.0 0 0 114.82 133.29
  L 114.15 132.71
  A 0.36 0.36 0.0 0 1 114.44 132.08
  Q 115.91 132.32 116.19 130.99
  Q 116.32 130.37 115.69 130.48
  L 114.22 130.73
  Q 113.79 130.81 113.84 130.37
  Q 113.85 130.23 113.95 130.11
  Q 114.02 130.03 114.17 130.00
  Q 120.91 128.44 126.07 123.82
  Q 126.71 123.24 125.31 121.48
  A 0.19 0.18 -6.2 0 1 125.54 121.20
  L 127.65 122.22
  Q 127.88 122.33 127.88 122.58
  L 127.85 129.05
  Q 127.85 129.43 127.46 129.43
  Q 127.34 129.42 127.21 129.43
  Q 126.98 129.43 126.99 129.20
  L 127.07 127.28
  A 0.71 0.71 0.0 0 0 126.06 126.61
  Q 124.58 127.30 125.06 131.12
  A 0.27 0.27 0.0 0 1 124.54 131.25
  Q 122.87 126.99 126.74 125.51
  A 0.35 0.34 -17.5 0 0 126.95 125.11
  L 126.85 124.70
  A 0.17 0.17 0.0 0 0 126.60 124.59
  Z"
/>
<path fill="#3737c8" d="
  M 63.77 139.08
  L 63.80 128.99
  A 0.32 0.32 0.0 0 1 63.88 128.78
  L 69.42 122.37
  A 0.32 0.32 0.0 0 1 69.98 122.58
  L 70.00 135.17
  A 0.32 0.32 0.0 0 1 69.86 135.44
  L 64.28 139.35
  A 0.32 0.32 0.0 0 1 63.77 139.08
  Z"
/>
<path fill="#3737c8" d="
  M 97.86 131.12
  Q 98.87 130.99 98.89 130.37
  A 0.19 0.18 -77.7 0 0 98.79 130.20
  L 94.17 127.93
  A 0.47 0.47 0.0 0 0 93.49 128.34
  L 93.38 132.76
  A 0.11 0.11 0.0 0 1 93.22 132.85
  Q 93.10 132.79 92.98 132.73
  Q 92.81 132.65 92.83 132.46
  Q 93.19 129.42 90.12 128.59
  Q 89.23 128.36 89.51 129.23
  Q 89.93 130.58 91.02 131.50
  A 0.28 0.27 -15.3 0 1 90.75 131.97
  C 88.90 131.35 88.73 128.48 88.31 126.86
  Q 88.16 126.29 88.72 126.48
  L 89.52 126.76
  A 0.81 0.81 0.0 0 0 90.33 125.40
  L 87.83 123.12
  A 0.24 0.23 64.6 0 1 87.97 122.71
  Q 88.16 122.71 88.34 122.70
  Q 88.43 122.69 88.50 122.75
  Q 95.53 129.21 104.96 130.82
  A 0.58 0.58 0.0 0 0 105.48 129.84
  Q 104.94 129.29 104.66 128.60
  A 0.31 0.31 0.0 0 1 105.21 128.32
  L 106.68 130.65
  Q 106.86 130.94 107.21 130.93
  L 111.53 130.84
  A 0.27 0.26 -69.8 0 1 111.73 131.28
  L 111.29 131.78
  Q 111.01 132.11 111.02 132.54
  L 111.13 137.49
  A 0.23 0.23 0.0 0 1 110.67 137.55
  L 110.41 136.51
  A 0.52 0.52 0.0 0 0 109.76 136.13
  Q 108.53 136.50 107.99 135.51
  Q 106.97 133.68 108.84 132.40
  Q 109.09 132.24 109.26 132.29
  Q 109.40 132.33 109.46 132.49
  A 0.23 0.22 -37.3 0 1 109.43 132.68
  L 108.47 134.08
  Q 108.22 134.45 108.47 134.82
  Q 109.03 135.64 109.26 135.59
  A 2.07 1.71 -45.5 0 0 109.58 131.85
  Q 108.38 131.80 107.40 131.72
  Q 106.87 131.68 106.84 132.21
  L 106.49 137.25
  A 0.27 0.27 0.0 0 1 105.95 137.23
  L 106.00 135.36
  Q 106.02 134.68 105.35 134.84
  L 103.47 135.28
  A 0.47 0.46 -88.1 0 1 102.92 134.69
  L 103.63 132.32
  Q 103.78 131.84 103.33 131.62
  L 102.64 131.27
  Q 101.65 130.77 101.63 131.87
  L 101.52 136.53
  A 0.27 0.27 0.0 0 1 101.01 136.63
  L 100.60 135.73
  Q 100.37 135.23 99.82 135.19
  Q 96.93 135.00 97.12 131.75
  A 0.73 0.73 0.0 0 0 96.17 131.01
  Q 95.26 131.30 95.72 132.32
  Q 96.21 133.40 95.77 133.56
  Q 95.28 133.73 95.09 133.25
  Q 94.46 131.73 95.22 130.44
  A 0.83 0.83 0.0 0 1 96.49 130.25
  L 97.24 130.92
  Q 97.50 131.16 97.86 131.12
  Z
  M 92.6097 128.3606
  A 1.20 0.77 50.1 0 0 92.4307 126.9461
  A 1.20 0.77 50.1 0 0 91.0703 126.5194
  A 1.20 0.77 50.1 0 0 91.2493 127.9339
  A 1.20 0.77 50.1 0 0 92.6097 128.3606
  Z
  M 100.17 131.15
  Q 97.37 133.07 99.02 134.07
  A 1.03 1.03 0.0 0 0 100.55 133.44
  L 100.99 131.72
  Q 101.33 130.36 100.17 131.15
  Z
  M 104.73 131.92
  A 0.57 0.57 0.0 0 0 104.19 132.54
  Q 104.29 133.62 105.36 133.77
  A 0.57 0.56 -82.2 0 0 105.99 133.29
  L 106.11 132.52
  A 0.57 0.56 2.9 0 0 105.52 131.88
  L 104.73 131.92
  Z"
/>
<path fill="#3737c8" d="
  M 192.95 129.14
  L 193.15 128.26
  Q 193.34 127.40 194.08 127.88
  L 196.46 129.44
  Q 197.21 129.93 196.32 129.95
  L 193.65 129.99
  Q 192.76 130.01 192.95 129.14
  Z"
/>
<ellipse fill="#3737c8" cx="0.00" cy="0.00" transform="translate(19.36,131.61) rotate(89.0)" rx="1.60" ry="0.64"/>
<path fill="#3737c8" d="
  M 83.74 147.87
  Q 84.43 147.79 85.09 148.11
  Q 85.66 148.38 85.03 148.38
  Q 81.92 148.35 78.91 148.06
  Q 78.88 148.06 78.88 148.08
  Q 78.87 148.17 78.88 148.12
  Q 81.32 148.18 83.74 147.87
  Z"
/>
<path fill="#3737c8" d="
  M 111.88 148.12
  C 110.25 148.40 108.72 148.46 107.06 148.32
  Q 106.68 148.29 106.95 148.03
  Q 107.12 147.86 107.37 147.85
  Q 109.64 147.78 111.89 148.12
  A 0.01 0.00 47.4 0 1 111.89 148.13
  Q 111.89 148.13 111.89 148.13
  Q 111.89 148.12 111.88 148.12
  Z"
/>
<path fill="#3737c8" d="
  M 115.88 147.87
  Q 118.03 147.87 115.98 148.22
  Q 114.91 148.41 113.35 148.23
  A 0.18 0.18 0.0 0 1 113.37 147.87
  L 115.88 147.87
  Z"
/>
<path fill="#3737c8" d="
  M 135.04 149.18
  Q 134.69 149.75 133.92 149.79
  A 0.28 0.27 25.6 0 1 133.74 149.29
  Q 134.63 148.67 135.95 149.04
  A 0.94 0.94 0.0 0 1 136.37 150.60
  L 133.16 153.91
  Q 132.68 154.40 132.58 153.72
  Q 132.24 151.42 132.94 149.23
  A 0.35 0.35 0.0 0 1 133.42 149.02
  Q 134.07 149.33 133.13 151.30
  A 0.58 0.58 0.0 0 0 134.12 151.88
  L 135.68 149.70
  A 0.22 0.22 0.0 0 0 135.63 149.39
  L 135.29 149.14
  Q 135.14 149.02 135.04 149.18
  Z"
/>
<path fill="#3737c8" d="
  M 102.64 152.22
  L 104.98 149.68
  Q 105.38 149.25 105.67 149.76
  Q 105.79 149.97 105.63 150.16
  Q 103.96 152.14 102.06 153.92
  Q 101.61 154.34 101.50 153.73
  Q 101.10 151.40 101.84 149.16
  A 0.25 0.25 0.0 0 1 102.25 149.05
  L 102.48 149.26
  Q 102.60 149.37 102.56 149.52
  L 101.95 151.85
  A 0.40 0.40 0.0 0 0 102.64 152.22
  Z"
/>
<path fill="#3737c8" d="
  M 118.36 152.16
  L 120.67 149.38
  Q 121.06 148.90 121.13 149.51
  L 121.19 150.09
  A 0.33 0.32 64.7 0 1 121.10 150.36
  L 117.48 153.98
  Q 116.95 154.50 116.96 153.76
  L 117.00 150.30
  Q 117.01 149.87 117.39 149.67
  L 118.20 149.25
  A 0.32 0.32 0.0 0 1 118.54 149.80
  Q 117.51 150.54 117.63 151.94
  A 0.41 0.41 0.0 0 0 118.36 152.16
  Z"
/>
<path fill="#3737c8" d="
  M 89.27 149.64
  L 89.79 149.41
  A 0.45 0.45 0.0 0 1 90.29 150.14
  L 87.05 153.46
  Q 86.30 154.24 85.96 153.21
  Q 85.13 150.65 87.05 149.32
  A 0.37 0.37 0.0 0 1 87.50 149.91
  Q 86.46 150.73 86.59 152.06
  Q 86.65 152.65 87.14 152.32
  Q 88.63 151.34 88.46 149.64
  A 0.23 0.22 73.0 0 1 88.57 149.43
  Q 88.91 149.25 89.00 149.52
  Q 89.06 149.74 89.27 149.64
  Z"
/>
<rect fill="#3737c8" x="-1.45" y="-1.54" transform="translate(110.79,151.04) rotate(-0.4)" width="2.90" height="3.08" rx="0.45"/>
<rect fill="#3737c8" x="-1.51" y="-1.48" transform="translate(80.48,151.10) rotate(0.4)" width="3.02" height="2.96" rx="0.53"/>
<rect fill="#3737c8" x="-1.50" y="-1.51" transform="translate(95.60,151.08) rotate(1.4)" width="3.00" height="3.02" rx="0.54"/>
<rect fill="#3737c8" x="-1.56" y="-1.51" transform="translate(125.62,151.04) rotate(0.3)" width="3.12" height="3.02" rx="0.61"/>
<path fill="#3737c8" d="
  M 55.83 158.32
  Q 54.61 154.05 58.25 152.32
  Q 58.78 152.07 58.78 152.65
  L 58.80 156.60
  Q 58.81 157.16 58.34 157.47
  L 56.63 158.62
  Q 56.03 159.02 55.83 158.32
  Z"
/>
<rect fill="#3737c8" x="-1.56" y="-1.56" transform="translate(87.44,157.59) rotate(-0.6)" width="3.12" height="3.12" rx="0.50"/>
<path fill="#3737c8" d="
  M 94.09 160.21
  L 94.00 156.31
  A 0.34 0.34 0.0 0 1 94.35 155.96
  L 98.25 156.00
  A 0.34 0.34 0.0 0 1 98.49 156.58
  L 94.68 160.44
  A 0.34 0.34 0.0 0 1 94.09 160.21
  Z
  M 95.73 156.66
  Q 94.28 156.87 94.78 158.31
  Q 95.01 158.99 95.58 158.53
  L 96.30 157.95
  A 0.73 0.73 0.0 0 0 95.73 156.66
  Z"
/>
<rect fill="#3737c8" x="-1.52" y="-1.56" transform="translate(102.97,157.57) rotate(-0.9)" width="3.04" height="3.12" rx="0.38"/>
<path fill="#3737c8" d="
  M 109.24 160.25
  L 109.13 156.51
  A 0.40 0.40 0.0 0 1 109.51 156.09
  L 113.26 155.99
  A 0.40 0.40 0.0 0 1 113.56 156.66
  L 109.93 160.51
  A 0.40 0.40 0.0 0 1 109.24 160.25
  Z
  M 111.69 157.74
  Q 112.32 157.01 111.40 156.75
  Q 109.79 156.30 109.77 158.12
  A 0.68 0.68 0.0 0 0 110.96 158.57
  L 111.69 157.74
  Z"
/>
<rect fill="#3737c8" x="-1.51" y="-1.55" transform="translate(118.50,157.57) rotate(-0.5)" width="3.02" height="3.10" rx="0.53"/>
<path fill="#3737c8" d="
  M 124.04 160.39
  L 123.97 156.40
  A 0.35 0.35 0.0 0 1 124.31 156.04
  L 128.31 156.01
  A 0.35 0.35 0.0 0 1 128.56 156.61
  L 124.64 160.63
  A 0.35 0.35 0.0 0 1 124.04 160.39
  Z
  M 126.75 157.48
  Q 127.35 156.86 126.49 156.79
  L 125.21 156.69
  A 0.52 0.52 0.0 0 0 124.66 157.29
  L 124.80 158.18
  A 0.57 0.56 62.7 0 0 125.76 158.49
  L 126.75 157.48
  Z"
/>
<rect fill="#3737c8" x="-1.50" y="-1.53" transform="translate(134.03,157.54) rotate(-2.3)" width="3.00" height="3.06" rx="0.49"/>
<path fill="#3737c8" d="
  M 52.44 161.29
  A 0.70 0.70 0.0 0 1 51.40 160.84
  Q 50.74 157.87 53.25 156.52
  Q 53.73 156.26 53.88 156.78
  Q 54.77 159.87 52.44 161.29
  Z"
/>
<ellipse fill="#3737c8" cx="0.00" cy="0.00" transform="translate(49.17,161.77) rotate(105.2)" rx="1.81" ry="0.81"/>
<path fill="#3737c8" d="
  M 101.16 166.23
  L 101.30 162.72
  A 0.50 0.50 0.0 0 1 101.78 162.24
  L 105.29 162.07
  A 0.50 0.50 0.0 0 1 105.66 162.93
  L 102.02 166.60
  A 0.50 0.50 0.0 0 1 101.16 166.23
  Z
  M 101.74 164.62
  A 0.48 0.48 0.0 0 0 102.57 165.01
  L 104.10 163.36
  Q 104.61 162.82 103.88 162.67
  Q 103.08 162.50 102.35 163.12
  Q 101.89 163.51 101.74 164.62
  Z"
/>
<path fill="#3737c8" d="
  M 116.81 166.47
  L 116.82 162.48
  A 0.35 0.35 0.0 0 1 117.17 162.13
  L 121.17 162.11
  A 0.35 0.35 0.0 0 1 121.42 162.70
  L 117.41 166.72
  A 0.35 0.35 0.0 0 1 116.81 166.47
  Z
  M 117.9675 164.5533
  A 1.04 0.79 120.8 0 0 119.1786 164.0645
  A 1.04 0.79 120.8 0 0 119.0325 162.7667
  A 1.04 0.79 120.8 0 0 117.8214 163.2555
  A 1.04 0.79 120.8 0 0 117.9675 164.5533
  Z"
/>
<rect fill="#3737c8" x="94.15" y="162.26" width="2.98" height="3.02" rx="0.47"/>
<rect fill="#3737c8" x="-1.46" y="-1.50" transform="translate(110.79,163.77) rotate(0.5)" width="2.92" height="3.00" rx="0.43"/>
<ellipse fill="#3737c8" cx="0.00" cy="0.00" transform="translate(46.22,164.29) rotate(122.9)" rx="0.82" ry="0.52"/>
<rect fill="#3737c8" x="-1.54" y="-1.53" transform="translate(103.13,170.30) rotate(-0.6)" width="3.08" height="3.06" rx="0.70"/>
<path fill="#3737c8" d="
  M 109.27 173.08
  L 109.21 169.29
  A 0.34 0.34 0.0 0 1 109.55 168.94
  L 113.35 168.93
  A 0.34 0.34 0.0 0 1 113.59 169.51
  L 109.85 173.32
  A 0.34 0.34 0.0 0 1 109.27 173.08
  Z
  M 111.87 170.40
  Q 112.30 169.92 111.70 169.69
  Q 110.31 169.14 109.82 170.44
  A 0.78 0.78 0.0 0 0 111.14 171.23
  L 111.87 170.40
  Z"
/>
</svg>
