<?xml version="1.0" encoding="UTF-8" standalone="no"?>
<!DOCTYPE svg PUBLIC "-//W3C//DTD SVG 1.1//EN" "http://www.w3.org/Graphics/SVG/1.1/DTD/svg11.dtd">
<svg xmlns="http://www.w3.org/2000/svg" version="1.1" viewBox="0.00 0.00 316.00 150.00">
<g stroke-width="2.00" fill="none" stroke-linecap="butt">
<path stroke="#7e2f51" vector-effect="non-scaling-stroke" d="
  M 139.59 9.03
  L 139.53 35.82
  A 1.03 1.02 -0.0 0 0 140.56 36.84
  L 156.26 36.78
  Q 156.69 36.78 157.04 37.05
  L 157.33 37.27"
/>
<path stroke="#8b8f40" vector-effect="non-scaling-stroke" d="
  M 157.25 61.04
  L 140.16 61.19
  A 0.58 0.57 90.0 0 0 139.59 61.77
  L 139.63 88.24
  A 0.51 0.51 0.0 0 0 140.13 88.75
  L 157.11 88.88"
/>
<path stroke="#1a69a6" vector-effect="non-scaling-stroke" d="
  M 157.07 115.35
  L 140.15 115.32
  Q 139.59 115.32 139.59 115.88
  L 139.58 143.04"
/>
</g>
<path fill="#1a3f7c" d="
  M 245.17 32.99
  C 244.87 29.56 239.46 28.34 236.76 29.74
  C 233.95 31.21 233.33 35.22 233.31 38.00
  Q 233.15 55.92 233.25 113.59
  C 233.26 117.48 233.66 122.91 238.75 123.17
  Q 244.05 123.45 245.06 118.26
  Q 246.11 112.81 245.62 97.58
  A 0.62 0.62 0.0 0 1 246.24 96.94
  L 279.77 96.94
  A 0.70 0.70 0.0 0 1 280.47 97.64
  C 280.42 103.42 279.99 110.55 279.49 115.17
  C 277.36 134.78 260.30 145.63 241.65 145.97
  C 224.65 146.27 204.85 140.93 200.77 121.75
  C 199.21 114.43 198.55 107.18 198.59 99.04
  Q 198.69 75.22 198.53 51.39
  Q 198.50 47.08 198.79 43.62
  Q 199.11 39.74 199.57 35.88
  Q 200.99 23.89 209.95 15.93
  C 223.04 4.30 247.67 4.03 262.70 11.54
  Q 276.56 18.46 279.15 33.39
  C 280.26 39.79 280.78 49.35 280.52 57.00
  Q 280.50 57.52 279.99 57.52
  L 246.25 57.51
  A 0.67 0.67 0.0 0 1 245.58 56.81
  Q 246.21 44.86 245.17 32.99
  Z"
/>
<path fill="#1a3f7c" d="
  M 66.73 59.67
  L 81.71 9.31
  A 0.44 0.44 0.0 0 1 82.13 9.00
  L 113.77 8.95
  A 0.44 0.44 0.0 0 1 114.19 9.53
  L 94.16 69.40
  A 0.44 0.44 0.0 0 0 94.16 69.66
  L 115.85 142.44
  A 0.44 0.44 0.0 0 1 115.43 143.01
  L 80.66 142.98
  A 0.44 0.44 0.0 0 1 80.23 142.64
  L 66.74 87.31
  A 0.44 0.44 0.0 0 0 65.87 87.41
  L 66.02 142.55
  A 0.44 0.44 0.0 0 1 65.58 142.99
  L 31.55 142.98
  A 0.44 0.44 0.0 0 1 31.11 142.54
  L 31.36 9.44
  A 0.44 0.44 0.0 0 1 31.80 9.00
  L 65.63 8.99
  A 0.44 0.44 0.0 0 1 66.07 9.43
  L 65.87 59.54
  A 0.44 0.44 0.0 0 0 66.73 59.67
  Z"
/>
<path fill="#1a3f7c" d="
  M 139.59 9.03
  L 139.53 35.82
  A 1.03 1.02 -0.0 0 0 140.56 36.84
  L 156.26 36.78
  Q 156.69 36.78 157.04 37.05
  L 157.33 37.27
  L 157.25 61.04
  L 140.16 61.19
  A 0.58 0.57 90.0 0 0 139.59 61.77
  L 139.63 88.24
  A 0.51 0.51 0.0 0 0 140.13 88.75
  L 157.11 88.88
  L 157.07 115.35
  L 140.15 115.32
  Q 139.59 115.32 139.59 115.88
  L 139.58 143.04
  L 123.16 142.94
  A 0.64 0.64 0.0 0 1 122.53 142.30
  L 122.53 9.70
  A 0.72 0.71 0.0 0 1 123.25 8.99
  L 139.59 9.03
  Z"
/>
<path fill="#e11e26" d="
  M 139.59 9.03
  L 189.51 9.02
  A 1.01 1.01 0.0 0 1 190.52 10.03
  L 190.45 35.73
  Q 190.45 36.85 189.33 36.84
  Q 174.12 36.76 158.29 36.77
  Q 157.98 36.77 157.75 36.90
  Q 157.42 37.09 157.33 37.27
  L 157.04 37.05
  Q 156.69 36.78 156.26 36.78
  L 140.56 36.84
  A 1.03 1.02 0.0 0 1 139.53 35.82
  L 139.59 9.03
  Z"
/>
<path fill="#fbde03" d="
  M 157.25 61.04
  L 188.64 60.98
  Q 190.67 60.98 190.66 63.01
  L 190.48 87.35
  A 1.52 1.52 0.0 0 1 188.96 88.86
  L 157.11 88.88
  L 140.13 88.75
  A 0.51 0.51 0.0 0 1 139.63 88.24
  L 139.59 61.77
  A 0.58 0.57 -90.0 0 1 140.16 61.19
  L 157.25 61.04
  Z"
/>
<path fill="#1992cf" d="
  M 157.07 115.35
  L 188.74 115.27
  A 1.45 1.45 0.0 0 1 190.19 116.73
  L 190.10 141.76
  A 1.29 1.29 0.0 0 1 188.81 143.05
  L 139.58 143.04
  L 139.59 115.88
  Q 139.59 115.32 140.15 115.32
  L 157.07 115.35
  Z"
/>
</svg>
