<?xml version="1.0" encoding="UTF-8" standalone="no"?>
<!DOCTYPE svg PUBLIC "-//W3C//DTD SVG 1.1//EN" "http://www.w3.org/Graphics/SVG/1.1/DTD/svg11.dtd">
<svg xmlns="http://www.w3.org/2000/svg" version="1.1" viewBox="0.00 0.00 280.00 245.00">
<path fill="#d3ac67" d="
  M 123.41 58.10
  C 130.36 64.33 135.62 72.94 134.52 82.25
  C 133.38 91.91 130.79 103.57 137.54 110.85
  Q 139.26 112.71 136.75 112.35
  C 125.95 110.83 122.16 102.45 122.70 92.40
  Q 122.79 90.75 124.02 85.23
  Q 127.69 68.83 113.06 59.48
  Q 112.68 59.24 112.95 58.88
  Q 120.01 49.61 116.59 37.94
  Q 115.84 35.40 110.26 28.01
  C 104.21 20.00 102.74 5.80 114.49 1.56
  Q 115.21 1.30 114.98 2.03
  C 110.61 16.11 122.92 23.94 125.89 36.41
  Q 128.28 46.43 123.11 56.43
  A 1.39 1.39 0.0 0 0 123.41 58.10
  Z"
/>
<path fill="#d3ac67" d="
  M 156.83 57.85
  A 0.98 0.97 54.9 0 0 157.03 56.66
  Q 152.00 47.53 153.83 37.63
  C 156.26 24.45 169.29 16.89 165.07 2.02
  Q 164.88 1.32 165.55 1.57
  C 177.37 6.03 175.66 19.44 169.79 27.82
  C 167.00 31.79 163.74 35.87 162.80 40.51
  Q 160.77 50.51 167.03 58.93
  Q 167.32 59.31 166.91 59.55
  C 158.20 64.75 153.42 73.89 155.87 83.96
  C 158.75 95.80 158.13 111.32 142.25 112.35
  A 0.47 0.46 19.8 0 1 141.88 111.57
  Q 147.79 105.27 146.95 96.23
  Q 146.29 89.12 145.65 81.99
  C 144.73 71.83 149.84 64.13 156.83 57.85
  Z"
/>
<path fill="#d3ac67" d="
  M 94.93 67.77
  C 101.88 71.82 107.54 74.35 111.68 81.56
  C 117.78 92.20 115.02 106.49 127.27 113.49
  Q 128.53 114.21 127.12 114.59
  Q 117.02 117.29 110.72 108.36
  Q 106.63 102.58 105.98 98.25
  C 105.29 93.69 105.05 88.76 102.89 84.85
  Q 97.45 75.05 85.97 72.70
  Q 85.41 72.58 85.62 72.05
  C 88.39 65.30 86.47 57.61 82.27 52.09
  Q 80.60 49.90 76.33 46.88
  C 67.53 40.63 55.16 28.43 67.27 17.81
  A 0.39 0.39 0.0 0 1 67.92 18.09
  C 68.29 32.61 83.27 36.68 90.16 47.28
  Q 95.76 55.90 94.51 66.92
  Q 94.44 67.48 94.93 67.77
  Z"
/>
<path fill="#d3ac67" d="
  M 195.12 56.33
  Q 191.60 64.17 194.23 72.16
  Q 194.38 72.62 193.91 72.72
  C 183.62 74.90 176.10 82.00 174.94 92.58
  C 173.72 103.57 166.93 118.82 152.79 114.64
  Q 151.29 114.19 152.66 113.45
  C 160.70 109.10 162.56 101.10 164.80 91.27
  C 167.83 77.96 174.17 73.61 185.14 67.76
  A 0.76 0.74 -18.4 0 0 185.53 67.00
  Q 184.15 55.78 189.93 47.11
  C 196.97 36.53 211.39 32.75 212.14 18.16
  A 0.46 0.46 0.0 0 1 212.92 17.85
  C 217.79 22.45 218.95 27.86 215.97 34.06
  C 211.02 44.35 199.30 47.04 195.12 56.33
  Z"
/>
<path fill="#d3ac67" d="
  M 74.60 82.59
  C 86.63 85.12 93.32 88.25 99.74 99.10
  C 104.59 107.29 108.00 115.21 118.01 117.95
  A 0.68 0.68 0.0 0 1 118.11 119.22
  C 105.41 124.97 96.35 115.61 91.56 104.81
  Q 89.37 99.88 87.80 97.98
  Q 80.28 88.86 67.62 89.25
  Q 67.17 89.26 67.16 88.81
  Q 66.93 77.86 58.92 71.21
  C 55.48 68.35 50.43 66.78 46.04 65.00
  C 37.27 61.44 27.06 51.59 34.42 42.06
  Q 34.73 41.66 34.92 42.12
  C 39.71 53.47 49.74 55.21 59.56 60.94
  C 67.83 65.77 72.19 72.57 73.87 81.84
  Q 73.99 82.46 74.60 82.59
  Z"
/>
<path fill="#d3ac67" d="
  M 206.16 81.81
  Q 208.34 69.59 217.67 62.63
  C 226.09 56.34 240.78 54.23 244.29 43.28
  Q 245.42 39.74 246.72 43.23
  C 252.17 57.85 237.25 63.64 227.44 67.68
  C 218.33 71.43 213.03 78.57 212.88 88.72
  Q 212.88 89.18 212.42 89.17
  C 202.35 88.97 193.68 93.50 189.42 102.67
  C 186.52 108.90 183.69 114.51 178.02 118.22
  C 172.76 121.67 166.95 122.05 161.57 118.86
  A 0.47 0.47 0.0 0 1 161.70 118.00
  C 170.97 115.84 175.39 108.16 180.37 98.84
  C 185.96 88.36 194.05 85.05 205.44 82.55
  A 0.93 0.92 -1.0 0 0 206.16 81.81
  Z"
/>
<path fill="#d3ac67" d="
  M 59.67 101.55
  Q 69.70 100.41 78.42 104.46
  C 90.79 110.20 94.93 124.92 110.41 125.30
  A 0.45 0.45 0.0 0 1 110.70 126.09
  Q 102.86 132.95 93.24 128.55
  C 87.68 126.01 84.32 121.97 80.30 117.35
  C 73.52 109.55 64.76 106.63 54.49 109.27
  Q 54.02 109.39 53.85 108.93
  Q 48.46 93.78 33.13 91.89
  Q 25.17 90.90 24.87 90.82
  C 16.20 88.55 6.42 82.41 9.91 71.71
  Q 10.14 70.99 10.57 71.61
  Q 15.01 78.01 21.72 79.97
  Q 25.70 81.14 38.47 84.09
  C 49.21 86.57 53.11 92.60 58.77 101.13
  A 0.94 0.94 0.0 0 0 59.67 101.55
  Z"
/>
<path fill="#d3ac67" d="
  M 221.43 100.99
  C 225.22 94.67 228.83 89.42 235.60 86.05
  C 246.93 80.42 261.64 83.34 269.28 71.78
  A 0.61 0.60 56.7 0 1 270.38 72.01
  C 272.94 85.99 258.82 91.23 247.63 92.11
  C 237.00 92.95 229.43 98.63 226.22 109.01
  Q 226.08 109.50 225.59 109.37
  Q 212.65 105.94 203.24 113.52
  C 200.19 115.98 196.53 121.53 193.40 124.30
  C 186.75 130.18 176.31 133.29 169.39 125.89
  Q 169.04 125.51 169.55 125.48
  C 187.64 124.33 191.46 104.49 209.76 101.88
  Q 215.14 101.11 220.57 101.44
  Q 221.14 101.47 221.43 100.99
  Z"
/>
<path fill="#d3ac67" d="
  M 0.00 116.15
  L 0.00 109.75
  L 0.27 109.35
  Q 0.53 108.96 0.94 109.19
  C 6.28 112.09 15.65 111.56 23.26 111.25
  Q 38.32 110.63 49.17 121.95
  A 2.08 2.06 -31.8 0 0 51.37 122.46
  Q 60.46 119.13 69.81 121.20
  C 82.44 124.00 91.63 136.31 105.61 133.07
  A 0.57 0.57 0.0 0 1 106.18 133.98
  C 99.20 142.82 87.11 140.94 79.09 135.39
  C 75.56 132.95 71.89 130.11 67.91 128.94
  Q 57.62 125.92 47.69 130.66
  Q 47.25 130.87 46.98 130.47
  Q 40.49 120.88 29.38 119.61
  C 24.73 119.07 18.36 120.38 12.78 120.21
  Q 5.44 119.99 0.00 116.15
  Z"
/>
<path fill="#d3ac67" d="
  M 280.00 109.59
  L 280.00 116.71
  Q 275.24 119.94 268.48 120.36
  C 262.68 120.71 256.19 119.43 251.86 119.78
  Q 240.15 120.74 233.30 130.76
  Q 233.04 131.14 232.62 130.94
  Q 224.71 127.12 216.16 128.35
  C 210.27 129.19 206.76 131.87 201.82 135.37
  Q 198.44 137.77 192.31 139.71
  C 186.27 141.63 177.38 140.18 174.19 133.96
  Q 173.85 133.30 174.58 133.43
  C 187.87 135.82 194.51 127.36 205.64 122.99
  Q 217.06 118.51 229.15 122.84
  A 2.01 2.00 30.3 0 0 231.35 122.27
  C 242.02 110.07 253.47 111.66 268.86 111.61
  Q 274.47 111.59 280.00 109.59
  Z"
/>
<path fill="#d3ac67" d="
  M 0.00 148.60
  L 0.00 141.54
  Q 8.53 140.02 17.05 138.24
  C 27.33 136.08 35.88 137.54 44.55 143.23
  Q 45.73 144.01 47.54 142.95
  C 53.25 139.61 60.10 138.11 66.53 138.57
  C 79.47 139.50 89.04 147.78 102.45 142.59
  A 0.39 0.39 0.0 0 1 102.96 143.10
  C 98.06 155.87 82.49 151.73 73.07 148.32
  Q 67.15 146.17 64.25 145.94
  Q 54.10 145.16 45.79 151.51
  Q 45.42 151.80 45.05 151.50
  Q 32.63 141.42 17.79 146.32
  Q 11.67 148.34 10.04 148.57
  Q 4.91 149.31 0.00 148.60
  Z"
/>
<path fill="#d3ac67" d="
  M 280.00 141.51
  L 280.00 148.80
  Q 271.90 149.54 264.09 147.14
  Q 257.43 145.09 255.79 144.91
  Q 244.11 143.59 235.04 151.56
  Q 234.69 151.87 234.31 151.59
  Q 225.10 144.56 213.97 146.19
  Q 211.82 146.51 205.19 148.98
  C 196.20 152.33 181.45 154.90 177.03 143.12
  Q 176.72 142.30 177.56 142.55
  C 180.70 143.49 183.13 144.72 186.93 144.54
  C 195.68 144.11 204.48 139.39 212.76 138.61
  Q 221.88 137.76 230.45 141.95
  Q 232.27 142.84 234.19 143.56
  A 0.97 0.95 38.3 0 0 235.09 143.46
  Q 243.26 137.95 252.70 137.24
  Q 256.77 136.93 263.94 138.44
  Q 271.97 140.14 280.00 141.51
  Z"
/>
<path fill="#ff9932" d="
  M 280.00 163.96
  L 280.00 166.91
  Q 261.17 181.19 236.74 178.45
  Q 228.98 177.58 205.63 174.94
  Q 172.19 171.16 140.16 182.99
  Q 139.68 183.17 139.21 182.97
  C 119.08 174.64 96.07 172.76 74.40 175.08
  Q 66.34 175.94 43.00 178.32
  Q 18.40 180.84 0.00 166.89
  L 0.00 163.88
  Q 8.42 167.56 11.25 168.26
  Q 25.65 171.81 40.50 170.71
  Q 56.42 169.54 72.28 167.52
  C 94.02 164.75 118.62 166.59 139.24 175.24
  Q 139.70 175.43 140.16 175.26
  Q 172.78 163.10 207.50 167.47
  Q 223.32 169.46 239.25 170.71
  C 250.51 171.59 263.10 170.70 273.67 166.49
  Q 276.81 165.24 280.00 163.96
  Z"
/>
<path fill="#118707" d="
  M 140.49 188.60
  C 155.37 181.72 172.98 179.84 189.20 180.16
  C 201.00 180.39 215.28 182.76 228.22 184.44
  C 243.17 186.38 263.35 184.41 275.00 173.75
  Q 276.43 172.44 275.59 174.18
  Q 273.59 178.35 269.14 181.87
  Q 253.23 194.45 232.75 192.62
  Q 219.59 191.45 206.50 189.57
  C 185.43 186.54 160.45 187.59 140.71 196.39
  Q 139.98 196.71 139.25 196.38
  C 120.28 187.78 97.08 186.96 76.74 189.21
  C 63.03 190.72 47.86 193.90 35.00 192.54
  C 23.37 191.32 10.10 183.71 3.92 173.72
  A 0.33 0.33 0.0 0 1 4.43 173.30
  C 16.05 184.30 35.43 186.19 50.49 184.36
  C 64.98 182.61 80.85 179.98 94.50 180.13
  C 109.97 180.30 125.38 182.24 139.68 188.61
  A 0.98 0.97 43.9 0 0 140.49 188.60
  Z"
/>
<ellipse fill="#d3ac67" cx="0.00" cy="0.00" transform="translate(113.16,200.37) rotate(-35.5)" rx="1.35" ry="0.99"/>
<path fill="#d3ac67" d="
  M 81.10 205.44
  L 81.21 213.88
  A 0.70 0.69 -6.6 0 1 80.66 214.57
  Q 79.79 214.75 79.38 214.24
  Q 79.13 213.93 79.17 213.21
  Q 79.31 211.01 79.14 208.82
  Q 79.09 208.22 78.51 208.09
  Q 76.33 207.59 74.52 208.65
  A 0.76 0.76 0.0 0 0 74.29 209.74
  L 76.83 213.24
  A 0.66 0.66 0.0 0 1 75.93 214.18
  Q 73.25 212.42 72.53 209.31
  A 2.05 2.05 0.0 0 1 73.93 206.88
  Q 75.82 206.31 77.99 206.71
  Q 79.33 206.95 79.31 205.30
  Q 79.30 204.73 78.73 204.73
  L 72.08 204.77
  A 0.52 0.52 0.0 0 1 71.55 204.25
  L 71.55 203.71
  A 0.56 0.55 -0.5 0 1 72.11 203.15
  L 92.77 203.14
  A 0.55 0.55 0.0 0 1 93.19 204.04
  L 92.11 205.31
  A 1.26 1.24 65.1 0 0 91.81 206.15
  L 91.99 213.75
  Q 92.00 214.38 91.38 214.38
  L 90.53 214.39
  A 0.72 0.71 1.1 0 1 89.81 213.65
  L 90.01 208.74
  A 0.66 0.66 0.0 0 0 89.36 208.05
  L 86.26 208.00
  A 1.27 1.27 0.0 0 0 85.23 210.03
  L 87.61 213.19
  A 0.76 0.76 0.0 0 1 86.50 214.22
  Q 84.18 212.16 83.12 209.22
  A 1.90 1.90 0.0 0 1 84.84 206.68
  L 89.41 206.52
  A 0.58 0.58 0.0 0 0 89.93 206.13
  L 90.14 205.54
  A 0.65 0.64 9.4 0 0 89.52 204.68
  L 81.74 204.79
  Q 81.10 204.80 81.10 205.44
  Z"
/>
<path fill="#d3ac67" d="
  M 111.35 211.86
  Q 107.31 213.08 106.34 209.04
  Q 106.22 208.53 105.74 208.30
  Q 103.78 207.37 102.29 208.75
  A 0.80 0.80 0.0 0 0 102.20 209.82
  L 104.82 213.27
  A 0.66 0.66 0.0 0 1 103.94 214.22
  Q 100.92 212.33 100.34 208.75
  A 1.13 1.12 60.9 0 1 100.59 207.85
  C 102.45 205.57 106.42 207.15 109.14 206.25
  Q 109.91 206.00 110.34 206.16
  Q 110.81 206.34 111.05 206.75
  A 0.49 0.49 0.0 0 1 110.78 207.46
  L 108.80 208.12
  A 0.79 0.79 0.0 0 0 108.28 209.00
  Q 108.61 210.96 110.76 210.68
  A 1.66 1.66 0.0 0 0 112.13 208.54
  Q 111.78 207.43 112.09 206.27
  Q 112.55 204.61 110.82 204.64
  L 100.11 204.84
  Q 99.46 204.85 99.35 204.21
  L 99.29 203.84
  A 0.64 0.64 0.0 0 1 99.92 203.10
  L 115.01 203.15
  A 0.53 0.52 20.6 0 1 115.41 204.02
  L 114.32 205.26
  Q 114.00 205.61 114.00 206.09
  L 114.03 213.79
  A 0.90 0.90 0.0 0 1 112.25 213.95
  L 111.94 212.22
  Q 111.85 211.70 111.35 211.86
  Z"
/>
<path fill="#d3ac67" d="
  M 127.49 210.67
  Q 124.74 211.43 123.13 209.22
  A 1.56 1.55 -56.6 0 1 122.88 207.96
  Q 123.49 205.44 121.45 204.09
  A 0.50 0.50 0.0 0 1 121.73 203.17
  L 151.86 203.16
  A 0.47 0.47 0.0 0 1 152.19 203.97
  L 150.67 205.50
  A 0.49 0.43 69.9 0 0 150.54 205.83
  L 150.72 213.74
  A 0.83 0.82 -10.4 0 1 150.17 214.53
  Q 149.47 214.78 149.05 214.32
  Q 148.79 214.05 148.79 213.46
  Q 148.78 211.65 148.66 210.32
  A 1.57 1.57 0.0 0 0 146.77 208.92
  Q 145.46 209.19 145.33 210.50
  A 0.56 0.56 0.0 0 1 144.53 210.95
  Q 142.93 210.15 142.38 208.46
  A 0.94 0.94 0.0 0 1 143.28 207.23
  L 147.88 207.25
  A 0.79 0.79 0.0 0 0 148.64 206.72
  L 149.03 205.63
  A 0.61 0.61 0.0 0 0 148.45 204.82
  L 140.75 204.77
  Q 140.01 204.77 140.01 205.50
  L 140.01 213.72
  A 0.95 0.95 0.0 0 1 138.11 213.78
  L 137.99 211.71
  A 0.51 0.51 0.0 0 0 137.46 211.23
  L 135.29 211.29
  A 1.32 1.28 62.7 0 1 134.46 211.01
  Q 132.03 209.12 133.08 206.07
  A 0.97 0.96 11.4 0 0 132.23 204.80
  L 130.77 204.69
  Q 130.15 204.65 130.15 205.27
  L 130.20 213.59
  A 0.71 0.70 -78.7 0 0 130.63 214.24
  Q 133.45 215.44 133.24 218.63
  A 0.89 0.89 0.0 0 1 131.49 218.80
  L 130.78 216.11
  A 1.05 1.05 0.0 0 0 129.07 215.60
  Q 127.56 216.96 129.59 218.18
  A 0.46 0.46 0.0 0 1 129.51 219.01
  Q 127.82 219.65 126.66 218.31
  A 1.89 1.89 0.0 0 1 126.79 215.68
  Q 128.76 213.86 128.18 211.09
  Q 128.06 210.51 127.49 210.67
  Z
  M 128.1980 205.8171
  A 1.24 1.24 0.0 0 0 126.9558 204.5793
  L 126.1558 204.5807
  A 1.24 1.24 0.0 0 0 124.9180 205.8229
  L 124.9220 208.1629
  A 1.24 1.24 0.0 0 0 126.1642 209.4007
  L 126.9642 209.3993
  A 1.24 1.24 0.0 0 0 128.2020 208.1571
  L 128.1980 205.8171
  Z
  M 137.8688 206.7893
  A 1.42 1.21 45.3 0 0 137.7301 204.9289
  A 1.42 1.21 45.3 0 0 135.8712 204.7707
  A 1.42 1.21 45.3 0 0 136.0099 206.6311
  A 1.42 1.21 45.3 0 0 137.8688 206.7893
  Z
  M 137.2811 209.8302
  A 1.79 1.09 44.3 0 0 136.7613 207.7999
  A 1.79 1.09 44.3 0 0 134.7189 207.3298
  A 1.79 1.09 44.3 0 0 135.2387 209.3601
  A 1.79 1.09 44.3 0 0 137.2811 209.8302
  Z"
/>
<path fill="#d3ac67" d="
  M 191.50 211.81
  C 185.80 213.49 184.79 206.33 189.80 206.10
  Q 190.40 206.07 190.70 206.38
  Q 190.84 206.53 190.89 206.70
  Q 191.04 207.18 190.58 207.39
  L 188.54 208.33
  A 0.76 0.76 0.0 0 0 188.25 209.47
  Q 189.34 210.94 191.17 210.62
  Q 192.04 210.47 192.06 209.59
  L 192.13 205.25
  A 0.63 0.62 -90.0 0 0 191.50 204.61
  L 185.03 204.75
  Q 184.32 204.77 184.33 205.47
  L 184.43 213.77
  A 0.88 0.87 -1.7 0 1 183.59 214.65
  Q 182.83 214.68 182.77 213.73
  Q 182.50 209.55 182.45 205.34
  Q 182.45 204.72 181.83 204.66
  L 180.53 204.53
  Q 179.70 204.44 179.70 205.28
  L 179.72 213.88
  A 0.75 0.75 0.0 0 1 179.05 214.63
  Q 177.77 214.78 177.86 213.63
  Q 177.99 212.07 177.99 211.18
  A 0.69 0.69 0.0 0 0 177.17 210.50
  L 175.16 210.89
  A 1.21 1.19 -31.6 0 1 174.19 210.67
  Q 171.78 208.83 172.66 205.56
  A 0.59 0.59 0.0 0 0 172.15 204.81
  L 170.72 204.66
  Q 170.01 204.58 170.02 205.29
  L 170.18 213.82
  Q 170.19 214.58 169.43 214.53
  L 168.57 214.47
  A 0.66 0.65 -86.5 0 1 167.96 213.77
  Q 168.07 212.20 167.99 210.68
  Q 167.96 210.13 167.69 209.92
  Q 167.50 209.78 167.26 209.75
  A 0.49 0.49 0.0 0 0 166.72 210.21
  C 166.26 216.41 160.06 213.21 158.54 209.74
  A 0.67 0.66 64.1 0 1 158.83 208.89
  Q 159.37 208.59 159.92 208.88
  C 160.95 209.44 161.61 211.29 163.03 212.14
  Q 163.69 212.54 164.06 211.86
  L 164.79 210.52
  A 0.72 0.71 -65.3 0 0 164.42 209.51
  L 161.98 208.57
  A 0.38 0.38 0.0 0 1 161.90 207.90
  L 163.69 206.68
  A 1.14 1.14 0.0 0 0 162.52 204.73
  L 160.69 205.69
  A 0.84 0.84 0.0 0 1 159.75 204.31
  Q 162.47 201.96 165.31 204.25
  Q 165.75 204.61 165.66 205.16
  L 165.30 207.33
  A 1.20 1.19 -78.3 0 0 166.18 208.68
  Q 167.61 209.05 167.97 207.74
  Q 168.68 205.15 166.76 204.44
  A 0.67 0.67 0.0 0 1 166.99 203.15
  L 207.98 203.19
  A 0.48 0.47 -70.8 0 1 208.35 203.96
  L 207.55 204.97
  Q 207.22 205.39 207.15 205.91
  Q 206.42 211.00 207.88 215.85
  A 2.35 2.35 0.0 0 1 207.05 218.41
  Q 203.41 221.17 200.01 218.17
  Q 199.61 217.81 199.93 217.38
  Q 200.28 216.91 200.81 216.91
  C 202.25 216.89 202.81 218.70 204.98 218.03
  Q 206.36 217.61 206.17 216.26
  Q 206.10 215.79 205.63 215.84
  L 203.53 216.06
  A 0.48 0.47 -63.4 0 1 203.24 215.18
  L 204.78 214.24
  A 0.92 0.91 -16.0 0 0 205.22 213.46
  L 205.19 205.29
  Q 205.19 204.62 204.53 204.70
  L 203.60 204.82
  A 0.71 0.70 -9.0 0 0 203.00 205.64
  C 203.32 207.53 203.44 209.89 201.61 211.04
  Q 199.31 212.47 197.21 210.22
  A 1.18 1.15 -64.5 0 1 196.91 209.34
  Q 197.08 207.02 196.71 205.40
  A 1.32 1.32 0.0 0 0 194.10 205.71
  L 194.18 214.96
  A 0.63 0.63 0.0 0 1 193.52 215.60
  Q 191.60 215.49 190.38 216.90
  A 0.61 0.61 0.0 0 0 190.77 217.91
  L 193.48 218.24
  A 0.41 0.40 -59.8 0 1 193.67 218.97
  C 192.12 220.12 189.41 219.26 188.50 218.02
  A 1.01 1.01 0.0 0 1 188.39 217.04
  Q 189.26 215.03 191.44 214.43
  Q 191.83 214.32 191.92 213.93
  L 192.27 212.53
  A 0.61 0.60 -1.7 0 0 191.50 211.81
  Z
  M 177.9774 205.9424
  A 1.41 1.41 0.0 0 0 176.5772 204.5226
  L 175.8573 204.5175
  A 1.41 1.41 0.0 0 0 174.4374 205.9177
  L 174.4226 208.0376
  A 1.41 1.41 0.0 0 0 175.8228 209.4574
  L 176.5427 209.4625
  A 1.41 1.41 0.0 0 0 177.9626 208.0623
  L 177.9774 205.9424
  Z
  M 201.1628 205.4582
  A 0.85 0.85 0.0 0 0 200.3188 204.6023
  L 199.6788 204.5978
  A 0.85 0.85 0.0 0 0 198.8229 205.4419
  L 198.7972 209.1218
  A 0.85 0.85 0.0 0 0 199.6412 209.9777
  L 200.2812 209.9822
  A 0.85 0.85 0.0 0 0 201.1371 209.1381
  L 201.1628 205.4582
  Z"
/>
<ellipse fill="#d3ac67" cx="0.00" cy="0.00" transform="translate(151.41,217.82) rotate(44.5)" rx="2.47" ry="0.97"/>
<path fill="#d3ac67" d="
  M 91.32 215.87
  A 0.25 0.25 0.0 0 1 91.67 215.87
  L 91.79 215.98
  A 4.18 0.83 44.0 0 1 94.22 219.48
  L 94.04 219.67
  A 4.18 0.83 44.0 0 1 90.46 217.36
  L 90.34 217.25
  A 0.25 0.25 0.0 0 1 90.33 216.89
  L 91.32 215.87
  Z"
/>
<path fill="#7d1f21" d="
  M 41.23 226.09
  L 38.15 222.34
  A 1.34 1.33 56.9 0 1 38.58 220.30
  L 39.17 220.00
  Q 39.79 219.69 40.11 220.30
  L 43.18 226.18
  A 1.27 1.25 75.7 0 0 44.29 226.85
  L 65.23 226.92
  A 0.52 0.51 81.6 0 0 65.72 226.25
  L 64.92 223.66
  A 1.10 1.06 43.9 0 1 64.90 223.12
  Q 66.12 218.01 71.06 219.72
  Q 75.35 221.20 76.16 226.41
  A 0.60 0.58 84.9 0 0 76.75 226.92
  L 92.79 226.81
  A 0.70 0.70 0.0 0 1 93.28 228.01
  L 91.41 229.83
  A 0.65 0.64 68.6 0 0 91.21 230.30
  L 91.24 242.17
  A 0.66 0.65 -84.9 0 1 90.47 242.82
  L 89.03 242.55
  A 0.52 0.51 -84.1 0 1 88.61 242.03
  L 88.67 239.92
  A 0.65 0.65 0.0 0 0 87.84 239.27
  Q 81.17 241.15 79.47 234.78
  Q 79.31 234.19 79.88 233.97
  L 82.25 233.06
  A 1.94 1.93 -48.3 0 0 82.04 229.38
  Q 79.67 228.77 77.20 229.11
  A 0.86 0.85 86.2 0 0 76.46 229.96
  L 76.51 241.69
  A 1.07 1.07 0.0 0 1 76.05 242.57
  Q 74.89 243.37 74.13 242.61
  Q 73.70 242.19 73.70 241.27
  Q 73.75 235.35 73.69 229.46
  Q 73.69 228.96 73.19 228.98
  L 70.52 229.06
  A 0.74 0.73 -89.6 0 0 69.81 229.77
  L 69.69 232.65
  A 0.64 0.64 0.0 0 1 69.08 233.27
  L 63.59 233.50
  A 1.79 1.79 0.0 0 0 62.07 236.10
  Q 63.15 238.20 65.51 238.25
  A 0.87 0.86 13.2 0 0 66.31 237.76
  Q 66.91 236.51 68.10 235.80
  A 1.66 1.66 0.0 0 1 70.43 237.98
  Q 69.37 240.10 69.83 242.44
  A 0.53 0.52 84.7 0 1 69.31 243.07
  Q 68.07 243.05 67.67 241.90
  A 1.50 1.50 0.0 0 0 65.27 241.26
  L 62.51 243.67
  A 0.48 0.48 0.0 0 1 61.81 243.02
  L 63.44 240.77
  A 0.65 0.65 0.0 0 0 63.03 239.75
  Q 59.78 239.13 59.45 235.85
  A 1.68 1.67 42.9 0 0 56.11 235.97
  Q 56.08 237.07 55.49 237.92
  A 0.56 0.55 -47.5 0 1 54.60 237.96
  L 51.81 234.49
  A 1.17 1.17 0.0 0 1 52.72 232.59
  L 59.22 232.54
  Q 59.78 232.54 60.28 232.27
  Q 62.86 230.90 65.83 231.32
  A 1.26 1.25 -66.2 0 0 66.98 230.87
  Q 67.74 229.91 66.87 229.30
  Q 66.54 229.07 66.00 229.07
  Q 55.43 229.07 44.85 229.04
  A 0.66 0.66 0.0 0 0 44.19 229.67
  L 44.08 231.38
  Q 44.03 232.18 44.80 231.96
  C 51.86 230.01 52.58 238.15 48.05 241.20
  A 1.13 1.12 6.5 0 1 46.65 239.45
  Q 48.50 237.73 48.21 235.15
  Q 48.05 233.71 46.61 233.76
  C 43.20 233.87 44.25 240.03 44.15 242.21
  Q 44.12 242.90 43.44 242.83
  L 42.23 242.71
  A 0.66 0.65 5.4 0 1 41.64 242.01
  L 41.84 239.52
  A 0.46 0.46 0.0 0 0 41.16 239.08
  C 33.49 243.11 32.58 229.01 40.03 230.96
  A 1.01 1.01 0.0 0 1 39.78 232.94
  C 36.65 232.98 36.34 237.81 39.50 237.50
  C 42.51 237.21 41.92 231.76 41.65 229.56
  Q 41.58 228.98 41.00 228.99
  L 33.84 229.08
  Q 33.34 229.08 33.13 228.62
  L 32.89 228.07
  A 0.82 0.82 0.0 0 1 33.64 226.92
  L 40.86 226.88
  Q 41.88 226.88 41.23 226.09
  Z
  M 73.58 225.59
  Q 72.90 222.34 69.86 221.33
  A 1.82 1.82 0.0 0 0 67.51 223.49
  L 68.16 226.14
  A 0.97 0.97 0.0 0 0 69.09 226.88
  L 72.44 226.96
  Q 73.88 226.99 73.58 225.59
  Z
  M 87.95 236.90
  Q 88.57 236.44 88.56 235.68
  L 88.49 229.81
  Q 88.48 228.87 87.55 228.94
  L 85.63 229.07
  A 0.63 0.63 0.0 0 0 85.08 229.91
  Q 86.53 234.06 82.71 235.71
  A 0.52 0.51 57.5 0 0 82.53 236.53
  Q 84.96 239.15 87.95 236.90
  Z"
/>
<path fill="#7d1f21" d="
  M 133.54 239.81
  C 130.19 241.48 127.08 242.98 123.94 239.57
  Q 123.64 239.24 123.68 238.78
  L 123.89 236.33
  Q 123.94 235.73 123.54 235.30
  C 122.67 234.37 121.80 232.96 122.56 231.71
  C 124.00 229.35 126.36 231.56 128.00 230.31
  A 0.78 0.77 25.8 0 0 127.51 228.92
  L 120.35 229.04
  A 1.11 1.10 89.5 0 0 119.27 230.15
  L 119.26 242.23
  Q 119.26 243.01 118.49 242.87
  L 117.31 242.65
  A 0.70 0.70 0.0 0 1 116.73 241.97
  L 116.72 239.42
  A 0.51 0.50 80.7 0 0 116.06 238.94
  Q 112.47 240.11 110.33 238.14
  C 105.46 233.67 113.76 228.53 115.66 232.13
  A 0.51 0.51 0.0 0 1 115.28 232.87
  L 112.93 233.26
  A 1.83 1.83 0.0 0 0 111.49 235.65
  C 112.30 238.06 116.86 238.08 116.72 234.73
  Q 116.61 232.44 116.70 230.33
  A 1.18 1.18 0.0 0 0 115.53 229.10
  L 106.99 229.04
  A 0.97 0.97 0.0 0 0 106.02 230.01
  L 106.06 241.77
  A 1.01 1.00 80.1 0 1 105.40 242.72
  Q 104.13 243.18 103.61 242.40
  Q 103.32 241.96 103.32 240.91
  Q 103.35 235.43 103.34 229.97
  A 0.58 0.58 0.0 0 0 103.02 229.45
  L 101.12 228.50
  A 0.50 0.50 0.0 0 1 101.06 227.64
  L 102.62 226.59
  A 0.82 0.81 67.7 0 0 102.96 225.76
  C 102.24 221.88 104.71 219.68 108.47 219.94
  Q 112.96 220.25 115.67 223.84
  C 117.15 225.81 117.48 226.88 120.25 226.88
  Q 148.91 226.83 177.43 226.90
  A 0.73 0.73 0.0 0 1 177.88 228.21
  L 175.93 229.72
  A 0.50 0.49 -20.3 0 0 175.75 230.10
  L 175.73 242.00
  A 0.85 0.85 0.0 0 1 174.75 242.84
  L 173.67 242.68
  Q 173.15 242.60 173.19 242.07
  L 173.37 239.70
  Q 173.43 238.97 172.73 239.20
  Q 166.06 241.38 163.94 234.89
  A 0.77 0.77 0.0 0 1 164.40 233.93
  L 166.87 233.01
  Q 167.34 232.83 167.49 232.35
  C 168.58 228.72 163.77 228.74 161.61 229.26
  Q 161.05 229.39 161.05 229.97
  L 161.03 242.18
  A 0.67 0.67 0.0 0 1 160.30 242.85
  L 158.87 242.73
  Q 158.25 242.68 158.26 242.05
  L 158.41 235.34
  A 0.90 0.89 62.5 0 0 156.77 234.82
  L 154.94 237.57
  Q 154.66 238.00 154.24 237.70
  L 153.51 237.16
  A 0.55 0.54 30.5 0 1 153.34 236.51
  Q 154.34 234.16 151.94 233.74
  A 2.24 2.24 0.0 0 0 149.31 235.95
  Q 149.32 239.12 152.76 240.21
  A 0.86 0.85 20.5 0 1 153.29 241.36
  L 152.85 242.39
  Q 152.58 243.00 151.96 242.76
  C 148.78 241.55 145.58 238.21 146.79 234.60
  C 147.64 232.08 150.45 230.98 152.94 231.89
  C 154.04 232.29 154.82 232.95 156.04 232.79
  Q 158.61 232.46 158.46 229.84
  A 0.70 0.70 0.0 0 0 157.76 229.18
  L 144.50 229.08
  A 1.17 1.17 0.0 0 0 143.32 230.25
  L 143.32 242.19
  Q 143.32 242.98 142.55 242.83
  L 141.25 242.58
  Q 140.74 242.48 140.74 241.97
  L 140.66 229.87
  Q 140.65 228.83 139.61 228.93
  L 137.65 229.12
  A 0.72 0.71 87.3 0 0 137.02 229.82
  L 137.02 242.16
  Q 137.02 243.05 136.14 242.89
  L 134.99 242.69
  A 0.83 0.82 4.4 0 1 134.31 241.91
  L 134.25 240.24
  Q 134.22 239.47 133.54 239.81
  Z
  M 114.87 226.10
  C 113.36 224.00 107.72 219.56 105.53 223.35
  Q 104.74 224.73 105.49 226.49
  Q 105.69 226.96 106.20 226.96
  L 114.48 226.86
  A 0.48 0.48 0.0 0 0 114.87 226.10
  Z
  M 129.75 236.37
  L 127.47 236.54
  A 1.26 1.26 0.0 0 0 126.60 238.61
  C 127.87 240.10 131.81 238.66 133.10 237.47
  C 134.85 235.85 134.29 231.76 134.12 229.58
  Q 134.07 228.84 133.33 228.92
  L 131.39 229.13
  A 0.59 0.59 0.0 0 0 130.87 229.69
  L 130.79 231.73
  A 0.79 0.79 0.0 0 1 130.02 232.49
  L 125.94 232.55
  A 0.98 0.98 0.0 0 0 125.59 234.44
  C 126.88 234.95 128.07 234.19 129.33 234.62
  Q 130.09 234.87 130.29 235.60
  A 0.61 0.60 80.3 0 1 129.75 236.37
  Z
  M 169.66 229.70
  C 170.77 232.75 169.91 234.08 167.36 235.83
  Q 166.87 236.17 167.21 236.66
  C 168.95 239.11 173.27 237.94 173.24 234.76
  Q 173.20 231.55 173.17 229.87
  Q 173.16 229.09 172.39 229.07
  L 170.17 228.99
  A 0.53 0.52 81.0 0 0 169.66 229.70
  Z"
/>
<ellipse fill="#7d1f21" cx="0.00" cy="0.00" transform="translate(200.49,222.90) rotate(-35.5)" rx="1.96" ry="1.51"/>
<path fill="#7d1f21" d="
  M 198.46 235.65
  Q 196.51 235.57 195.05 234.55
  A 1.87 1.87 0.0 0 0 192.76 237.51
  Q 194.36 238.87 195.12 240.37
  A 1.37 1.36 45.7 0 1 195.11 241.64
  Q 194.51 242.73 193.43 242.08
  Q 193.04 241.84 192.66 241.27
  Q 189.92 237.25 187.24 233.28
  A 0.97 0.96 -35.3 0 1 187.47 231.97
  L 188.02 231.57
  Q 188.57 231.17 189.03 231.66
  L 190.64 233.37
  A 0.85 0.85 0.0 0 0 192.10 232.77
  L 192.04 229.71
  A 0.58 0.58 0.0 0 0 191.46 229.14
  L 186.19 229.16
  A 0.61 0.61 0.0 0 1 185.58 228.59
  L 185.51 227.59
  Q 185.47 226.90 186.15 226.90
  L 246.25 226.86
  A 0.83 0.83 0.0 0 1 246.82 228.29
  L 245.37 229.65
  Q 244.99 230.01 244.99 230.53
  L 244.97 241.65
  A 1.19 1.16 79.6 0 1 244.24 242.73
  Q 243.19 243.16 242.59 242.55
  Q 242.22 242.17 242.24 241.38
  Q 242.29 238.57 242.34 235.79
  Q 242.35 235.20 241.78 235.05
  Q 237.89 233.99 237.32 237.49
  A 0.67 0.67 0.0 0 1 236.23 237.90
  Q 234.36 236.36 233.53 234.01
  A 1.04 1.04 0.0 0 1 234.51 232.62
  L 241.44 232.63
  A 0.79 0.78 -84.9 0 0 242.22 231.97
  L 242.55 229.93
  Q 242.66 229.20 241.92 229.19
  L 230.97 229.08
  Q 230.46 229.07 230.29 229.56
  Q 229.37 232.19 230.56 234.29
  C 231.55 236.06 232.48 238.05 231.48 239.49
  C 225.51 248.07 214.94 234.96 222.38 231.91
  C 223.71 231.36 225.43 231.48 226.92 231.47
  A 1.04 1.04 0.0 0 0 227.94 230.26
  Q 227.74 229.04 226.37 229.00
  Q 221.79 228.87 217.20 229.26
  A 0.50 0.49 88.1 0 0 216.75 229.75
  L 216.73 242.11
  A 0.73 0.72 89.6 0 1 216.02 242.84
  L 214.80 242.86
  A 0.82 0.81 89.3 0 1 213.97 242.04
  L 213.99 229.60
  A 0.62 0.62 0.0 0 0 213.33 228.98
  L 210.87 229.13
  A 0.73 0.73 0.0 0 0 210.18 229.86
  L 210.10 237.10
  A 0.95 0.95 0.0 0 1 208.56 237.83
  L 205.17 235.17
  A 0.51 0.51 0.0 0 1 205.28 234.31
  Q 208.18 233.04 207.37 229.74
  Q 207.23 229.20 206.68 229.19
  L 202.28 229.06
  A 0.68 0.68 0.0 0 0 201.58 229.73
  L 201.50 242.15
  A 0.78 0.78 0.0 0 1 200.56 242.91
  L 199.34 242.64
  Q 198.72 242.50 198.74 241.86
  L 198.97 236.20
  A 0.53 0.53 0.0 0 0 198.46 235.65
  Z
  M 198.9138 230.2575
  A 1.12 1.12 0.0 0 0 197.8295 229.1028
  L 195.8105 229.0394
  A 1.12 1.12 0.0 0 0 194.6559 230.1236
  L 194.5862 232.3425
  A 1.12 1.12 0.0 0 0 195.6705 233.4972
  L 197.6895 233.5606
  A 1.12 1.12 0.0 0 0 198.8441 232.4764
  L 198.9138 230.2575
  Z
  M 227.33 233.28
  L 223.63 234.03
  A 1.49 1.49 0.0 0 0 222.46 235.78
  L 222.67 236.79
  A 4.14 3.24 78.6 0 0 226.66 240.21
  L 226.94 240.16
  A 4.14 3.24 78.6 0 0 229.29 235.46
  L 229.09 234.45
  A 1.49 1.49 0.0 0 0 227.33 233.28
  Z"
/>
</svg>
