<?xml version="1.0" encoding="UTF-8" standalone="no"?>
<!DOCTYPE svg PUBLIC "-//W3C//DTD SVG 1.1//EN" "http://www.w3.org/Graphics/SVG/1.1/DTD/svg11.dtd">
<svg xmlns="http://www.w3.org/2000/svg" version="1.1" viewBox="0.00 0.00 272.00 223.00">
<path fill="#003f72" d="
  M 240.30 108.02
  A 104.28 104.28 0.0 0 1 136.02 212.30
  A 104.28 104.28 0.0 0 1 31.74 108.02
  A 104.28 104.28 0.0 0 1 136.02 3.74
  A 104.28 104.28 0.0 0 1 240.30 108.02
  Z
  M 51.77 121.22
  Q 49.99 121.22 50.87 119.68
  L 106.42 22.42
  A 0.59 0.58 -85.4 0 0 105.71 21.58
  Q 79.71 31.47 63.51 52.34
  C 21.55 106.41 52.85 186.71 120.79 198.03
  Q 121.89 198.21 122.82 196.60
  Q 144.19 159.19 165.46 121.98
  A 0.53 0.52 14.6 0 0 165.00 121.20
  L 136.80 121.27
  Q 135.83 121.27 136.32 120.43
  L 150.58 96.09
  A 1.07 1.07 0.0 0 1 151.50 95.57
  L 220.27 95.57
  A 0.65 0.65 0.0 0 1 220.83 96.55
  L 206.95 120.23
  A 2.00 1.97 -74.6 0 1 205.24 121.22
  L 181.48 121.23
  A 1.28 1.25 14.3 0 0 180.37 121.87
  L 136.55 198.52
  A 0.61 0.60 14.1 0 0 137.09 199.42
  C 162.01 198.86 184.63 189.19 201.84 171.49
  C 233.78 138.64 236.19 85.52 206.67 50.10
  Q 176.63 14.05 126.74 16.90
  Q 124.43 17.03 123.73 18.25
  Q 101.96 56.22 79.83 94.72
  A 0.59 0.59 0.0 0 0 80.35 95.60
  L 134.54 95.55
  A 0.50 0.50 0.0 0 1 134.97 96.30
  L 120.73 120.65
  A 1.26 1.24 15.0 0 1 119.65 121.26
  L 51.77 121.22
  Z"
/>
</svg>
