<?xml version="1.0" encoding="UTF-8" standalone="no"?>
<!DOCTYPE svg PUBLIC "-//W3C//DTD SVG 1.1//EN" "http://www.w3.org/Graphics/SVG/1.1/DTD/svg11.dtd">
<svg xmlns="http://www.w3.org/2000/svg" version="1.1" viewBox="0.00 0.00 410.00 400.00">
<g stroke-width="2.00" fill="none" stroke-linecap="butt">
<path stroke="#6c76b3" vector-effect="non-scaling-stroke" d="
  M 182.34 165.44
  Q 183.11 167.08 184.63 168.02
  A 0.38 0.38 0.0 0 0 185.18 167.54
  L 183.42 163.66
  Q 183.14 163.03 182.47 163.23
  Q 181.50 163.54 180.81 164.31
  Q 180.38 164.79 181.02 164.86
  L 181.64 164.94
  Q 182.13 165.00 182.34 165.44"
/>
<path stroke="#6c76b3" vector-effect="non-scaling-stroke" d="
  M 231.53 165.02
  Q 231.58 164.86 231.43 164.79
  L 228.21 163.31
  A 0.39 0.39 0.0 0 0 227.66 163.70
  C 227.75 165.17 226.96 166.29 227.53 167.54
  Q 228.18 168.95 229.81 169.23
  Q 230.26 169.30 230.38 168.87
  L 231.53 165.02"
/>
<path stroke="#6c76b3" vector-effect="non-scaling-stroke" d="
  M 191.79 164.36
  Q 191.57 164.45 191.48 164.21
  A 0.19 0.19 0.0 0 0 191.12 164.26
  Q 191.02 165.27 191.88 165.77
  A 0.52 0.52 0.0 0 0 192.52 164.97
  L 191.99 164.41
  A 0.19 0.18 -29.4 0 0 191.79 164.36"
/>
<path stroke="#6c76b3" vector-effect="non-scaling-stroke" d="
  M 240.74 169.85
  L 236.62 167.60
  A 0.78 0.76 -75.8 0 1 236.21 166.90
  L 236.22 165.95
  Q 236.23 165.41 235.70 165.31
  L 234.80 165.13
  Q 234.23 165.01 234.24 165.59
  Q 234.29 168.54 231.83 169.74
  Q 231.35 169.98 231.77 170.31
  L 232.51 170.90
  A 0.78 0.77 -53.8 0 0 233.63 170.72
  L 235.11 168.47
  A 0.72 0.72 0.0 0 1 236.43 168.88
  L 236.38 173.37
  A 0.57 0.57 0.0 0 0 237.06 173.94
  L 237.50 173.86
  Q 238.14 173.73 238.02 173.09
  L 237.43 169.92
  A 0.17 0.17 0.0 0 1 237.68 169.74
  L 240.07 171.07
  A 0.70 0.69 -72.9 0 1 240.42 171.74
  Q 240.28 173.29 238.92 174.06
  A 0.48 0.48 0.0 0 0 238.92 174.90
  L 239.31 175.12
  A 0.46 0.46 0.0 0 0 239.99 174.80
  Q 240.31 173.13 241.89 172.44
  A 0.80 0.79 72.1 0 0 242.35 171.54
  Q 242.03 170.03 243.07 169.33
  Q 243.78 168.86 243.07 168.38
  L 242.40 167.93
  A 0.51 0.51 0.0 0 0 241.61 168.30
  L 241.47 169.48
  A 0.50 0.49 18.0 0 1 240.74 169.85"
/>
<path stroke="#6c76b3" vector-effect="non-scaling-stroke" d="
  M 250.66 184.59
  Q 249.94 184.96 249.84 185.90
  Q 249.79 186.44 250.27 186.18
  Q 251.40 185.56 252.04 184.48"
/>
<path stroke="#6c76b3" vector-effect="non-scaling-stroke" d="
  M 252.72 183.86
  Q 253.99 183.82 252.98 182.52
  Q 250.82 179.72 249.60 181.56"
/>
<path stroke="#6c76b3" vector-effect="non-scaling-stroke" d="
  M 247.61 176.56
  Q 246.70 174.63 244.69 172.92
  Q 244.22 172.52 243.82 172.99
  L 241.69 175.50
  A 0.61 0.61 0.0 0 0 242.50 176.40
  L 244.48 175.07
  A 0.69 0.69 0.0 0 1 245.36 175.17
  L 246.91 176.86"
/>
<path stroke="#6c76b3" vector-effect="non-scaling-stroke" d="
  M 255.25 190.47
  L 259.66 188.37
  Q 259.81 188.30 259.93 188.42
  L 260.15 188.64
  Q 260.44 188.93 260.42 188.51
  Q 260.39 187.90 259.73 187.66
  C 257.99 187.04 254.61 189.78 253.55 191.01
  Q 253.14 191.49 253.64 191.88
  L 253.92 192.08
  A 0.30 0.30 0.0 0 0 254.38 191.95
  L 254.72 191.05
  Q 254.87 190.65 255.25 190.47"
/>
<path stroke="#6c76b3" vector-effect="non-scaling-stroke" d="
  M 257.89 195.12
  Q 256.67 195.49 256.06 196.52
  A 0.37 0.37 0.0 0 0 256.56 197.04
  L 259.77 195.29
  A 0.77 0.77 0.0 0 0 259.60 193.87
  Q 258.81 193.66 258.53 194.50
  Q 258.38 194.98 257.89 195.12"
/>
<path stroke="#6c76b3" vector-effect="non-scaling-stroke" d="
  M 261.41 229.57
  Q 262.38 227.74 263.87 227.64
  A 1.40 1.40 0.0 0 0 263.99 224.86
  L 260.90 224.40
  A 0.71 0.71 0.0 0 0 260.15 224.81
  Q 259.41 226.49 259.11 228.17
  Q 259.04 228.55 259.21 228.77
  Q 259.42 229.04 259.80 229.13"
/>
<path stroke="#6c76b3" vector-effect="non-scaling-stroke" d="
  M 244.64 259.13
  Q 245.75 259.51 246.62 259.34
  Q 247.32 259.21 248.09 258.25
  Q 249.41 256.59 251.11 254.77"
/>
</g>
<path fill="#204396" d="
  M 248.42 60.13
  Q 248.15 62.42 248.14 66.51
  Q 248.10 76.82 248.12 87.24
  A 0.44 0.44 0.0 0 1 247.51 87.64
  C 245.22 86.66 243.80 85.29 243.78 82.58
  Q 243.72 71.56 243.69 60.55
  Q 243.69 59.85 243.00 59.79
  L 237.80 59.34
  A 1.16 1.15 3.1 0 0 236.55 60.46
  L 236.38 68.33
  A 0.93 0.92 -87.6 0 1 235.40 69.24
  Q 230.79 68.96 226.01 69.10
  C 223.95 69.16 222.45 71.23 223.95 73.04
  C 225.75 75.23 229.31 73.45 231.58 72.88
  A 1.54 1.51 49.2 0 1 232.54 72.96
  C 237.35 75.03 241.22 81.49 236.58 85.81
  C 227.77 94.03 217.66 80.82 215.01 73.26
  Q 214.41 71.54 215.73 71.28
  A 0.73 0.73 0.0 0 1 216.55 71.75
  C 218.84 78.05 226.96 88.31 234.28 81.59
  Q 235.81 80.19 235.60 78.41
  A 1.75 1.75 0.0 0 0 233.29 76.95
  C 230.86 77.78 228.67 79.51 225.90 77.70
  Q 220.39 74.10 219.92 68.27
  C 219.57 63.85 228.18 64.70 230.77 64.73
  A 1.77 1.77 0.0 0 0 232.56 62.83
  C 232.40 60.46 232.15 59.51 229.47 59.51
  Q 220.47 59.52 211.87 59.51
  A 1.72 1.71 -90.0 0 0 210.16 61.23
  L 210.25 86.97
  Q 210.25 87.94 209.31 87.68
  C 204.82 86.41 205.68 82.38 206.02 78.94
  A 1.56 1.55 3.8 0 0 204.51 77.23
  L 199.16 77.10
  A 1.67 1.67 0.0 0 0 197.47 79.01
  Q 197.81 81.43 196.15 83.00
  A 0.96 0.94 -52.2 0 1 195.03 83.15
  Q 189.89 80.28 188.52 74.56
  A 1.84 1.82 75.5 0 1 189.80 72.37
  L 192.76 71.53
  A 0.57 0.57 0.0 0 0 193.18 70.97
  L 193.10 61.48
  A 1.97 1.97 0.0 0 0 191.11 59.53
  L 186.84 59.56
  A 1.80 1.80 0.0 0 0 185.06 61.51
  Q 185.50 67.02 185.07 72.53
  Q 184.83 75.55 183.18 76.38
  Q 180.66 77.64 176.77 74.33
  A 0.94 0.94 0.0 0 1 177.73 72.75
  Q 179.53 73.48 180.55 71.96
  A 0.53 0.49 64.7 0 0 180.62 71.74
  L 180.78 61.43
  A 1.91 1.90 0.6 0 0 178.88 59.50
  L 174.34 59.47
  A 1.96 1.96 0.0 0 0 172.36 61.48
  Q 172.51 67.67 172.32 74.25
  C 172.14 80.39 180.39 84.44 184.91 87.55
  C 190.61 91.48 184.38 96.12 180.68 92.27
  A 0.94 0.93 -58.0 0 1 180.47 91.34
  L 181.33 88.60
  A 0.87 0.87 0.0 0 0 180.95 87.60
  C 175.13 84.07 168.05 80.36 168.07 73.19
  Q 168.07 67.16 168.25 61.15
  A 1.02 1.02 0.0 0 0 167.81 60.29
  Q 165.66 58.83 163.10 59.55
  A 1.01 1.00 -86.1 0 0 162.46 60.11
  Q 161.86 61.42 161.89 63.25
  Q 162.11 74.74 162.22 87.06
  Q 162.23 88.03 161.30 87.78
  C 158.55 87.04 157.45 84.80 157.53 81.93
  Q 157.63 77.82 157.53 73.76
  C 157.46 70.90 153.18 71.43 151.48 72.15
  A 0.72 0.72 0.0 0 0 151.05 72.88
  Q 151.27 75.47 150.33 77.79
  A 1.36 1.36 0.0 0 1 148.29 78.40
  Q 143.84 75.34 142.69 70.12
  A 1.76 1.72 54.1 0 1 142.87 68.90
  C 144.77 65.43 152.18 66.87 155.55 66.97
  A 2.12 2.11 -0.4 0 0 157.73 64.77
  L 157.57 61.05
  A 1.77 1.76 -1.4 0 0 155.80 59.37
  L 141.26 59.37
  A 2.02 2.02 0.0 0 0 139.24 61.34
  Q 139.10 67.44 138.91 74.05
  Q 138.87 75.44 137.54 76.35
  C 134.97 78.11 131.69 75.63 130.74 73.23
  A 0.39 0.39 0.0 0 1 131.20 72.70
  L 132.73 73.07
  A 1.87 1.87 0.0 0 0 135.04 71.23
  L 134.94 61.18
  A 1.74 1.74 0.0 0 0 133.18 59.45
  L 128.33 59.51
  A 1.87 1.86 -0.9 0 0 126.49 61.40
  Q 126.58 66.64 126.52 72.15
  C 126.48 76.52 127.37 80.09 130.96 82.32
  C 135.19 84.96 141.70 88.22 140.89 91.96
  Q 140.78 92.48 140.33 92.77
  Q 137.92 94.36 135.51 92.89
  A 1.63 1.62 -65.8 0 1 134.80 91.00
  L 135.62 88.45
  A 0.82 0.82 0.0 0 0 135.25 87.49
  Q 131.39 85.22 127.78 82.69
  C 123.25 79.52 122.24 77.39 122.25 71.56
  Q 122.26 66.30 122.24 61.06
  A 1.17 1.15 20.2 0 0 121.82 60.17
  Q 120.72 59.23 119.23 59.02
  A 0.78 0.78 0.0 0 1 118.72 58.71
  L 117.25 56.66
  Q 116.41 55.49 117.86 55.49
  L 233.03 55.50
  A 1.25 1.24 -14.2 0 0 234.13 53.67
  Q 231.43 48.71 233.77 43.27
  C 235.93 38.25 240.05 38.92 242.76 42.85
  Q 246.30 47.98 246.66 53.95
  A 1.65 1.64 88.3 0 0 248.30 55.50
  L 274.01 55.51
  A 1.05 1.04 73.8 0 0 274.89 53.90
  Q 271.41 48.49 274.56 42.36
  Q 276.32 38.93 279.48 39.78
  C 284.21 41.05 286.94 49.40 287.30 53.55
  A 2.06 2.06 0.0 0 0 288.67 55.31
  Q 291.24 56.22 292.66 58.56
  Q 292.99 59.11 292.35 59.19
  Q 289.04 59.57 289.03 61.25
  Q 288.95 74.14 288.79 86.91
  A 0.64 0.64 0.0 0 1 287.99 87.52
  Q 284.34 86.54 284.28 82.76
  Q 284.13 71.87 284.31 61.38
  A 1.84 1.83 1.4 0 0 282.52 59.51
  L 278.70 59.40
  Q 277.26 59.36 277.26 60.80
  L 277.33 87.28
  A 0.50 0.50 0.0 0 1 276.66 87.75
  C 271.67 86.00 272.59 80.23 272.86 76.06
  A 1.12 1.12 0.0 0 0 271.53 74.88
  Q 266.73 75.79 264.17 71.79
  A 0.85 0.84 47.2 0 0 262.78 71.73
  L 259.31 76.32
  A 1.51 1.50 -47.3 0 0 259.38 78.23
  L 267.06 86.88
  A 0.81 0.80 -36.1 0 1 266.86 88.11
  L 266.12 88.54
  Q 265.57 88.86 265.13 88.40
  C 261.62 84.74 251.16 72.73 253.33 67.51
  A 1.43 1.43 0.0 0 1 255.72 67.10
  L 257.09 68.63
  A 1.65 1.65 0.0 0 0 259.85 68.14
  Q 261.40 64.25 259.76 60.31
  A 1.09 1.08 79.4 0 0 258.77 59.63
  L 249.22 59.43
  A 0.79 0.78 -86.0 0 0 248.42 60.13
  Z
  M 245.18 53.68
  L 240.73 44.75
  A 0.73 0.73 0.0 0 0 239.75 44.42
  L 239.39 44.60
  A 7.11 5.38 -26.5 0 0 235.43 52.58
  L 235.73 53.19
  A 7.11 5.38 -26.5 0 0 244.50 54.83
  L 244.86 54.66
  A 0.73 0.73 0.0 0 0 245.18 53.68
  Z
  M 285.73 54.42
  C 284.82 51.27 283.07 46.42 279.50 45.17
  A 1.14 1.13 -50.4 0 0 278.56 45.26
  C 275.09 47.33 275.57 51.39 276.60 54.92
  A 0.82 0.82 0.0 0 0 277.40 55.50
  L 285.01 55.39
  A 0.76 0.76 0.0 0 0 285.73 54.42
  Z
  M 205.8659 61.1578
  A 1.63 1.63 0.0 0 0 204.2274 59.5364
  L 198.9875 59.5638
  A 1.63 1.63 0.0 0 0 197.3660 61.2023
  L 197.4141 70.3822
  A 1.63 1.63 0.0 0 0 199.0526 72.0036
  L 204.2925 71.9762
  A 1.63 1.63 0.0 0 0 205.9140 70.3377
  L 205.8659 61.1578
  Z
  M 272.13 59.29
  L 263.34 59.68
  A 0.66 0.66 0.0 0 0 262.71 60.37
  L 262.97 66.19
  A 5.09 4.65 87.5 0 0 267.83 71.07
  L 268.65 71.04
  A 5.09 4.65 87.5 0 0 273.08 65.75
  L 272.82 59.92
  A 0.66 0.66 0.0 0 0 272.13 59.29
  Z"
/>
<path fill="#204396" d="
  M 136.90 217.32
  L 122.47 211.04
  A 1.99 1.98 -76.7 0 1 121.28 209.10
  Q 121.71 201.61 124.01 194.47
  A 2.52 2.52 0.0 0 1 126.27 192.74
  L 140.29 192.01
  A 3.03 3.01 -79.3 0 0 142.90 190.22
  Q 149.42 175.56 162.11 164.87
  C 163.07 164.05 163.40 162.93 163.07 161.63
  Q 161.35 154.85 160.08 148.15
  A 1.83 1.82 -22.7 0 1 160.85 146.29
  Q 167.51 141.73 175.17 139.19
  A 1.12 1.11 -29.8 0 1 176.37 139.51
  Q 181.43 145.16 186.36 150.90
  C 187.91 152.71 191.88 151.02 193.91 150.65
  Q 195.94 150.28 196.09 147.76
  Q 196.79 136.41 197.36 125.34
  Q 197.42 124.17 196.37 123.64
  Q 191.37 121.15 193.67 115.44
  A 0.83 0.81 2.8 0 1 194.21 114.96
  Q 197.99 113.88 201.78 113.08
  C 206.52 112.07 211.12 113.69 215.54 115.20
  Q 217.55 115.88 217.82 117.21
  Q 218.36 119.84 217.31 122.12
  A 1.08 1.07 4.6 0 1 216.59 122.73
  Q 213.95 123.40 214.05 125.74
  Q 214.36 132.24 215.91 149.40
  Q 215.95 149.88 216.33 150.18
  C 219.88 152.99 222.50 151.82 225.12 148.48
  Q 228.87 143.69 233.28 139.56
  A 0.98 0.97 -58.5 0 1 234.23 139.33
  Q 242.22 141.62 248.99 146.43
  A 0.90 0.89 -66.6 0 1 249.35 147.36
  L 246.23 162.17
  A 2.56 2.53 -64.6 0 0 247.10 164.65
  Q 259.90 175.16 266.66 190.34
  A 2.50 2.50 0.0 0 0 268.82 191.83
  Q 274.52 192.14 280.51 192.33
  C 285.47 192.49 285.35 194.77 286.38 199.17
  Q 287.54 204.08 287.82 208.91
  A 1.79 1.78 75.4 0 1 286.82 210.62
  L 273.70 217.06
  A 2.56 2.55 78.1 0 0 272.28 219.25
  C 271.90 230.86 268.57 240.38 263.33 250.69
  A 1.44 1.43 40.6 0 0 263.45 252.20
  L 272.53 264.48
  Q 273.23 265.43 272.53 266.38
  Q 267.62 272.99 261.50 278.48
  A 0.93 0.93 0.0 0 1 260.45 278.61
  L 246.73 271.25
  A 2.22 2.22 0.0 0 0 244.38 271.40
  Q 233.00 279.59 219.34 282.90
  A 3.03 3.02 -0.9 0 0 217.09 285.22
  L 214.18 299.25
  A 1.67 1.66 -86.9 0 1 212.72 300.57
  Q 204.48 301.45 196.23 300.62
  A 1.19 1.19 0.0 0 1 195.19 299.72
  Q 193.62 293.27 192.52 286.49
  C 192.16 284.26 190.97 283.33 188.74 282.77
  Q 175.45 279.44 164.30 271.43
  Q 163.09 270.56 161.11 271.80
  Q 155.54 275.31 150.06 277.81
  A 2.54 2.54 0.0 0 1 147.47 277.52
  Q 141.07 272.62 136.62 265.91
  Q 136.38 265.54 136.63 265.18
  L 145.30 252.75
  A 3.05 3.04 48.5 0 0 145.49 249.57
  Q 140.87 240.92 138.63 231.18
  C 137.71 227.21 137.79 222.43 137.39 218.01
  Q 137.35 217.52 136.90 217.32
  Z
  M 214.87 120.37
  Q 216.22 120.31 216.37 118.95
  A 0.87 0.87 0.0 0 0 215.75 118.03
  Q 211.82 116.91 207.74 115.88
  C 203.85 114.89 200.32 116.16 196.62 117.19
  Q 195.77 117.42 195.39 117.83
  Q 194.66 118.59 195.32 119.41
  A 2.06 2.06 0.0 0 0 197.54 120.08
  Q 200.26 119.24 202.98 118.81
  C 207.33 118.12 211.44 120.54 214.87 120.37
  Z
  M 211.0760 122.0056
  A 1.68 1.50 -41.1 0 0 208.8239 121.9797
  A 1.68 1.50 -41.1 0 0 208.5440 124.2144
  A 1.68 1.50 -41.1 0 0 210.7961 124.2403
  A 1.68 1.50 -41.1 0 0 211.0760 122.0056
  Z
  M 207.40 123.62
  A 1.55 1.55 0.0 0 0 205.85 122.07
  A 1.55 1.55 0.0 0 0 204.30 123.62
  A 1.55 1.55 0.0 0 0 205.85 125.17
  A 1.55 1.55 0.0 0 0 207.40 123.62
  Z
  M 200.8854 123.7335
  A 1.00 0.81 20.7 0 0 200.2363 122.6223
  A 1.00 0.81 20.7 0 0 199.0146 123.0265
  A 1.00 0.81 20.7 0 0 199.6637 124.1377
  A 1.00 0.81 20.7 0 0 200.8854 123.7335
  Z
  M 204.7577 129.4791
  A 2.87 1.77 49.4 0 0 204.2339 126.1481
  A 2.87 1.77 49.4 0 0 201.0223 125.1209
  A 2.87 1.77 49.4 0 0 201.5461 128.4519
  A 2.87 1.77 49.4 0 0 204.7577 129.4791
  Z
  M 212.52 126.76
  A 1.24 1.24 0.0 0 0 211.28 125.52
  A 1.24 1.24 0.0 0 0 210.04 126.76
  A 1.24 1.24 0.0 0 0 211.28 128.00
  A 1.24 1.24 0.0 0 0 212.52 126.76
  Z
  M 201.70 131.56
  A 1.62 1.62 0.0 0 0 200.08 129.94
  A 1.62 1.62 0.0 0 0 198.46 131.56
  A 1.62 1.62 0.0 0 0 200.08 133.18
  A 1.62 1.62 0.0 0 0 201.70 131.56
  Z
  M 207.5175 132.5709
  A 1.68 1.38 27.7 0 0 206.6715 130.5682
  A 1.68 1.38 27.7 0 0 204.5425 131.0091
  A 1.68 1.38 27.7 0 0 205.3885 133.0118
  A 1.68 1.38 27.7 0 0 207.5175 132.5709
  Z
  M 212.9735 134.0342
  A 1.96 1.65 12.5 0 0 211.4171 131.9991
  A 1.96 1.65 12.5 0 0 209.1465 133.1858
  A 1.96 1.65 12.5 0 0 210.7029 135.2209
  A 1.96 1.65 12.5 0 0 212.9735 134.0342
  Z
  M 204.9514 137.8533
  A 2.59 2.11 54.3 0 0 205.1535 134.5187
  A 2.59 2.11 54.3 0 0 201.9286 133.6467
  A 2.59 2.11 54.3 0 0 201.7265 136.9813
  A 2.59 2.11 54.3 0 0 204.9514 137.8533
  Z
  M 201.39 138.71
  L 199.49 137.74
  A 0.76 0.76 0.0 0 0 198.47 138.07
  L 198.33 138.33
  A 3.05 1.73 -63.0 0 0 198.49 141.83
  L 198.67 141.92
  A 3.05 1.73 -63.0 0 0 201.59 139.99
  L 201.73 139.73
  A 0.76 0.76 0.0 0 0 201.39 138.71
  Z
  M 207.75 140.26
  A 1.43 1.43 0.0 0 0 206.32 138.83
  A 1.43 1.43 0.0 0 0 204.89 140.26
  A 1.43 1.43 0.0 0 0 206.32 141.69
  A 1.43 1.43 0.0 0 0 207.75 140.26
  Z
  M 212.92 141.14
  A 1.83 1.83 0.0 0 0 211.09 139.31
  A 1.83 1.83 0.0 0 0 209.26 141.14
  A 1.83 1.83 0.0 0 0 211.09 142.97
  A 1.83 1.83 0.0 0 0 212.92 141.14
  Z
  M 205.9763 147.1068
  A 3.22 2.05 44.0 0 0 205.0840 143.3954
  A 3.22 2.05 44.0 0 0 201.3437 142.6332
  A 3.22 2.05 44.0 0 0 202.2360 146.3446
  A 3.22 2.05 44.0 0 0 205.9763 147.1068
  Z
  M 200.6318 149.7225
  A 2.19 1.68 50.2 0 0 200.5207 146.9646
  A 2.19 1.68 50.2 0 0 197.8282 146.3575
  A 2.19 1.68 50.2 0 0 197.9393 149.1154
  A 2.19 1.68 50.2 0 0 200.6318 149.7225
  Z
  M 212.55 148.55
  A 1.47 1.47 0.0 0 0 211.08 147.08
  A 1.47 1.47 0.0 0 0 209.61 148.55
  A 1.47 1.47 0.0 0 0 211.08 150.02
  A 1.47 1.47 0.0 0 0 212.55 148.55
  Z
  M 195.69 161.39
  L 195.98 163.55
  A 0.68 0.68 0.0 0 0 196.85 164.12
  L 197.44 163.95
  Q 198.13 163.75 198.15 163.04
  L 198.21 160.35
  A 1.04 1.04 0.0 0 0 196.94 159.31
  Q 194.07 159.95 191.18 160.30
  Q 190.28 160.40 190.02 160.89
  Q 189.65 161.57 190.15 162.60
  A 1.25 1.25 0.0 0 0 192.48 162.40
  Q 193.02 160.54 195.08 160.78
  A 0.71 0.71 0.0 0 1 195.69 161.39
  Z
  M 216.18 160.46
  C 214.56 158.71 212.46 160.02 210.84 161.03
  A 1.00 1.00 0.0 0 0 210.98 162.79
  Q 213.03 163.67 215.23 163.20
  A 1.88 1.88 0.0 0 1 216.30 163.30
  Q 219.64 164.68 222.06 162.23
  A 0.87 0.86 22.2 0 0 221.44 160.76
  L 216.91 160.77
  A 1.02 0.97 -20.6 0 1 216.18 160.46
  Z
  M 203.6784 161.6075
  A 1.85 1.07 2.4 0 0 201.8748 160.4609
  A 1.85 1.07 2.4 0 0 199.9816 161.4525
  A 1.85 1.07 2.4 0 0 201.7852 162.5991
  A 1.85 1.07 2.4 0 0 203.6784 161.6075
  Z
  M 209.3996 162.1273
  A 1.25 0.84 -1.5 0 0 208.1280 161.3203
  A 1.25 0.84 -1.5 0 0 206.9004 162.1927
  A 1.25 0.84 -1.5 0 0 208.1720 162.9997
  A 1.25 0.84 -1.5 0 0 209.3996 162.1273
  Z
  M 182.34 165.44
  Q 183.11 167.08 184.63 168.02
  A 0.38 0.38 0.0 0 0 185.18 167.54
  L 183.42 163.66
  Q 183.14 163.03 182.47 163.23
  Q 181.50 163.54 180.81 164.31
  Q 180.38 164.79 181.02 164.86
  L 181.64 164.94
  Q 182.13 165.00 182.34 165.44
  Z
  M 231.53 165.02
  Q 231.58 164.86 231.43 164.79
  L 228.21 163.31
  A 0.39 0.39 0.0 0 0 227.66 163.70
  C 227.75 165.17 226.96 166.29 227.53 167.54
  Q 228.18 168.95 229.81 169.23
  Q 230.26 169.30 230.38 168.87
  L 231.53 165.02
  Z
  M 191.79 164.36
  Q 191.57 164.45 191.48 164.21
  A 0.19 0.19 0.0 0 0 191.12 164.26
  Q 191.02 165.27 191.88 165.77
  A 0.52 0.52 0.0 0 0 192.52 164.97
  L 191.99 164.41
  A 0.19 0.18 -29.4 0 0 191.79 164.36
  Z
  M 179.73 166.96
  Q 180.49 167.56 181.47 167.41
  A 0.92 0.92 0.0 0 0 181.58 165.62
  Q 176.00 164.02 172.43 169.03
  Q 171.32 170.60 172.58 171.92
  Q 173.00 172.37 173.47 171.96
  L 179.05 166.98
  Q 179.38 166.69 179.73 166.96
  Z
  M 240.74 169.85
  L 236.62 167.60
  A 0.78 0.76 -75.8 0 1 236.21 166.90
  L 236.22 165.95
  Q 236.23 165.41 235.70 165.31
  L 234.80 165.13
  Q 234.23 165.01 234.24 165.59
  Q 234.29 168.54 231.83 169.74
  Q 231.35 169.98 231.77 170.31
  L 232.51 170.90
  A 0.78 0.77 -53.8 0 0 233.63 170.72
  L 235.11 168.47
  A 0.72 0.72 0.0 0 1 236.43 168.88
  L 236.38 173.37
  A 0.57 0.57 0.0 0 0 237.06 173.94
  L 237.50 173.86
  Q 238.14 173.73 238.02 173.09
  L 237.43 169.92
  A 0.17 0.17 0.0 0 1 237.68 169.74
  L 240.07 171.07
  A 0.70 0.69 -72.9 0 1 240.42 171.74
  Q 240.28 173.29 238.92 174.06
  A 0.48 0.48 0.0 0 0 238.92 174.90
  L 239.31 175.12
  A 0.46 0.46 0.0 0 0 239.99 174.80
  Q 240.31 173.13 241.89 172.44
  A 0.80 0.79 72.1 0 0 242.35 171.54
  Q 242.03 170.03 243.07 169.33
  Q 243.78 168.86 243.07 168.38
  L 242.40 167.93
  A 0.51 0.51 0.0 0 0 241.61 168.30
  L 241.47 169.48
  A 0.50 0.49 18.0 0 1 240.74 169.85
  Z
  M 167.77 175.81
  Q 170.07 175.79 171.63 174.11
  A 0.73 0.73 0.0 0 0 171.74 173.25
  L 170.32 170.70
  A 0.90 0.89 56.9 0 0 169.01 170.42
  L 164.37 173.85
  A 1.22 1.22 0.0 0 0 164.23 175.69
  Q 165.38 176.83 166.81 176.05
  Q 167.26 175.81 167.77 175.81
  Z
  M 208.5550 173.8642
  A 2.46 1.55 40.7 0 0 207.7008 171.0849
  A 2.46 1.55 40.7 0 0 204.8250 170.6558
  A 2.46 1.55 40.7 0 0 205.6792 173.4351
  A 2.46 1.55 40.7 0 0 208.5550 173.8642
  Z
  M 196.5333 173.8558
  A 1.72 1.48 124.6 0 0 198.7282 173.2804
  A 1.72 1.48 124.6 0 0 198.4867 171.0242
  A 1.72 1.48 124.6 0 0 196.2918 171.5996
  A 1.72 1.48 124.6 0 0 196.5333 173.8558
  Z
  M 216.2526 174.6056
  A 2.70 1.62 35.7 0 0 215.0053 171.7144
  A 2.70 1.62 35.7 0 0 211.8674 171.4544
  A 2.70 1.62 35.7 0 0 213.1147 174.3456
  A 2.70 1.62 35.7 0 0 216.2526 174.6056
  Z
  M 189.73 177.39
  L 193.18 177.13
  A 0.77 0.77 0.0 0 0 193.88 176.52
  L 194.49 173.69
  A 1.47 1.47 0.0 0 0 192.66 171.97
  C 168.67 178.52 155.03 200.05 158.16 224.70
  Q 158.70 228.90 159.85 231.66
  A 1.17 1.16 89.2 0 0 160.49 232.29
  Q 164.13 233.70 165.96 232.72
  Q 171.75 229.60 178.04 227.49
  A 0.73 0.72 80.8 0 1 178.99 228.18
  Q 179.01 237.63 178.74 247.24
  Q 178.72 248.20 178.95 248.73
  Q 179.47 249.90 180.74 249.59
  A 1.11 1.09 -6.0 0 0 181.58 248.57
  L 182.16 235.83
  A 0.72 0.72 0.0 0 1 182.91 235.14
  L 188.84 235.35
  A 0.90 0.90 0.0 0 0 189.76 234.59
  L 190.29 231.23
  Q 190.37 230.77 190.04 230.43
  Q 187.50 227.79 187.00 224.22
  C 186.80 222.82 186.09 221.67 185.08 220.91
  Q 175.71 213.81 166.52 206.46
  Q 162.15 202.96 165.86 199.10
  Q 172.00 192.72 181.13 188.30
  C 185.00 186.42 188.42 191.56 190.63 194.00
  A 1.50 1.50 0.0 0 0 193.24 193.03
  L 193.39 186.63
  A 0.78 0.76 13.0 0 0 192.92 185.90
  L 189.13 184.33
  A 0.72 0.71 -76.3 0 1 188.69 183.60
  L 189.12 178.01
  Q 189.16 177.44 189.73 177.39
  Z
  M 200.04 176.17
  L 203.32 176.56
  A 0.73 0.73 0.0 0 0 204.13 175.92
  L 204.14 175.84
  A 2.79 2.23 -83.2 0 0 202.25 172.81
  L 201.95 172.77
  A 2.79 2.23 -83.2 0 0 199.41 175.28
  L 199.40 175.36
  A 0.73 0.73 0.0 0 0 200.04 176.17
  Z
  M 221.02 186.33
  L 219.35 187.55
  A 1.09 1.09 0.0 0 0 220.06 189.52
  C 223.22 189.34 225.23 188.54 227.01 185.72
  C 228.76 182.96 230.40 180.96 228.62 177.59
  C 227.46 175.40 222.12 173.79 219.76 172.83
  A 1.39 1.39 0.0 0 0 217.90 173.78
  Q 217.01 177.28 220.24 178.64
  A 0.86 0.85 -82.4 0 1 220.76 179.33
  L 221.41 185.43
  A 0.98 0.96 -22.0 0 1 221.02 186.33
  Z
  M 246.91 176.86
  L 244.40 178.37
  A 1.16 1.15 39.9 0 0 244.59 180.44
  Q 248.05 181.76 250.66 184.59
  Q 249.94 184.96 249.84 185.90
  Q 249.79 186.44 250.27 186.18
  Q 251.40 185.56 252.04 184.48
  L 252.72 183.86
  Q 253.99 183.82 252.98 182.52
  Q 250.82 179.72 249.60 181.56
  Q 248.94 181.66 248.73 181.08
  Q 248.61 180.72 248.98 180.63
  L 250.62 180.24
  A 0.55 0.55 0.0 0 0 250.85 179.29
  L 247.61 176.56
  Q 246.70 174.63 244.69 172.92
  Q 244.22 172.52 243.82 172.99
  L 241.69 175.50
  A 0.61 0.61 0.0 0 0 242.50 176.40
  L 244.48 175.07
  A 0.69 0.69 0.0 0 1 245.36 175.17
  L 246.91 176.86
  Z
  M 212.8400 178.5948
  A 1.51 1.11 56.2 0 0 212.9224 176.7225
  A 1.51 1.11 56.2 0 0 211.1600 176.0852
  A 1.51 1.11 56.2 0 0 211.0776 177.9575
  A 1.51 1.11 56.2 0 0 212.8400 178.5948
  Z
  M 194.48 179.66
  A 1.25 1.25 0.0 0 0 193.23 178.41
  A 1.25 1.25 0.0 0 0 191.98 179.66
  A 1.25 1.25 0.0 0 0 193.23 180.91
  A 1.25 1.25 0.0 0 0 194.48 179.66
  Z
  M 155.96 191.50
  C 158.57 188.41 159.85 184.99 163.05 182.40
  Q 163.52 182.02 163.08 181.61
  L 160.42 179.17
  A 0.64 0.64 0.0 0 0 159.50 179.23
  Q 154.71 184.93 149.98 193.51
  Q 147.84 197.39 150.72 200.18
  A 0.78 0.76 -42.2 0 0 151.73 200.22
  Q 153.87 198.50 155.57 195.16
  Q 156.41 193.50 155.86 192.31
  Q 155.65 191.87 155.96 191.50
  Z
  M 206.04 185.63
  Q 206.59 187.51 208.18 186.66
  A 1.04 1.04 0.0 0 0 208.11 184.79
  L 203.82 182.88
  A 0.54 0.53 -72.5 0 0 203.08 183.27
  L 202.94 183.99
  Q 202.81 184.68 203.51 184.76
  L 205.22 184.94
  Q 205.86 185.01 206.04 185.63
  Z
  M 233.90 202.10
  A 0.76 0.75 82.1 0 1 234.75 202.75
  Q 234.85 203.65 233.96 203.99
  C 231.08 205.07 228.14 205.31 225.89 207.51
  Q 223.13 210.21 220.91 213.47
  Q 220.59 213.95 220.66 214.52
  L 221.57 221.64
  A 0.89 0.88 1.8 0 0 222.29 222.40
  C 231.59 224.11 241.97 221.33 249.44 216.77
  C 251.79 215.34 251.63 213.94 251.25 211.50
  Q 249.24 198.62 242.05 189.06
  C 240.18 186.58 238.96 184.88 236.73 183.65
  A 1.50 1.50 0.0 0 0 234.56 185.37
  C 236.07 190.69 231.26 197.31 228.43 201.68
  A 1.73 1.72 -29.4 0 0 228.16 202.64
  Q 228.18 204.49 229.70 203.62
  Q 231.76 202.43 233.90 202.10
  Z
  M 195.00 185.79
  L 194.80 191.36
  A 0.77 0.77 0.0 0 0 195.54 192.16
  L 195.66 192.17
  A 4.23 3.52 2.1 0 0 200.02 188.80
  L 200.02 188.72
  A 4.23 3.52 2.1 0 0 195.92 185.05
  L 195.80 185.05
  A 0.77 0.77 0.0 0 0 195.00 185.79
  Z
  M 255.25 190.47
  L 259.66 188.37
  Q 259.81 188.30 259.93 188.42
  L 260.15 188.64
  Q 260.44 188.93 260.42 188.51
  Q 260.39 187.90 259.73 187.66
  C 257.99 187.04 254.61 189.78 253.55 191.01
  Q 253.14 191.49 253.64 191.88
  L 253.92 192.08
  A 0.30 0.30 0.0 0 0 254.38 191.95
  L 254.72 191.05
  Q 254.87 190.65 255.25 190.47
  Z
  M 213.0124 191.6593
  A 1.99 1.42 127.0 0 0 215.3441 190.9246
  A 1.99 1.42 127.0 0 0 215.4076 188.4807
  A 1.99 1.42 127.0 0 0 213.0759 189.2154
  A 1.99 1.42 127.0 0 0 213.0124 191.6593
  Z
  M 207.5554 192.3158
  A 2.42 1.94 17.7 0 0 205.8398 189.7318
  A 2.42 1.94 17.7 0 0 202.9446 190.8442
  A 2.42 1.94 17.7 0 0 204.6602 193.4282
  A 2.42 1.94 17.7 0 0 207.5554 192.3158
  Z
  M 183.69 193.50
  L 195.45 204.83
  Q 195.83 205.20 195.64 205.70
  L 194.50 208.57
  A 0.93 0.92 -4.4 0 0 195.83 209.70
  C 197.85 208.53 200.12 206.43 197.81 203.95
  C 193.47 199.30 188.80 193.97 183.87 189.97
  A 1.06 1.04 -35.0 0 0 182.87 189.80
  C 179.52 190.95 169.68 196.12 168.77 199.74
  Q 168.31 201.54 170.42 201.38
  A 1.25 1.21 -69.8 0 0 171.25 200.98
  Q 175.97 195.84 182.49 193.26
  A 1.12 1.12 0.0 0 1 183.69 193.50
  Z
  M 226.79 201.00
  L 230.19 194.72
  A 2.00 2.00 0.0 0 0 229.38 192.01
  L 229.34 191.99
  A 8.10 5.44 28.4 0 0 219.63 192.92
  L 219.51 193.15
  A 8.10 5.44 28.4 0 0 224.05 201.79
  L 224.08 201.81
  A 2.00 2.00 0.0 0 0 226.79 201.00
  Z
  M 197.1912 195.9782
  A 1.78 1.23 126.1 0 0 199.2338 195.2647
  A 1.78 1.23 126.1 0 0 199.2888 193.1018
  A 1.78 1.23 126.1 0 0 197.2462 193.8153
  A 1.78 1.23 126.1 0 0 197.1912 195.9782
  Z
  M 217.8069 195.9974
  A 1.80 1.48 39.6 0 0 217.3634 193.7096
  A 1.80 1.48 39.6 0 0 215.0331 193.7026
  A 1.80 1.48 39.6 0 0 215.4766 195.9904
  A 1.80 1.48 39.6 0 0 217.8069 195.9974
  Z
  M 257.89 195.12
  Q 256.67 195.49 256.06 196.52
  A 0.37 0.37 0.0 0 0 256.56 197.04
  L 259.77 195.29
  A 0.77 0.77 0.0 0 0 259.60 193.87
  Q 258.81 193.66 258.53 194.50
  Q 258.38 194.98 257.89 195.12
  Z
  M 211.04 202.94
  A 1.12 1.12 0.0 0 0 212.75 203.87
  L 216.59 201.49
  A 1.12 1.12 0.0 0 0 216.82 199.77
  L 212.79 195.51
  A 1.12 1.12 0.0 0 0 210.86 196.31
  L 211.04 202.94
  Z
  M 207.25 195.67
  L 203.76 197.00
  A 1.29 1.29 0.0 0 0 203.01 198.66
  L 203.03 198.72
  A 4.38 3.06 69.3 0 0 207.44 201.74
  L 207.63 201.67
  A 4.38 3.06 69.3 0 0 208.94 196.49
  L 208.92 196.43
  A 1.29 1.29 0.0 0 0 207.25 195.67
  Z
  M 218.0129 204.1057
  A 4.02 1.31 -31.9 0 0 213.9077 205.1178
  A 4.02 1.31 -31.9 0 0 211.1871 208.3543
  A 4.02 1.31 -31.9 0 0 215.2923 207.3422
  A 4.02 1.31 -31.9 0 0 218.0129 204.1057
  Z
  M 209.5551 208.7113
  A 2.37 1.41 31.3 0 0 208.2625 206.2752
  A 2.37 1.41 31.3 0 0 205.5049 206.2487
  A 2.37 1.41 31.3 0 0 206.7975 208.6848
  A 2.37 1.41 31.3 0 0 209.5551 208.7113
  Z
  M 150.42 210.99
  A 2.07 2.07 0.0 0 0 148.35 208.92
  A 2.07 2.07 0.0 0 0 146.28 210.99
  A 2.07 2.07 0.0 0 0 148.35 213.06
  A 2.07 2.07 0.0 0 0 150.42 210.99
  Z
  M 263.88 211.03
  A 1.89 1.89 0.0 0 0 261.99 209.14
  A 1.89 1.89 0.0 0 0 260.10 211.03
  A 1.89 1.89 0.0 0 0 261.99 212.92
  A 1.89 1.89 0.0 0 0 263.88 211.03
  Z
  M 200.6328 216.7671
  A 1.51 1.08 -37.2 0 0 198.7770 216.8197
  A 1.51 1.08 -37.2 0 0 198.2272 218.5929
  A 1.51 1.08 -37.2 0 0 200.0830 218.5403
  A 1.51 1.08 -37.2 0 0 200.6328 216.7671
  Z
  M 216.6538 221.5562
  A 2.33 1.80 123.8 0 0 219.4458 220.6213
  A 2.33 1.80 123.8 0 0 219.2462 217.6838
  A 2.33 1.80 123.8 0 0 216.4542 218.6187
  A 2.33 1.80 123.8 0 0 216.6538 221.5562
  Z
  M 249.70 219.55
  C 241.86 224.26 231.78 226.55 223.06 225.41
  Q 222.47 225.33 222.29 225.90
  L 221.88 227.18
  A 1.35 1.35 0.0 0 0 223.04 228.93
  Q 235.07 230.09 246.04 225.63
  C 248.29 224.71 252.64 222.17 251.63 220.12
  A 1.37 1.36 -28.5 0 0 249.70 219.55
  Z
  M 203.17 221.51
  L 202.49 225.78
  A 1.18 1.18 0.0 0 0 203.47 227.13
  L 203.61 227.15
  A 3.92 3.22 9.1 0 0 207.99 224.59
  L 208.03 224.36
  A 3.92 3.22 9.1 0 0 204.66 220.56
  L 204.53 220.53
  A 1.18 1.18 0.0 0 0 203.17 221.51
  Z
  M 196.0684 221.7510
  A 1.52 1.09 -2.6 0 0 194.5006 220.7311
  A 1.52 1.09 -2.6 0 0 193.0316 221.8890
  A 1.52 1.09 -2.6 0 0 194.5994 222.9089
  A 1.52 1.09 -2.6 0 0 196.0684 221.7510
  Z
  M 200.3055 225.1567
  A 1.48 1.03 76.1 0 0 200.9498 223.4726
  A 1.48 1.03 76.1 0 0 199.5945 222.2833
  A 1.48 1.03 76.1 0 0 198.9502 223.9674
  A 1.48 1.03 76.1 0 0 200.3055 225.1567
  Z
  M 220.0610 226.8836
  A 1.50 1.50 0.0 0 0 219.1013 224.9918
  L 213.6453 223.2085
  A 1.50 1.50 0.0 0 0 211.7535 224.1683
  L 211.6790 224.3964
  A 1.50 1.50 0.0 0 0 212.6387 226.2882
  L 218.0947 228.0715
  A 1.50 1.50 0.0 0 0 219.9865 227.1117
  L 220.0610 226.8836
  Z
  M 149.10 233.33
  Q 148.95 233.39 148.88 233.10
  A 0.52 0.51 -15.2 0 1 149.24 232.48
  Q 153.30 231.26 151.06 227.56
  A 0.87 0.87 0.0 0 1 150.94 227.02
  L 151.30 223.99
  A 0.78 0.78 0.0 0 0 150.47 223.12
  L 146.72 223.39
  A 0.82 0.81 2.7 0 0 145.98 224.06
  C 145.16 228.57 147.04 231.53 148.06 235.78
  Q 149.01 239.68 150.45 242.35
  Q 153.16 247.38 156.23 252.19
  A 0.72 0.71 -43.3 0 0 157.41 252.22
  L 159.84 248.88
  Q 160.13 248.49 159.87 248.08
  Q 156.33 242.39 153.90 236.10
  C 153.43 234.90 153.40 232.95 152.25 231.65
  Q 151.88 231.23 151.51 231.64
  Q 150.45 232.80 149.10 233.33
  Z
  M 259.80 229.13
  Q 259.27 229.06 258.93 229.74
  A 0.64 0.64 0.0 0 0 259.34 230.64
  Q 263.66 231.73 261.41 229.57
  Q 262.38 227.74 263.87 227.64
  A 1.40 1.40 0.0 0 0 263.99 224.86
  L 260.90 224.40
  A 0.71 0.71 0.0 0 0 260.15 224.81
  Q 259.41 226.49 259.11 228.17
  Q 259.04 228.55 259.21 228.77
  Q 259.42 229.04 259.80 229.13
  Z
  M 235.06 236.56
  Q 235.42 241.13 235.05 245.70
  C 234.85 248.18 234.00 248.77 232.22 250.24
  Q 215.51 264.04 194.30 259.02
  A 1.44 1.44 0.0 0 0 192.53 260.53
  C 192.67 262.34 193.44 263.19 195.28 263.52
  C 221.28 268.08 244.35 253.15 250.57 227.82
  A 1.18 1.18 0.0 0 0 248.91 226.47
  C 242.82 229.42 231.02 233.17 224.45 231.17
  Q 222.53 230.59 222.21 232.56
  Q 221.67 235.89 224.75 235.83
  Q 229.60 235.74 234.46 235.97
  Q 235.02 236.00 235.06 236.56
  Z
  M 209.84 230.84
  L 210.09 227.57
  A 0.66 0.66 0.0 0 0 209.49 226.86
  L 209.31 226.85
  A 2.64 2.18 4.5 0 0 206.50 228.81
  L 206.49 229.05
  A 2.64 2.18 4.5 0 0 208.95 231.43
  L 209.13 231.45
  A 0.66 0.66 0.0 0 0 209.84 230.84
  Z
  M 212.2666 233.0317
  A 2.18 1.72 119.8 0 0 214.8426 231.9948
  A 2.18 1.72 119.8 0 0 214.4334 229.2483
  A 2.18 1.72 119.8 0 0 211.8574 230.2852
  A 2.18 1.72 119.8 0 0 212.2666 233.0317
  Z
  M 177.00 231.97
  Q 177.00 230.35 175.44 230.78
  Q 171.68 231.80 168.37 233.89
  A 0.94 0.92 -23.8 0 0 167.96 234.92
  C 168.82 238.18 172.11 243.78 175.49 243.56
  A 1.62 1.61 -1.9 0 0 177.00 241.95
  L 177.00 231.97
  Z
  M 205.0053 231.4754
  A 2.26 1.77 -41.4 0 0 202.1395 231.6423
  A 2.26 1.77 -41.4 0 0 201.6147 234.4646
  A 2.26 1.77 -41.4 0 0 204.4805 234.2977
  A 2.26 1.77 -41.4 0 0 205.0053 231.4754
  Z
  M 221.12 233.88
  L 220.24 231.51
  A 1.08 1.08 0.0 0 0 218.86 230.88
  L 218.78 230.91
  A 5.12 2.22 -20.4 0 0 214.76 234.77
  L 214.84 235.00
  A 5.12 2.22 -20.4 0 0 220.41 235.29
  L 220.49 235.27
  A 1.08 1.08 0.0 0 0 221.12 233.88
  Z
  M 263.1316 234.5499
  A 0.77 0.77 0.0 0 0 262.4946 233.6667
  L 259.3555 233.1583
  A 0.77 0.77 0.0 0 0 258.4723 233.7953
  L 258.4084 234.1901
  A 0.77 0.77 0.0 0 0 259.0454 235.0733
  L 262.1845 235.5817
  A 0.77 0.77 0.0 0 0 263.0677 234.9447
  L 263.1316 234.5499
  Z
  M 182.40 253.48
  A 0.38 0.37 18.0 0 1 181.80 253.78
  Q 172.25 246.92 166.78 237.19
  C 165.96 235.73 164.76 234.56 163.09 235.01
  A 1.68 1.68 0.0 0 0 162.02 237.37
  Q 170.14 253.90 186.99 261.04
  Q 188.88 261.84 189.78 260.17
  A 1.59 1.58 32.9 0 0 189.35 258.17
  L 186.60 256.04
  A 0.92 0.89 -72.6 0 1 186.25 255.34
  L 186.17 243.00
  A 0.59 0.59 0.0 0 1 186.75 242.41
  L 195.25 242.31
  A 0.57 0.56 0.5 0 1 195.82 242.88
  L 195.73 251.83
  A 0.53 0.51 86.1 0 1 195.30 252.34
  L 191.75 252.98
  A 1.48 1.48 0.0 0 0 192.01 255.92
  Q 204.04 255.93 215.99 256.17
  Q 218.01 256.21 219.06 255.26
  A 1.38 1.38 0.0 0 0 218.24 252.87
  C 215.83 252.67 214.05 251.95 211.56 252.32
  Q 205.59 253.20 199.45 252.49
  Q 198.97 252.43 198.98 251.96
  L 199.01 243.12
  A 0.96 0.96 0.0 0 1 199.97 242.16
  L 210.88 242.18
  Q 211.44 242.18 211.49 242.73
  C 211.66 244.69 210.76 247.61 212.10 249.14
  A 1.22 1.22 0.0 0 0 214.24 248.38
  L 214.39 242.83
  A 0.54 0.54 0.0 0 1 214.92 242.30
  Q 221.01 242.13 227.12 242.30
  C 228.47 242.34 229.48 243.16 230.37 243.88
  A 1.18 1.18 0.0 0 0 232.29 243.04
  C 232.48 240.22 232.21 238.99 229.06 238.96
  Q 206.71 238.78 184.83 238.47
  A 2.44 2.44 0.0 0 0 182.35 240.92
  L 182.40 253.48
  Z
  M 244.64 259.13
  Q 245.75 259.51 246.62 259.34
  Q 247.32 259.21 248.09 258.25
  Q 249.41 256.59 251.11 254.77
  Q 256.26 248.75 259.11 244.07
  Q 259.78 242.97 258.48 242.24
  A 0.57 0.57 0.0 0 0 257.70 242.46
  Q 257.14 243.49 256.41 243.65
  A 0.53 0.47 -58.7 0 1 256.23 242.67
  Q 259.39 241.43 261.62 238.83
  A 0.67 0.67 0.0 0 0 261.35 237.76
  L 258.27 236.60
  Q 257.71 236.39 257.41 236.90
  L 252.99 244.45
  Q 252.72 244.91 252.30 245.25
  Q 251.08 246.27 250.69 247.86
  Q 250.58 248.33 250.19 248.62
  Q 249.23 249.35 248.83 250.46
  Q 248.64 250.99 248.24 251.39
  C 245.98 253.60 244.27 256.14 241.86 257.96
  Q 236.24 262.20 229.87 265.73
  A 1.11 1.10 -33.5 0 0 229.53 267.37
  L 231.69 270.13
  A 0.99 0.99 0.0 0 0 232.95 270.39
  Q 240.69 266.18 244.64 259.13
  Z
  M 220.13 250.10
  A 1.38 1.38 0.0 0 0 218.75 248.72
  A 1.38 1.38 0.0 0 0 217.37 250.10
  A 1.38 1.38 0.0 0 0 218.75 251.48
  A 1.38 1.38 0.0 0 0 220.13 250.10
  Z
  M 181.76 271.33
  Q 181.19 269.13 182.21 267.17
  Q 182.49 266.62 181.96 266.32
  C 174.03 261.87 167.82 258.41 163.19 251.39
  Q 162.75 250.73 162.20 251.30
  L 159.22 254.35
  A 0.65 0.65 0.0 0 0 159.28 255.31
  C 161.44 257.03 163.56 257.84 165.11 260.26
  C 168.14 264.97 173.51 267.93 179.82 271.68
  Q 180.73 272.23 181.59 271.73
  A 0.36 0.35 68.7 0 0 181.76 271.33
  Z
  M 202.86 275.05
  Q 201.37 269.50 195.41 270.30
  A 1.61 1.59 53.4 0 1 194.49 270.16
  Q 191.77 268.88 188.75 268.81
  A 1.08 1.03 65.0 0 1 188.09 268.55
  Q 186.94 267.56 185.45 267.47
  A 0.81 0.80 10.6 0 0 184.63 268.03
  L 183.24 272.42
  A 0.79 0.79 0.0 0 0 183.59 273.34
  Q 184.62 273.94 185.84 273.71
  A 1.84 1.82 50.5 0 1 186.91 273.82
  L 189.62 274.97
  A 0.78 0.77 27.5 0 0 190.59 274.67
  L 191.20 273.69
  Q 191.59 273.08 191.70 273.79
  Q 192.11 276.27 194.70 275.61
  Q 195.23 275.47 195.74 275.69
  Q 197.20 276.32 198.71 275.84
  A 1.15 1.12 -37.1 0 1 199.68 275.96
  Q 200.99 276.81 202.48 276.45
  Q 203.04 276.32 203.60 276.41
  Q 207.46 277.03 210.64 274.91
  A 0.90 0.89 40.8 0 1 211.52 274.85
  L 213.62 275.89
  A 1.01 1.01 0.0 0 0 214.38 275.94
  Q 217.00 275.08 219.75 275.11
  Q 220.04 275.12 220.22 275.02
  Q 220.46 274.89 220.67 274.68
  Q 221.06 274.30 221.60 274.22
  Q 225.42 273.70 228.57 271.35
  Q 228.99 271.03 228.87 270.52
  L 228.06 267.19
  Q 227.96 266.77 227.53 266.71
  C 225.37 266.35 224.38 267.89 222.79 268.39
  Q 213.83 271.24 204.12 271.07
  A 1.14 1.13 81.7 0 0 203.02 272.55
  Q 203.42 273.79 203.24 275.03
  Q 203.11 275.99 202.86 275.05
  Z"
/>
<path fill="#b8a8d0" d="
  M 181.64 164.94
  L 181.02 164.86
  Q 180.38 164.79 180.81 164.31
  Q 181.50 163.54 182.47 163.23
  Q 183.14 163.03 183.42 163.66
  L 185.18 167.54
  A 0.38 0.38 0.0 0 1 184.63 168.02
  Q 183.11 167.08 182.34 165.44
  Q 182.13 165.00 181.64 164.94
  Z"
/>
<path fill="#b8a8d0" d="
  M 231.53 165.02
  L 230.38 168.87
  Q 230.26 169.30 229.81 169.23
  Q 228.18 168.95 227.53 167.54
  C 226.96 166.29 227.75 165.17 227.66 163.70
  A 0.39 0.39 0.0 0 1 228.21 163.31
  L 231.43 164.79
  Q 231.58 164.86 231.53 165.02
  Z"
/>
<path fill="#b8a8d0" d="
  M 191.99 164.41
  L 192.52 164.97
  A 0.52 0.52 0.0 0 1 191.88 165.77
  Q 191.02 165.27 191.12 164.26
  A 0.19 0.19 0.0 0 1 191.48 164.21
  Q 191.57 164.45 191.79 164.36
  A 0.19 0.18 -29.4 0 1 191.99 164.41
  Z"
/>
<path fill="#b8a8d0" d="
  M 241.47 169.48
  L 241.61 168.30
  A 0.51 0.51 0.0 0 1 242.40 167.93
  L 243.07 168.38
  Q 243.78 168.86 243.07 169.33
  Q 242.03 170.03 242.35 171.54
  A 0.80 0.79 72.1 0 1 241.89 172.44
  Q 240.31 173.13 239.99 174.80
  A 0.46 0.46 0.0 0 1 239.31 175.12
  L 238.92 174.90
  A 0.48 0.48 0.0 0 1 238.92 174.06
  Q 240.28 173.29 240.42 171.74
  A 0.70 0.69 -72.9 0 0 240.07 171.07
  L 237.68 169.74
  A 0.17 0.17 0.0 0 0 237.43 169.92
  L 238.02 173.09
  Q 238.14 173.73 237.50 173.86
  L 237.06 173.94
  A 0.57 0.57 0.0 0 1 236.38 173.37
  L 236.43 168.88
  A 0.72 0.72 0.0 0 0 235.11 168.47
  L 233.63 170.72
  A 0.78 0.77 -53.8 0 1 232.51 170.90
  L 231.77 170.31
  Q 231.35 169.98 231.83 169.74
  Q 234.29 168.54 234.24 165.59
  Q 234.23 165.01 234.80 165.13
  L 235.70 165.31
  Q 236.23 165.41 236.22 165.95
  L 236.21 166.90
  A 0.78 0.76 -75.8 0 0 236.62 167.60
  L 240.74 169.85
  A 0.50 0.49 18.0 0 0 241.47 169.48
  Z"
/>
<path fill="#b8a8d0" d="
  M 247.61 176.56
  Q 246.96 176.70 246.91 176.86
  L 245.36 175.17
  A 0.69 0.69 0.0 0 0 244.48 175.07
  L 242.50 176.40
  A 0.61 0.61 0.0 0 1 241.69 175.50
  L 243.82 172.99
  Q 244.22 172.52 244.69 172.92
  Q 246.70 174.63 247.61 176.56
  Z"
/>
<path fill="#b8a8d0" d="
  M 252.72 183.86
  Q 252.22 181.96 249.60 181.56
  Q 250.82 179.72 252.98 182.52
  Q 253.99 183.82 252.72 183.86
  Z"
/>
<path fill="#b8a8d0" d="
  M 250.66 184.59
  Q 251.32 184.31 252.04 184.48
  Q 251.40 185.56 250.27 186.18
  Q 249.79 186.44 249.84 185.90
  Q 249.94 184.96 250.66 184.59
  Z"
/>
<path fill="#b8a8d0" d="
  M 254.72 191.05
  L 254.38 191.95
  A 0.30 0.30 0.0 0 1 253.92 192.08
  L 253.64 191.88
  Q 253.14 191.49 253.55 191.01
  C 254.61 189.78 257.99 187.04 259.73 187.66
  Q 260.39 187.90 260.42 188.51
  Q 260.44 188.93 260.15 188.64
  L 259.93 188.42
  Q 259.81 188.30 259.66 188.37
  L 255.25 190.47
  Q 254.87 190.65 254.72 191.05
  Z"
/>
<ellipse fill="#204396" cx="0.00" cy="0.00" transform="translate(155.42,188.97) rotate(80.5)" rx="0.90" ry="0.48"/>
<path fill="#204396" d="
  M 154.05 195.45
  Q 154.36 196.22 153.53 196.20
  Q 152.16 196.17 151.50 195.00
  A 0.55 0.54 -29.6 0 1 151.71 194.26
  L 152.58 193.77
  Q 153.23 193.41 153.50 194.10
  L 154.05 195.45
  Z"
/>
<path fill="#b8a8d0" d="
  M 258.53 194.50
  Q 258.81 193.66 259.60 193.87
  A 0.77 0.77 0.0 0 1 259.77 195.29
  L 256.56 197.04
  A 0.37 0.37 0.0 0 1 256.06 196.52
  Q 256.67 195.49 257.89 195.12
  Q 258.38 194.98 258.53 194.50
  Z"
/>
<path fill="#b8a8d0" d="
  M 261.41 229.57
  L 259.80 229.13
  Q 259.42 229.04 259.21 228.77
  Q 259.04 228.55 259.11 228.17
  Q 259.41 226.49 260.15 224.81
  A 0.71 0.71 0.0 0 1 260.90 224.40
  L 263.99 224.86
  A 1.40 1.40 0.0 0 1 263.87 227.64
  Q 262.38 227.74 261.41 229.57
  Z"
/>
<path fill="#204396" d="
  M 254.19 247.36
  L 253.99 246.29
  A 0.44 0.44 0.0 0 1 254.79 245.98
  L 255.55 247.22
  A 0.92 0.75 9.4 0 1 254.12 248.04
  Q 254.04 247.98 254.14 247.77
  Q 254.23 247.57 254.19 247.36
  Z"
/>
<path fill="#204396" d="
  M 254.43 249.36
  A 0.45 0.44 -23.4 0 1 254.15 250.05
  Q 252.37 250.42 251.25 249.04
  Q 250.87 248.57 251.45 248.42
  Q 253.40 247.92 254.43 249.36
  Z"
/>
<path fill="#b8a8d0" d="
  M 251.11 254.77
  Q 249.41 256.59 248.09 258.25
  Q 247.32 259.21 246.62 259.34
  Q 245.75 259.51 244.64 259.13
  Q 247.08 256.36 251.11 254.77
  Z"
/>
<ellipse fill="#204396" cx="0.00" cy="0.00" transform="translate(233.40,267.09) rotate(21.1)" rx="0.86" ry="0.71"/>
<path fill="#204396" d="
  M 266.34 330.87
  C 261.56 335.87 261.80 349.50 268.89 352.53
  Q 279.56 357.08 283.92 347.03
  A 1.13 1.13 0.0 0 1 285.28 346.40
  L 290.92 348.12
  A 1.55 1.54 24.1 0 1 291.80 350.40
  Q 284.89 361.71 271.23 359.94
  C 257.70 358.19 251.39 345.32 256.23 333.10
  C 259.35 325.23 265.60 322.28 273.74 321.67
  C 280.41 321.16 289.90 324.47 291.63 331.79
  Q 291.78 332.42 291.15 332.56
  L 284.99 333.93
  A 0.98 0.97 -21.5 0 1 283.93 333.47
  C 280.29 327.22 271.47 325.52 266.34 330.87
  Z"
/>
<path fill="#204396" d="
  M 143.45 344.87
  L 143.42 323.00
  A 0.58 0.58 0.0 0 1 144.00 322.42
  L 151.04 322.31
  A 0.47 0.47 0.0 0 1 151.51 322.77
  Q 151.70 338.45 151.49 353.25
  Q 151.43 357.02 151.06 359.13
  A 0.68 0.67 6.2 0 1 150.36 359.69
  L 143.17 359.37
  A 0.80 0.76 71.5 0 1 142.57 359.05
  L 126.57 337.11
  A 0.91 0.91 0.0 0 0 124.92 337.66
  L 125.30 358.37
  A 1.41 1.41 0.0 0 1 123.88 359.81
  L 119.04 359.76
  Q 116.83 359.75 116.85 357.54
  L 117.17 322.96
  A 0.38 0.37 -1.6 0 1 117.53 322.59
  L 124.84 322.20
  Q 125.35 322.17 125.65 322.60
  L 141.72 345.42
  A 0.95 0.95 0.0 0 0 143.45 344.87
  Z"
/>
<path fill="#204396" d="
  M 168.72 334.47
  Q 168.75 345.53 168.71 357.25
  Q 168.70 359.64 166.65 359.62
  Q 164.27 359.60 161.96 359.27
  A 0.75 0.74 87.7 0 1 161.33 358.68
  Q 160.82 356.30 160.86 353.88
  Q 161.10 338.43 160.93 323.19
  A 0.84 0.84 0.0 0 1 161.77 322.35
  L 173.09 322.32
  A 1.05 1.03 -8.2 0 1 174.09 323.06
  Q 177.56 334.30 181.17 345.70
  Q 181.35 346.27 181.66 346.37
  A 1.03 0.97 -72.8 0 0 182.90 345.67
  L 189.82 323.00
  A 0.77 0.75 -81.0 0 1 190.54 322.46
  L 202.34 322.49
  A 0.67 0.67 0.0 0 1 203.01 323.16
  Q 202.93 338.40 202.99 353.48
  Q 203.00 355.60 202.53 358.90
  A 0.68 0.67 -86.9 0 1 201.89 359.48
  L 196.95 359.65
  Q 195.22 359.71 195.21 357.97
  Q 195.14 346.58 195.06 334.50
  Q 195.06 333.72 194.54 333.48
  A 0.67 0.67 0.0 0 0 193.61 333.90
  L 186.31 358.04
  A 2.05 2.05 0.0 0 1 184.45 359.49
  Q 182.33 359.59 179.73 359.50
  Q 177.69 359.42 177.14 357.41
  Q 174.04 346.02 170.50 334.20
  A 0.91 0.91 0.0 0 0 168.72 334.47
  Z"
/>
<path fill="#204396" d="
  M 212.16 323.46
  A 1.19 1.19 0.0 0 1 213.35 322.27
  L 231.19 322.30
  A 16.95 16.91 -89.9 0 1 248.07 339.28
  L 248.07 342.56
  A 16.95 16.91 -89.9 0 1 231.13 359.48
  L 213.29 359.45
  A 1.19 1.19 0.0 0 1 212.10 358.26
  L 212.16 323.46
  Z
  M 220.19 329.74
  L 220.19 352.06
  A 1.53 1.53 0.0 0 0 221.72 353.59
  L 230.17 353.59
  A 9.93 9.54 -90.0 0 0 239.71 343.66
  L 239.71 338.14
  A 9.93 9.54 90.0 0 0 230.17 328.21
  L 221.72 328.21
  A 1.53 1.53 0.0 0 0 220.19 329.74
  Z"
/>
</svg>
