<?xml version="1.0" encoding="UTF-8" standalone="no"?>
<!DOCTYPE svg PUBLIC "-//W3C//DTD SVG 1.1//EN" "http://www.w3.org/Graphics/SVG/1.1/DTD/svg11.dtd">
<svg xmlns="http://www.w3.org/2000/svg" version="1.1" viewBox="0.00 0.00 280.00 151.00">
<path fill="#0082c8" d="
  M 275.1958 124.5641
  A 21.42 21.42 0.0 0 1 253.8133 146.0214
  L 26.4136 146.4183
  A 21.42 21.42 0.0 0 1 4.9563 125.0358
  L 4.7842 26.4359
  A 21.42 21.42 0.0 0 1 26.1667 4.9786
  L 253.5664 4.5817
  A 21.42 21.42 0.0 0 1 275.0237 25.9642
  L 275.1958 124.5641
  Z
  M 265.39 29.42
  A 13.90 13.90 0.0 0 0 251.49 15.52
  L 30.15 15.52
  A 13.90 13.90 0.0 0 0 16.25 29.42
  L 16.25 121.72
  A 13.90 13.90 0.0 0 0 30.15 135.62
  L 251.49 135.62
  A 13.90 13.90 0.0 0 0 265.39 121.72
  L 265.39 29.42
  Z"
/>
<path fill="#0082c8" d="
  M 130.95 48.63
  L 129.54 48.62
  Q 128.92 48.62 128.80 49.22
  L 125.94 62.96
  Q 125.85 63.36 125.44 63.38
  Q 120.18 63.62 115.02 63.76
  Q 112.11 63.83 112.24 66.31
  A 1.52 1.52 0.0 0 0 113.76 67.76
  L 124.44 67.79
  Q 124.98 67.79 124.89 68.33
  L 123.14 77.95
  Q 123.06 78.38 122.62 78.45
  Q 112.57 80.07 104.49 76.50
  C 98.72 73.95 96.50 67.37 99.22 61.76
  C 102.16 55.68 109.88 53.44 116.22 53.53
  Q 116.77 53.54 116.88 53.00
  L 117.66 49.20
  Q 117.78 48.63 117.20 48.63
  L 105.99 48.63
  A 0.33 0.33 0.0 0 1 105.67 48.23
  L 107.27 40.59
  Q 107.37 40.08 107.90 40.08
  L 113.74 40.11
  A 0.69 0.68 7.8 0 0 114.40 39.61
  Q 115.82 34.66 117.39 29.83
  C 117.95 28.10 119.09 27.38 120.76 27.12
  Q 129.98 25.72 139.21 26.75
  C 146.72 27.60 145.14 34.49 144.68 39.54
  Q 144.62 40.19 145.28 40.15
  L 147.24 40.01
  Q 147.76 39.97 147.65 40.48
  L 145.99 48.09
  Q 145.88 48.55 145.41 48.56
  L 142.56 48.62
  Q 142.12 48.63 142.04 49.07
  L 137.10 77.38
  Q 137.01 77.90 136.49 77.91
  L 126.23 78.04
  Q 125.75 78.05 125.85 77.58
  L 131.42 49.20
  Q 131.53 48.63 130.95 48.63
  Z
  M 133.2535 38.7815
  A 0.87 0.87 0.0 0 0 132.3957 37.8994
  L 128.1961 37.8408
  A 0.87 0.87 0.0 0 0 127.3141 38.6986
  L 127.3065 39.2385
  A 0.87 0.87 0.0 0 0 128.1643 40.1206
  L 132.3639 40.1792
  A 0.87 0.87 0.0 0 0 133.2459 39.3214
  L 133.2535 38.7815
  Z"
/>
<path fill="#0082c8" d="
  M 149.86 48.64
  L 148.81 48.58
  Q 148.28 48.55 148.39 48.03
  L 150.03 40.59
  Q 150.14 40.09 150.66 40.09
  L 164.53 40.09
  A 0.98 0.97 -82.2 0 0 165.47 39.37
  Q 166.91 34.20 168.56 29.07
  Q 169.10 27.38 171.99 26.90
  Q 176.93 26.08 189.54 26.74
  C 197.72 27.17 196.04 34.11 195.67 39.54
  Q 195.63 40.17 196.26 40.12
  L 196.96 40.06
  Q 197.67 40.01 197.51 40.71
  L 195.88 48.06
  Q 195.75 48.63 195.17 48.63
  L 194.31 48.63
  Q 193.73 48.63 193.61 49.20
  L 187.64 77.38
  Q 187.53 77.91 186.99 77.91
  L 177.26 78.03
  Q 176.73 78.04 176.83 77.52
  L 182.36 49.31
  Q 182.49 48.63 181.80 48.62
  L 180.25 48.62
  Q 179.60 48.62 179.47 49.25
  L 173.49 77.39
  Q 173.39 77.90 172.86 77.90
  L 162.74 78.04
  Q 162.16 78.04 162.27 77.48
  L 163.94 68.97
  A 0.39 0.39 0.0 0 0 163.36 68.55
  C 158.20 71.58 146.88 73.99 147.61 64.36
  Q 148.02 58.83 150.38 49.35
  Q 150.55 48.68 149.86 48.64
  Z
  M 184.22 38.89
  A 1.02 1.02 0.0 0 0 183.20 37.87
  L 179.24 37.87
  A 1.02 1.02 0.0 0 0 178.22 38.89
  L 178.22 39.13
  A 1.02 1.02 0.0 0 0 179.24 40.15
  L 183.20 40.15
  A 1.02 1.02 0.0 0 0 184.22 39.13
  L 184.22 38.89
  Z
  M 167.7314 49.2188
  A 0.26 0.26 0.0 0 0 167.5210 48.9173
  L 163.1105 48.1316
  A 0.26 0.26 0.0 0 0 162.8089 48.3420
  L 160.9886 58.5612
  A 0.26 0.26 0.0 0 0 161.1990 58.8627
  L 165.6095 59.6484
  A 0.26 0.26 0.0 0 0 165.9111 59.4380
  L 167.7314 49.2188
  Z"
/>
<path fill="#0082c8" d="
  M 235.72 48.63
  L 234.03 48.62
  Q 233.41 48.62 233.28 49.22
  L 227.32 77.47
  Q 227.23 77.89 226.79 77.90
  L 216.51 78.04
  Q 215.97 78.05 216.07 77.52
  L 218.52 65.25
  Q 218.64 64.60 217.99 64.61
  L 208.67 64.63
  A 0.61 0.61 0.0 0 0 208.27 65.70
  L 213.10 69.93
  Q 213.52 70.31 213.18 70.76
  L 208.00 77.54
  Q 207.68 77.96 207.24 77.68
  L 191.43 67.50
  A 0.63 0.62 -59.6 0 1 191.22 66.68
  L 194.16 61.02
  Q 194.38 60.58 194.84 60.41
  C 199.86 58.55 203.94 53.05 199.06 48.54
  Q 198.70 48.21 198.80 47.74
  L 200.40 40.54
  Q 200.50 40.09 200.96 40.09
  L 218.50 40.10
  A 0.68 0.68 0.0 0 0 219.15 39.62
  Q 220.74 34.47 222.21 29.49
  Q 222.91 27.15 226.13 26.94
  Q 234.71 26.39 243.30 26.74
  C 251.44 27.07 249.97 34.13 249.43 39.52
  Q 249.37 40.18 250.03 40.13
  L 250.58 40.08
  Q 251.40 40.01 251.24 40.82
  L 249.75 48.09
  A 0.62 0.62 0.0 0 1 249.17 48.58
  L 248.08 48.62
  Q 247.53 48.63 247.42 49.17
  L 241.47 77.39
  Q 241.37 77.89 240.85 77.90
  L 231.06 78.04
  Q 230.54 78.05 230.64 77.55
  L 236.20 49.21
  Q 236.31 48.63 235.72 48.63
  Z
  M 238.0022 38.7658
  A 0.86 0.86 0.0 0 0 237.1498 37.8984
  L 232.9499 37.8617
  A 0.86 0.86 0.0 0 0 232.0825 38.7142
  L 232.0778 39.2542
  A 0.86 0.86 0.0 0 0 232.9302 40.1216
  L 237.1301 40.1583
  A 0.86 0.86 0.0 0 0 237.9975 39.3058
  L 238.0022 38.7658
  Z
  M 220.18 55.48
  A 0.30 0.30 0.0 0 0 220.48 55.24
  L 221.66 48.98
  A 0.30 0.30 0.0 0 0 221.37 48.63
  L 214.76 48.60
  A 0.30 0.30 0.0 0 0 214.48 48.79
  L 211.97 55.08
  A 0.30 0.30 0.0 0 0 212.24 55.49
  L 220.18 55.48
  Z"
/>
<path fill="#0082c8" d="
  M 82.50 64.95
  L 77.75 64.91
  A 0.66 0.66 0.0 0 0 77.09 65.44
  C 76.12 70.15 72.02 74.23 67.22 70.58
  Q 64.73 68.68 63.17 65.17
  Q 62.98 64.74 63.07 64.28
  L 64.60 56.31
  Q 64.70 55.81 65.20 55.81
  L 84.69 55.64
  Q 85.30 55.63 85.45 55.05
  L 86.93 49.22
  Q 87.09 48.62 86.47 48.62
  L 64.52 48.63
  Q 64.03 48.63 63.94 49.11
  C 62.33 56.84 59.94 63.46 53.41 68.22
  A 0.92 0.92 0.0 0 1 52.32 68.20
  L 47.32 64.37
  Q 46.85 64.02 47.22 63.56
  Q 52.28 57.33 51.06 49.15
  Q 50.98 48.63 50.46 48.63
  L 46.01 48.62
  Q 45.49 48.62 45.39 49.14
  L 42.64 63.78
  A 0.84 0.83 24.9 0 0 42.95 64.60
  L 53.73 73.00
  Q 54.23 73.39 53.91 73.93
  L 49.36 81.55
  Q 49.05 82.08 48.52 81.77
  L 29.38 70.56
  Q 28.88 70.27 28.98 69.70
  L 32.46 49.27
  Q 32.56 48.74 32.02 48.68
  L 31.03 48.56
  Q 30.53 48.50 30.64 48.02
  L 32.29 40.59
  Q 32.40 40.10 32.91 40.10
  L 103.84 40.09
  Q 104.34 40.09 104.24 40.59
  L 102.70 48.05
  Q 102.57 48.65 101.96 48.64
  L 99.82 48.59
  Q 99.20 48.58 99.05 49.19
  L 92.03 77.57
  Q 91.91 78.04 91.42 78.04
  L 80.43 78.05
  Q 79.79 78.05 79.94 77.43
  L 82.93 65.50
  Q 83.06 64.96 82.50 64.95
  Z"
/>
<path fill="#0082c8" d="
  M 198.43 122.34
  C 191.97 119.50 186.93 113.27 186.52 106.20
  C 185.91 95.63 196.13 87.92 205.75 86.25
  C 217.54 84.22 231.29 89.28 235.13 101.56
  Q 235.32 102.14 234.71 102.15
  L 219.57 102.33
  Q 219.16 102.33 218.88 102.03
  Q 212.63 95.38 206.02 99.61
  C 196.20 105.88 208.14 117.74 217.26 110.42
  Q 217.66 110.10 218.17 110.09
  L 234.25 109.76
  Q 234.77 109.75 234.63 110.25
  Q 233.24 115.21 230.67 117.44
  Q 216.14 130.11 198.43 122.34
  Z"
/>
<path fill="#0082c8" d="
  M 62.29 107.79
  L 59.37 125.72
  A 0.31 0.31 0.0 0 1 59.07 125.98
  L 45.19 125.98
  A 0.31 0.31 0.0 0 1 44.89 125.61
  L 52.90 86.48
  A 0.31 0.31 0.0 0 1 53.20 86.23
  L 68.55 86.23
  A 0.31 0.31 0.0 0 1 68.82 86.40
  L 78.87 107.07
  A 0.31 0.31 0.0 0 0 79.45 106.99
  L 83.34 86.48
  A 0.31 0.31 0.0 0 1 83.65 86.23
  L 97.40 86.23
  A 0.31 0.31 0.0 0 1 97.70 86.61
  L 88.81 125.74
  A 0.31 0.31 0.0 0 1 88.51 125.98
  L 72.96 125.98
  A 0.31 0.31 0.0 0 1 72.69 125.82
  L 62.87 107.69
  A 0.31 0.31 0.0 0 0 62.29 107.79
  Z"
/>
<path fill="#0082c8" d="
  M 110.77 99.51
  L 99.89 99.51
  A 0.31 0.31 0.0 0 1 99.59 99.14
  L 102.26 86.48
  A 0.31 0.31 0.0 0 1 102.56 86.23
  L 141.02 86.23
  A 0.31 0.31 0.0 0 1 141.32 86.60
  L 138.62 99.25
  A 0.31 0.31 0.0 0 1 138.32 99.50
  L 125.51 99.51
  A 0.31 0.31 0.0 0 0 125.21 99.75
  L 119.44 125.75
  A 0.31 0.31 0.0 0 1 119.14 125.99
  L 106.83 125.98
  A 0.31 0.31 0.0 0 1 106.52 125.62
  L 111.08 99.87
  A 0.31 0.31 0.0 0 0 110.77 99.51
  Z"
/>
<path fill="#0082c8" d="
  M 152.91 117.46
  L 151.08 125.51
  Q 150.98 125.98 150.49 125.98
  L 138.03 125.99
  A 0.40 0.40 0.0 0 1 137.64 125.52
  L 145.51 86.76
  A 0.64 0.64 0.0 0 1 146.14 86.24
  Q 154.50 86.21 162.86 86.20
  Q 170.25 86.19 173.47 87.48
  C 177.74 89.18 182.92 94.01 183.01 99.09
  C 183.14 106.18 180.62 112.58 174.10 115.48
  C 168.77 117.86 159.82 116.92 153.61 116.90
  Q 153.04 116.90 152.91 117.46
  Z
  M 166.86 99.06
  L 158.13 98.81
  Q 157.56 98.79 157.43 99.34
  L 156.36 103.81
  Q 156.23 104.37 156.81 104.40
  C 160.07 104.58 167.06 105.44 168.55 101.61
  A 1.87 1.87 0.0 0 0 166.86 99.06
  Z"
/>
</svg>
