<?xml version="1.0" encoding="UTF-8" standalone="no"?>
<!DOCTYPE svg PUBLIC "-//W3C//DTD SVG 1.1//EN" "http://www.w3.org/Graphics/SVG/1.1/DTD/svg11.dtd">
<svg xmlns="http://www.w3.org/2000/svg" version="1.1" viewBox="0.00 0.00 1600.00 1006.00">
<path fill="#bfa161" d="
  M 520.36 318.88
  C 504.97 256.82 517.72 192.02 557.53 141.55
  C 580.49 112.44 610.83 88.60 645.20 74.65
  Q 660.20 68.56 672.26 65.08
  C 688.53 60.39 702.45 58.77 718.00 56.88
  C 734.93 54.82 749.05 56.38 766.12 58.79
  C 798.37 63.35 828.29 73.37 855.99 90.32
  C 902.05 118.49 936.64 167.22 950.21 218.99
  Q 956.34 242.35 955.80 268.99
  C 954.49 333.31 924.64 392.95 873.33 432.32
  Q 863.52 439.84 856.34 442.70
  Q 838.11 449.95 818.28 442.98
  C 814.25 441.56 810.44 438.23 807.15 434.65
  Q 764.06 387.83 720.34 340.92
  Q 719.62 340.15 720.66 340.35
  C 748.50 345.72 779.75 329.92 793.15 305.57
  C 803.38 286.97 803.59 262.40 792.56 243.46
  C 785.47 231.30 773.25 222.55 760.00 217.81
  C 693.17 193.87 631.93 244.29 619.34 308.01
  C 611.06 349.94 617.15 393.12 632.31 432.81
  Q 638.79 449.77 649.57 463.76
  Q 650.22 464.61 649.23 464.19
  C 586.93 437.95 536.97 385.88 520.36 318.88
  Z"
/>
<path fill="#bfa161" d="
  M 661.74 357.59
  Q 677.66 325.68 685.30 291.08
  A 0.20 0.20 0.0 0 1 685.70 291.11
  C 686.42 304.67 691.02 317.61 696.48 329.88
  Q 705.08 349.20 713.34 368.67
  Q 726.49 399.69 712.51 429.23
  Q 703.23 448.82 686.20 465.44
  Q 685.92 465.72 685.63 465.44
  C 662.62 443.21 640.44 408.43 653.32 375.80
  Q 655.83 369.43 661.74 357.59
  Z"
/>
<ellipse fill="#1f1917" cx="0.00" cy="0.00" transform="translate(683.54,524.55) rotate(119.0)" rx="21.79" ry="21.43"/>
<path fill="#1f1917" d="
  M 210.04 642.83
  Q 209.93 680.16 210.33 717.51
  Q 210.46 730.08 222.68 732.56
  Q 232.67 734.59 242.83 734.92
  Q 243.39 734.94 243.39 735.50
  L 243.42 745.75
  Q 243.42 746.68 242.50 746.68
  L 141.59 746.67
  Q 141.00 746.67 141.00 746.09
  L 141.01 735.47
  Q 141.01 734.83 141.65 734.80
  Q 156.10 734.14 161.26 732.72
  Q 173.67 729.33 173.72 716.50
  Q 173.87 677.64 173.70 550.43
  C 173.69 541.50 172.58 534.86 163.79 532.07
  Q 153.75 528.89 141.69 528.13
  Q 141.00 528.08 141.01 527.40
  L 141.02 516.92
  A 0.75 0.74 69.1 0 1 141.26 516.37
  Q 141.84 515.86 142.23 516.20
  Q 142.54 516.47 142.96 516.47
  Q 197.86 516.47 252.75 516.45
  C 287.42 516.43 329.80 529.14 329.05 572.26
  Q 328.52 602.14 305.51 617.80
  C 295.82 624.39 282.85 629.82 270.86 632.97
  A 0.46 0.46 0.0 0 0 270.61 633.70
  Q 298.40 669.28 325.70 704.58
  Q 334.30 715.71 338.24 719.48
  C 348.70 729.50 360.84 734.61 375.81 734.75
  A 0.66 0.66 0.0 0 1 376.46 735.41
  L 376.49 745.97
  Q 376.49 746.67 375.78 746.67
  L 312.46 746.69
  A 1.97 1.96 -16.6 0 1 310.82 745.81
  Q 275.65 692.45 235.17 643.00
  A 2.14 2.13 -19.7 0 0 233.52 642.22
  L 210.67 642.20
  Q 210.04 642.20 210.04 642.83
  Z
  M 233.79 628.19
  C 263.42 627.40 284.98 608.91 286.90 578.85
  C 288.39 555.69 277.54 537.04 254.19 531.40
  Q 247.91 529.88 244.75 529.78
  Q 233.46 529.41 210.54 529.74
  Q 210.04 529.74 210.04 530.24
  L 210.04 627.75
  Q 210.04 628.27 210.56 628.28
  Q 222.44 628.49 233.79 628.19
  Z"
/>
<path fill="#1f1917" d="
  M 561.56 531.66
  C 556.70 528.12 545.85 529.71 540.46 531.18
  A 1.02 1.02 0.0 0 1 539.17 530.22
  L 538.94 520.21
  Q 538.93 519.61 539.53 519.58
  L 596.72 516.61
  A 3.81 3.80 88.5 0 1 600.72 520.41
  Q 600.71 617.77 600.61 716.00
  Q 600.60 721.36 601.77 724.99
  C 604.31 732.88 616.56 735.64 623.77 736.08
  A 1.11 1.11 0.0 0 1 624.82 737.19
  L 624.82 746.12
  A 0.56 0.56 0.0 0 1 624.26 746.68
  L 546.58 746.68
  Q 545.97 746.68 545.97 746.08
  L 545.98 736.52
  A 0.55 0.55 0.0 0 1 546.52 735.97
  C 558.81 735.70 570.42 734.92 570.22 720.00
  Q 569.10 635.50 567.49 551.00
  C 567.35 544.10 566.53 535.28 561.56 531.66
  Z"
/>
<path fill="#1f1917" d="
  M 415.29 662.13
  C 414.81 684.95 420.84 712.54 441.72 725.42
  C 453.44 732.65 468.42 734.30 481.97 731.91
  C 498.95 728.91 509.82 716.85 517.92 702.33
  Q 518.18 701.88 518.63 702.14
  L 529.78 708.68
  A 0.48 0.48 0.0 0 1 529.96 709.33
  C 515.48 735.38 490.89 750.83 460.75 750.80
  C 427.69 750.77 398.70 734.31 387.50 702.24
  C 377.81 674.50 379.01 643.26 394.46 617.96
  C 412.81 587.92 444.84 576.94 478.48 584.18
  Q 498.16 588.42 510.59 602.81
  C 524.58 618.99 526.84 640.78 526.13 661.20
  Q 526.12 661.57 525.75 661.57
  L 415.86 661.57
  Q 415.30 661.57 415.29 662.13
  Z
  M 452.72 594.69
  C 426.64 598.05 415.59 624.14 415.33 647.33
  Q 415.32 647.98 415.97 647.98
  L 492.21 647.98
  A 0.43 0.42 -0.7 0 0 492.64 647.55
  C 492.37 622.19 485.68 590.44 452.72 594.69
  Z"
/>
<path fill="#1f1917" d="
  M 846.80 727.21
  A 0.81 0.81 0.0 0 0 845.42 726.80
  C 836.78 735.90 826.30 743.59 814.43 747.31
  C 797.63 752.57 776.34 752.76 761.91 740.90
  Q 747.18 728.79 748.29 707.76
  C 749.63 682.55 766.97 671.60 789.15 664.37
  C 807.85 658.27 826.71 652.47 844.89 644.97
  A 1.61 1.61 0.0 0 0 845.88 643.53
  C 846.22 630.26 846.89 617.04 838.86 605.68
  C 827.97 590.29 804.73 591.29 790.48 600.95
  Q 789.32 601.74 789.80 603.52
  C 790.73 606.95 791.36 610.66 792.07 614.16
  Q 793.39 620.70 792.94 623.94
  Q 791.71 632.91 782.18 636.46
  C 772.11 640.20 762.10 638.37 757.83 627.51
  C 751.54 611.52 766.08 598.07 779.36 591.38
  Q 800.40 580.77 823.69 582.20
  C 832.29 582.73 841.30 583.29 848.76 586.06
  C 873.55 595.27 878.26 615.36 877.82 639.50
  Q 877.13 677.00 876.94 714.50
  Q 876.88 725.72 884.80 730.61
  C 890.06 733.85 898.43 733.42 904.66 733.08
  A 0.79 0.79 0.0 0 1 905.49 733.87
  L 905.52 742.97
  A 0.92 0.91 79.9 0 1 904.92 743.83
  Q 894.10 747.61 890.01 748.53
  C 871.98 752.57 850.76 748.45 846.80 727.21
  Z
  M 796.69 730.59
  C 815.00 737.17 833.04 728.47 844.97 714.19
  A 1.56 1.53 -25.0 0 0 845.33 713.23
  L 846.18 659.56
  Q 846.20 658.15 844.84 658.51
  Q 826.67 663.27 811.10 670.14
  C 793.74 677.79 780.45 690.58 782.44 711.23
  Q 783.86 725.98 796.69 730.59
  Z"
/>
<path fill="#1f1917" d="
  M 1190.32 598.09
  C 1179.25 603.50 1171.15 617.08 1167.77 628.50
  C 1162.86 645.11 1161.51 664.08 1163.98 680.97
  C 1166.59 698.72 1175.64 718.82 1192.34 727.66
  C 1207.84 735.87 1228.93 734.48 1243.08 724.10
  Q 1253.20 716.67 1261.52 702.82
  A 0.56 0.56 0.0 0 1 1262.30 702.64
  L 1272.31 708.93
  Q 1272.77 709.22 1272.49 709.69
  Q 1255.31 738.48 1224.76 748.01
  C 1211.38 752.19 1195.05 751.41 1181.45 747.87
  C 1156.40 741.36 1138.58 721.64 1131.85 696.73
  C 1122.88 663.51 1128.36 626.34 1155.01 602.13
  C 1176.02 583.05 1206.67 577.22 1233.50 586.01
  C 1243.27 589.21 1253.75 596.49 1258.49 605.59
  C 1263.28 614.76 1265.05 625.59 1260.62 635.63
  Q 1257.42 642.90 1249.74 644.24
  C 1238.90 646.12 1227.05 642.01 1224.48 630.29
  Q 1223.87 627.49 1225.75 618.55
  Q 1227.30 611.13 1228.95 603.74
  C 1229.67 600.54 1222.58 596.91 1220.44 596.17
  C 1211.35 593.00 1198.80 593.94 1190.32 598.09
  Z"
/>
<path fill="#1f1917" d="
  M 1319.83 662.23
  C 1319.37 690.66 1329.02 724.16 1361.11 731.33
  C 1373.23 734.04 1387.05 733.62 1398.40 728.02
  C 1408.61 722.98 1416.97 712.54 1422.63 702.37
  A 0.46 0.45 -59.9 0 1 1423.26 702.20
  L 1434.55 708.75
  A 0.58 0.58 0.0 0 1 1434.75 709.56
  Q 1432.79 712.60 1429.24 717.66
  C 1408.59 747.13 1375.10 756.63 1341.07 747.50
  C 1307.74 738.55 1291.09 712.12 1286.78 679.41
  C 1283.88 657.41 1288.27 633.96 1300.69 615.36
  Q 1324.51 579.69 1370.24 582.21
  C 1397.34 583.69 1419.52 598.62 1427.03 625.32
  Q 1432.01 642.99 1430.45 661.14
  Q 1430.42 661.57 1429.99 661.57
  L 1320.50 661.57
  Q 1319.84 661.57 1319.83 662.23
  Z
  M 1388.38 607.70
  C 1382.95 599.76 1376.02 595.38 1366.00 594.61
  C 1334.41 592.21 1320.70 620.57 1319.86 647.35
  Q 1319.84 647.97 1320.46 647.97
  L 1396.74 647.99
  A 0.40 0.40 0.0 0 0 1397.14 647.60
  C 1397.44 635.14 1395.36 617.90 1388.38 607.70
  Z"
/>
<path fill="#1f1917" d="
  M 979.31 609.61
  C 985.08 604.06 991.70 597.76 997.73 593.65
  Q 1018.80 579.30 1045.26 582.87
  C 1071.82 586.46 1082.98 609.24 1082.99 633.75
  Q 1083.03 676.00 1083.01 718.25
  C 1083.01 723.96 1084.48 728.60 1089.77 731.43
  Q 1097.65 735.63 1106.79 735.81
  Q 1107.25 735.82 1107.25 736.28
  L 1107.25 746.09
  A 0.59 0.58 0.0 0 1 1106.66 746.67
  L 1025.99 746.68
  A 0.95 0.94 -0.0 0 1 1025.04 745.74
  L 1025.03 736.48
  Q 1025.03 735.97 1025.55 735.93
  C 1033.15 735.36 1045.38 735.91 1049.36 727.07
  Q 1050.80 723.87 1050.78 714.25
  Q 1050.72 673.49 1050.76 632.75
  Q 1050.77 628.09 1048.11 620.86
  C 1039.76 598.13 1017.48 598.40 998.84 607.10
  Q 986.16 613.02 978.92 625.05
  Q 978.50 625.74 978.50 626.55
  Q 978.46 668.86 978.51 711.23
  C 978.52 720.07 978.10 726.67 985.13 730.90
  Q 992.49 735.32 1003.75 735.66
  A 0.64 0.63 0.9 0 1 1004.37 736.29
  L 1004.36 746.03
  Q 1004.36 746.68 1003.71 746.68
  L 922.68 746.68
  Q 922.19 746.68 922.19 746.19
  L 922.21 736.71
  A 0.87 0.87 0.0 0 1 923.03 735.85
  C 931.13 735.34 941.97 735.32 945.59 726.74
  Q 946.93 723.57 946.94 713.91
  Q 946.98 670.38 946.93 626.86
  Q 946.92 616.67 945.37 612.67
  C 941.29 602.12 932.53 599.84 920.93 598.94
  A 0.70 0.70 0.0 0 1 920.28 598.24
  L 920.25 588.92
  Q 920.25 588.34 920.83 588.30
  L 975.02 584.77
  A 3.27 3.26 88.1 0 1 978.50 588.03
  L 978.49 609.26
  A 0.49 0.48 -21.8 0 0 979.31 609.61
  Z"
/>
<path fill="#1f1917" d="
  M 646.54 735.91
  C 658.74 735.21 670.64 734.72 670.56 718.75
  Q 670.32 672.08 670.32 625.40
  Q 670.32 617.91 668.91 614.28
  C 664.76 603.55 652.37 600.97 641.42 600.22
  Q 640.76 600.18 640.76 599.51
  L 640.75 590.21
  Q 640.75 589.65 641.30 589.62
  L 698.50 586.12
  A 3.06 3.06 0.0 0 1 701.75 589.18
  Q 701.70 650.06 701.77 710.94
  C 701.79 720.96 701.23 727.88 710.17 732.02
  Q 716.86 735.12 725.69 735.88
  Q 726.24 735.92 726.24 736.48
  L 726.28 745.77
  Q 726.28 746.68 725.37 746.68
  L 646.58 746.67
  A 0.60 0.59 -0.0 0 1 645.98 746.08
  L 645.99 736.49
  A 0.58 0.58 0.0 0 1 646.54 735.91
  Z"
/>
<path fill="#1f1917" d="
  M 1425.92 948.82
  Q 1426.85 949.15 1427.84 949.11
  Q 1427.88 949.10 1427.87 949.08
  Q 1427.87 949.07 1427.87 949.06
  Q 1427.87 949.04 1427.85 949.04
  Q 1418.43 950.23 1408.95 949.95
  Q 1408.32 949.93 1408.31 949.31
  L 1408.17 943.08
  A 0.41 0.41 0.0 0 0 1407.59 942.72
  C 1406.11 943.44 1404.83 945.06 1403.71 945.77
  Q 1401.37 947.25 1398.89 948.42
  Q 1398.51 948.60 1398.41 949.00
  Q 1398.17 949.92 1396.74 949.94
  Q 1386.63 950.02 1376.51 949.98
  Q 1375.16 949.98 1374.60 949.12
  Q 1374.33 948.71 1373.90 948.49
  Q 1363.27 943.19 1358.44 932.54
  C 1347.21 907.79 1364.46 880.09 1392.39 881.74
  Q 1400.19 882.20 1407.49 885.51
  Q 1408.13 885.80 1408.12 885.10
  Q 1408.00 873.94 1407.92 862.49
  C 1407.85 852.33 1398.96 852.26 1391.52 851.51
  Q 1391.01 851.45 1391.00 850.94
  L 1390.96 848.14
  Q 1390.95 847.47 1391.61 847.44
  L 1420.52 845.84
  A 1.33 1.32 88.4 0 1 1421.92 847.17
  Q 1421.90 890.42 1421.93 933.81
  C 1421.94 943.02 1426.70 943.51 1434.41 943.72
  Q 1434.98 943.73 1434.98 944.30
  L 1435.01 947.64
  Q 1435.01 948.28 1434.36 948.29
  L 1425.99 948.40
  Q 1424.78 948.42 1425.92 948.82
  Z
  M 1386.00 943.03
  Q 1399.19 946.37 1407.76 936.87
  Q 1408.10 936.49 1408.10 935.98
  Q 1408.05 917.96 1408.03 899.87
  C 1408.02 893.04 1400.60 887.99 1394.75 887.03
  C 1366.38 882.35 1361.71 936.88 1386.00 943.03
  Z"
/>
<path fill="#1f1917" d="
  M 349.49 885.22
  Q 350.28 868.01 349.62 861.61
  C 348.67 852.48 340.46 852.15 333.34 851.62
  Q 332.61 851.56 332.60 850.84
  L 332.57 848.18
  A 0.78 0.78 0.0 0 1 333.31 847.39
  L 362.01 845.91
  A 1.43 1.43 0.0 0 1 363.52 847.34
  Q 363.53 891.38 363.53 935.25
  C 363.53 942.53 369.13 943.83 375.75 943.67
  A 0.63 0.62 -1.4 0 1 376.39 944.27
  L 376.51 947.51
  Q 376.53 948.16 375.88 948.18
  Q 369.58 948.35 363.46 949.65
  Q 360.22 950.33 350.38 949.85
  Q 349.77 949.82 349.78 949.21
  L 349.82 943.23
  A 0.63 0.63 0.0 0 0 348.75 942.78
  Q 345.14 946.43 340.37 948.35
  Q 339.91 948.53 339.78 949.02
  Q 339.52 949.97 338.00 949.98
  Q 327.67 950.05 317.33 949.96
  Q 316.79 949.95 316.54 949.72
  Q 316.29 949.49 316.27 949.17
  Q 316.25 948.73 315.84 948.55
  C 300.93 941.93 294.54 924.93 297.26 910.24
  C 301.80 885.66 326.55 875.52 348.95 885.55
  Q 349.46 885.78 349.49 885.22
  Z
  M 344.94 940.46
  C 345.77 939.79 346.99 939.43 347.69 938.27
  A 1.32 1.31 5.4 0 1 348.37 937.71
  Q 349.72 937.24 349.71 935.24
  Q 349.69 918.08 349.74 900.78
  Q 349.74 897.92 348.63 895.89
  C 343.82 887.21 333.49 884.41 324.79 888.80
  C 309.82 896.37 308.21 925.92 318.57 937.40
  C 323.62 943.00 329.60 944.74 336.98 943.68
  Q 341.74 943.01 344.94 940.46
  Z"
/>
<ellipse fill="#1f1917" cx="0.00" cy="0.00" transform="translate(684.81,857.03) rotate(-9.2)" rx="9.42" ry="8.98"/>
<ellipse fill="#1f1917" cx="0.00" cy="0.00" transform="translate(1006.30,857.05) rotate(-10.5)" rx="9.42" ry="8.97"/>
<ellipse fill="#1f1917" cx="0.00" cy="0.00" transform="translate(1191.12,857.05) rotate(-9.4)" rx="9.41" ry="9.00"/>
<path fill="#1f1917" d="
  M 144.62 944.34
  C 149.15 943.65 155.44 944.56 156.98 939.01
  Q 157.24 938.04 157.26 931.99
  Q 157.34 900.24 157.26 868.51
  Q 157.24 863.91 153.92 862.09
  Q 149.98 859.94 141.75 859.49
  A 0.73 0.72 1.3 0 1 141.06 858.78
  L 140.98 855.14
  Q 140.97 854.49 141.61 854.49
  L 188.23 854.51
  A 0.69 0.69 0.0 0 1 188.92 855.24
  L 188.74 858.69
  A 0.73 0.73 0.0 0 1 188.02 859.38
  C 183.49 859.47 173.08 860.01 172.98 866.50
  Q 172.69 885.66 173.00 931.11
  C 173.04 937.36 172.27 941.56 179.76 943.21
  Q 183.94 944.13 188.12 944.54
  A 0.72 0.72 0.0 0 1 188.76 945.23
  L 188.84 949.07
  A 0.91 0.90 -0.9 0 1 187.93 950.00
  L 141.48 950.00
  Q 140.96 950.00 140.97 949.48
  L 141.06 945.02
  Q 141.08 944.33 141.76 944.40
  Q 143.24 944.55 144.62 944.34
  Z"
/>
<path fill="#1f1917" d="
  M 955.88 943.38
  Q 960.79 942.81 964.01 939.53
  Q 965.03 938.49 969.06 932.56
  Q 972.57 927.37 975.28 921.72
  A 0.84 0.83 10.7 0 1 975.99 921.24
  L 980.18 921.07
  A 0.60 0.59 1.3 0 1 980.80 921.71
  L 978.55 949.47
  Q 978.51 950.00 977.97 950.00
  L 897.28 950.00
  Q 896.67 950.00 896.67 949.39
  L 896.65 945.05
  Q 896.65 944.58 897.11 944.52
  C 902.82 943.76 910.70 944.86 910.67 936.41
  Q 910.55 901.45 910.59 866.50
  C 910.59 861.77 901.41 859.81 897.23 859.31
  Q 896.66 859.24 896.65 858.66
  L 896.59 855.08
  Q 896.59 854.50 897.17 854.50
  L 940.30 854.51
  A 0.62 0.61 89.5 0 1 940.91 855.12
  L 940.93 858.63
  A 0.77 0.77 0.0 0 1 940.24 859.40
  C 933.29 860.03 926.56 860.17 926.56 868.00
  Q 926.52 900.75 926.60 933.50
  Q 926.61 936.16 927.23 938.74
  Q 928.30 943.15 933.00 943.55
  Q 945.31 944.60 955.88 943.38
  Z"
/>
<path fill="#1f1917" d="
  M 555.74 883.07
  L 555.73 863.73
  Q 555.73 863.18 556.27 863.18
  L 568.72 863.15
  Q 569.30 863.15 569.29 863.73
  L 569.26 882.74
  A 0.97 0.97 0.0 0 0 570.24 883.71
  L 589.59 883.67
  Q 590.27 883.67 590.27 884.34
  L 590.22 889.75
  Q 590.22 890.21 589.75 890.21
  L 570.29 890.16
  A 0.94 0.93 -89.7 0 0 569.35 891.10
  Q 569.35 909.27 569.38 927.00
  C 569.39 934.53 569.86 942.40 579.52 942.57
  Q 585.37 942.68 591.20 941.78
  Q 591.88 941.67 591.83 942.36
  L 591.56 946.05
  A 0.93 0.92 -5.1 0 1 590.85 946.89
  Q 587.27 947.73 584.23 949.71
  Q 583.77 950.01 583.24 950.00
  Q 573.10 949.99 563.00 949.99
  Q 561.92 949.99 562.14 948.99
  Q 562.25 948.52 561.80 948.33
  C 557.37 946.53 555.64 940.21 555.65 936.00
  Q 555.70 913.38 555.61 890.77
  Q 555.61 890.20 555.04 890.20
  L 542.92 890.18
  A 0.60 0.60 0.0 0 1 542.32 889.57
  L 542.39 884.29
  A 0.58 0.57 -89.5 0 1 542.96 883.72
  L 555.11 883.70
  A 0.64 0.63 -0.5 0 0 555.74 883.07
  Z"
/>
<path fill="#1f1917" d="
  M 1237.95 948.81
  Q 1231.34 944.53 1231.28 937.23
  Q 1231.08 913.88 1231.19 890.73
  A 0.62 0.61 89.5 0 0 1230.57 890.11
  L 1218.61 890.20
  Q 1218.01 890.20 1218.01 889.61
  L 1218.00 884.22
  Q 1218.00 883.69 1218.53 883.69
  L 1230.52 883.73
  A 0.99 0.99 0.0 0 0 1231.51 882.73
  L 1231.49 863.87
  Q 1231.49 863.22 1232.13 863.22
  L 1244.33 863.15
  A 0.68 0.67 89.6 0 1 1245.01 863.83
  L 1244.98 882.96
  A 0.74 0.73 90.0 0 0 1245.71 883.70
  L 1265.48 883.69
  Q 1266.03 883.69 1266.02 884.23
  L 1265.97 889.59
  Q 1265.96 890.20 1265.35 890.20
  L 1245.72 890.16
  A 0.65 0.64 90.0 0 0 1245.08 890.81
  Q 1244.97 911.15 1245.38 931.75
  C 1245.65 945.11 1257.88 943.24 1266.84 941.72
  A 0.58 0.58 0.0 0 1 1267.51 942.29
  L 1267.48 945.87
  A 0.81 0.80 80.4 0 1 1266.96 946.61
  Q 1263.87 947.79 1260.85 949.06
  Q 1258.51 950.05 1256.01 950.03
  Q 1247.40 949.98 1238.65 949.98
  A 0.70 0.69 -22.8 0 1 1238.17 949.79
  Q 1237.37 948.99 1237.94 948.89
  Q 1238.05 948.87 1237.95 948.81
  Z"
/>
<path fill="#1f1917" d="
  M 228.89 892.42
  C 236.25 885.11 245.06 880.59 255.71 881.72
  C 268.00 883.03 273.47 891.44 273.48 903.25
  Q 273.48 920.50 273.47 937.75
  C 273.47 943.35 278.87 944.56 283.33 944.82
  A 0.67 0.66 1.8 0 1 283.96 945.48
  L 283.96 949.52
  Q 283.95 950.00 283.48 950.00
  L 248.89 950.00
  Q 248.28 950.00 248.28 949.39
  L 248.27 945.42
  A 0.63 0.62 2.5 0 1 248.95 944.80
  C 253.06 945.19 259.32 944.31 259.40 938.99
  Q 259.61 925.29 259.50 911.60
  Q 259.42 900.63 258.80 898.53
  C 256.65 891.18 249.68 888.60 242.48 890.03
  Q 233.82 891.73 228.32 899.03
  A 1.55 1.50 64.7 0 0 228.00 899.97
  Q 227.95 918.93 228.29 937.74
  C 228.40 943.62 234.25 944.39 238.74 944.97
  A 0.67 0.66 4.4 0 1 239.32 945.64
  L 239.27 949.24
  Q 239.26 949.99 238.50 949.99
  L 204.21 950.00
  Q 203.68 950.00 203.68 949.47
  L 203.70 945.68
  A 0.66 0.66 0.0 0 1 204.31 945.02
  C 209.40 944.56 214.25 944.44 214.29 937.75
  Q 214.41 918.77 214.31 899.79
  C 214.29 894.83 213.44 891.32 208.79 889.47
  C 207.25 888.86 205.19 888.85 203.38 888.48
  A 0.72 0.72 0.0 0 1 202.80 887.74
  L 202.94 884.57
  Q 202.96 884.09 203.44 884.06
  L 226.55 882.63
  A 1.42 1.41 -1.5 0 1 228.05 884.05
  L 228.01 892.05
  A 0.52 0.52 0.0 0 0 228.89 892.42
  Z"
/>
<path fill="#1f1917" d="
  M 492.98 948.61
  Q 489.18 947.71 485.96 945.47
  A 0.59 0.59 0.0 0 0 485.05 945.83
  L 484.26 949.42
  Q 484.14 950.00 483.54 950.00
  L 478.96 949.99
  Q 478.42 949.99 478.40 949.45
  L 477.81 927.17
  Q 477.79 926.63 478.33 926.63
  L 482.39 926.61
  A 0.74 0.74 0.0 0 1 483.10 927.13
  Q 485.60 935.12 491.93 940.60
  Q 498.79 946.54 508.96 945.70
  C 515.34 945.18 520.44 941.82 520.84 935.15
  C 521.20 928.94 515.67 925.46 510.22 923.65
  C 501.62 920.80 489.93 918.70 483.70 911.55
  C 477.80 904.78 478.71 895.31 484.58 888.84
  C 493.00 879.58 508.87 880.27 519.48 884.70
  A 0.87 0.87 0.0 0 0 520.63 884.22
  L 521.48 882.14
  Q 521.72 881.55 522.35 881.54
  L 526.63 881.48
  A 0.69 0.68 88.3 0 1 527.32 882.14
  L 528.23 902.11
  A 0.60 0.60 0.0 0 1 527.63 902.74
  L 523.81 902.75
  Q 523.32 902.75 523.18 902.28
  Q 518.06 885.06 499.80 886.99
  Q 497.70 887.22 495.40 888.83
  C 487.31 894.50 490.97 903.21 499.11 905.99
  Q 513.61 910.93 518.58 912.84
  C 527.36 916.21 533.24 923.05 531.80 932.89
  Q 530.21 943.83 519.10 948.34
  Q 518.66 948.52 518.50 948.97
  Q 518.15 949.95 517.23 949.96
  Q 505.52 950.06 493.21 949.95
  A 0.74 0.45 30.6 0 1 492.64 948.87
  L 492.96 948.86
  A 0.13 0.13 0.0 0 0 492.98 948.61
  Z"
/>
<path fill="#1f1917" d="
  M 764.21 948.97
  Q 763.69 949.92 762.52 949.94
  Q 756.81 950.07 741.45 950.00
  Q 738.56 949.99 736.26 948.89
  Q 715.43 938.96 716.35 914.48
  C 717.23 890.86 737.61 876.87 760.34 882.96
  C 774.76 886.83 780.25 900.08 778.93 913.88
  Q 778.88 914.30 778.46 914.30
  L 731.47 914.32
  A 0.58 0.58 0.0 0 0 730.89 914.89
  C 730.67 927.20 735.16 939.54 748.46 942.90
  Q 765.59 947.22 775.46 931.38
  Q 775.77 930.87 776.29 931.18
  L 780.26 933.55
  Q 780.77 933.86 780.46 934.36
  Q 774.79 943.78 764.82 948.40
  Q 764.42 948.59 764.21 948.97
  Z
  M 749.22 886.64
  C 737.25 886.73 731.26 897.34 730.83 908.23
  Q 730.81 908.68 731.25 908.68
  L 763.78 908.68
  A 0.78 0.78 0.0 0 0 764.56 907.86
  C 764.06 897.96 761.89 886.53 749.22 886.64
  Z"
/>
<path fill="#1f1917" d="
  M 807.73 948.47
  Q 804.27 947.72 801.45 945.57
  Q 801.02 945.24 800.73 945.69
  Q 799.57 947.46 799.51 949.50
  Q 799.49 950.00 798.99 950.00
  L 794.45 950.00
  Q 793.74 950.00 793.71 949.30
  L 792.86 927.41
  Q 792.83 926.64 793.59 926.64
  L 797.39 926.61
  Q 798.04 926.60 798.24 927.22
  Q 799.06 929.75 800.33 932.10
  Q 808.43 947.22 824.69 945.62
  C 829.91 945.11 834.56 942.49 835.70 937.28
  C 837.50 929.01 830.70 925.09 823.89 923.20
  Q 815.31 920.82 807.08 917.43
  C 788.91 909.94 792.17 888.08 809.76 882.79
  Q 821.73 879.19 834.67 884.81
  Q 835.18 885.03 835.44 884.55
  L 836.80 882.00
  A 0.93 0.92 -76.2 0 1 837.62 881.50
  L 841.82 881.50
  Q 842.38 881.50 842.41 882.07
  L 843.45 902.13
  A 0.58 0.58 0.0 0 1 842.87 902.74
  L 839.05 902.76
  A 0.75 0.75 0.0 0 1 838.33 902.22
  C 834.79 890.23 824.59 884.06 812.60 887.83
  C 803.25 890.77 804.71 902.57 813.27 905.73
  Q 821.85 908.89 830.61 911.60
  C 841.87 915.08 850.55 923.96 846.26 936.53
  Q 843.44 944.75 834.24 948.26
  Q 833.82 948.42 833.64 948.83
  Q 833.15 949.98 831.74 949.99
  Q 820.12 950.04 808.48 949.97
  A 0.82 0.79 -16.8 0 1 807.85 949.65
  Q 807.44 949.11 807.75 949.02
  A 0.28 0.28 0.0 0 0 807.73 948.47
  Z"
/>
<path fill="#1f1917" d="
  M 1062.62 892.72
  C 1065.12 890.74 1067.88 888.08 1070.06 886.60
  C 1081.64 878.69 1098.52 879.50 1105.95 892.87
  Q 1106.23 893.38 1106.67 893.01
  C 1112.42 888.22 1116.73 884.23 1124.23 882.41
  C 1134.79 879.84 1146.54 882.90 1150.05 894.23
  Q 1151.23 898.02 1151.27 909.91
  Q 1151.33 924.13 1151.58 938.37
  C 1151.68 943.76 1157.57 944.49 1161.48 944.94
  Q 1162.20 945.02 1162.24 945.74
  L 1162.48 949.33
  A 0.63 0.63 0.0 0 1 1161.85 950.00
  L 1127.45 949.99
  A 0.68 0.68 0.0 0 1 1126.77 949.32
  L 1126.72 945.72
  A 0.94 0.93 -89.4 0 1 1127.68 944.77
  C 1132.24 944.95 1137.37 944.11 1137.36 938.38
  Q 1137.34 921.32 1137.29 904.25
  C 1137.23 883.84 1115.50 887.56 1107.16 898.73
  Q 1106.85 899.15 1106.84 899.66
  Q 1106.63 918.29 1106.80 936.94
  C 1106.87 943.65 1111.45 944.29 1116.85 944.95
  A 0.65 0.65 0.0 0 1 1117.42 945.61
  L 1117.36 949.32
  A 0.69 0.68 -89.6 0 1 1116.68 950.00
  L 1083.02 950.00
  Q 1082.54 950.00 1082.53 949.52
  L 1082.45 945.33
  Q 1082.44 944.83 1082.93 944.85
  Q 1086.74 945.01 1089.40 943.87
  Q 1093.10 942.30 1093.07 937.75
  Q 1092.98 921.63 1092.89 905.50
  C 1092.76 884.14 1070.84 886.37 1062.31 899.58
  Q 1062.06 899.98 1062.06 900.45
  Q 1062.20 919.53 1062.12 938.48
  C 1062.10 942.97 1068.97 944.60 1072.33 944.95
  A 0.75 0.75 0.0 0 1 1073.00 945.66
  L 1073.19 949.34
  A 0.61 0.61 0.0 0 1 1072.58 949.99
  L 1038.29 950.00
  Q 1037.70 950.00 1037.69 949.41
  L 1037.62 945.51
  A 0.56 0.55 -2.9 0 1 1038.12 944.96
  C 1047.81 944.13 1048.25 942.92 1048.29 933.47
  Q 1048.36 916.21 1048.30 898.96
  C 1048.28 891.26 1043.93 889.21 1037.06 888.50
  A 0.63 0.62 4.7 0 1 1036.49 887.84
  L 1036.67 884.70
  Q 1036.70 884.10 1037.30 884.06
  L 1060.41 882.62
  Q 1062.06 882.51 1062.02 884.16
  L 1061.83 892.32
  A 0.49 0.49 0.0 0 0 1062.62 892.72
  Z"
/>
<path fill="#1f1917" d="
  M 1326.33 948.91
  Q 1325.86 949.38 1325.32 949.72
  Q 1324.94 949.96 1324.37 949.96
  Q 1312.44 950.04 1300.50 949.94
  Q 1299.35 949.93 1298.69 949.11
  Q 1298.38 948.73 1297.95 948.53
  Q 1281.35 940.91 1278.78 922.22
  C 1275.51 898.41 1292.35 878.53 1317.31 881.88
  Q 1338.10 884.67 1340.99 904.74
  Q 1341.28 906.80 1341.05 913.78
  Q 1341.04 914.31 1340.51 914.31
  L 1293.74 914.32
  A 0.72 0.72 0.0 0 0 1293.02 915.05
  C 1293.16 931.90 1301.27 945.40 1320.37 943.58
  C 1328.59 942.80 1333.29 937.79 1337.65 931.26
  Q 1337.96 930.80 1338.43 931.09
  L 1342.52 933.70
  Q 1342.96 933.98 1342.69 934.42
  Q 1336.89 943.63 1327.09 948.37
  Q 1326.67 948.57 1326.33 948.91
  Z
  M 1293.83 908.74
  L 1326.73 908.62
  A 0.30 0.30 0.0 0 0 1327.03 908.32
  L 1327.02 906.60
  A 19.96 15.53 89.8 0 0 1311.42 886.70
  L 1308.98 886.70
  A 19.96 15.53 89.8 0 0 1293.52 906.72
  L 1293.53 908.44
  A 0.30 0.30 0.0 0 0 1293.83 908.74
  Z"
/>
<path fill="#1f1917" d="
  M 627.04 892.24
  A 0.41 0.41 0.0 0 0 627.76 892.51
  Q 633.91 885.17 642.64 882.71
  C 649.78 880.71 656.87 882.18 658.29 890.43
  C 660.92 905.63 637.07 902.15 643.13 890.28
  A 0.77 0.77 0.0 0 0 642.28 889.17
  Q 633.15 891.14 627.42 898.46
  A 1.80 1.78 -26.7 0 0 627.04 899.59
  Q 627.12 918.99 627.06 938.24
  C 627.04 944.33 636.04 944.57 640.41 944.88
  A 0.62 0.61 1.0 0 1 640.98 945.47
  L 641.08 949.32
  Q 641.10 950.00 640.43 950.00
  L 603.48 950.00
  Q 602.46 950.00 602.47 948.98
  L 602.52 945.54
  A 0.61 0.60 -1.0 0 1 603.11 944.94
  C 612.65 944.64 613.24 942.63 613.27 933.68
  Q 613.33 916.08 613.28 898.50
  C 613.25 890.86 608.83 889.38 602.42 888.59
  A 0.66 0.65 3.5 0 1 601.84 887.94
  L 601.84 884.62
  Q 601.84 884.09 602.38 884.05
  L 625.66 882.62
  A 1.36 1.36 0.0 0 1 627.10 883.99
  L 627.04 892.24
  Z"
/>
<path fill="#1f1917" d="
  M 439.77 940.51
  Q 436.41 943.29 433.17 946.13
  Q 432.21 946.97 427.75 948.61
  A 0.21 0.21 0.0 0 0 427.73 948.99
  Q 427.86 949.05 427.99 949.12
  Q 428.09 949.17 428.01 949.24
  C 427.63 949.64 427.19 949.97 426.59 949.98
  Q 416.42 950.02 406.25 949.93
  Q 405.28 949.92 405.15 949.16
  Q 405.07 948.70 404.68 948.46
  C 395.25 942.64 395.83 932.11 395.81 922.52
  Q 395.79 909.51 395.77 896.50
  C 395.76 890.56 389.91 888.98 384.87 888.76
  Q 384.25 888.74 384.26 888.11
  L 384.30 884.94
  A 0.79 0.78 88.8 0 1 385.04 884.16
  L 408.14 882.64
  A 1.52 1.51 -1.9 0 1 409.76 884.15
  Q 409.79 905.93 409.78 928.00
  C 409.78 935.85 412.71 943.63 421.75 943.80
  Q 432.62 943.99 439.92 934.47
  Q 440.20 934.12 440.20 933.67
  Q 440.33 917.68 440.24 901.71
  Q 440.20 896.01 440.07 895.31
  C 438.70 888.33 432.54 889.05 427.08 888.65
  Q 426.33 888.60 426.34 887.85
  L 426.38 884.78
  Q 426.38 884.19 426.97 884.16
  L 452.42 882.63
  A 1.61 1.60 -1.7 0 1 454.12 884.23
  Q 454.03 909.64 454.15 935.44
  C 454.18 942.10 458.65 943.38 464.57 943.84
  Q 465.21 943.89 465.20 944.53
  L 465.17 947.25
  Q 465.16 947.85 464.56 947.95
  Q 453.13 949.85 441.57 950.12
  A 1.20 1.19 -0.7 0 1 440.35 948.94
  L 440.26 940.74
  A 0.30 0.30 0.0 0 0 439.77 940.51
  Z"
/>
<path fill="#1f1917" d="
  M 668.39 947.43
  Q 668.09 946.49 668.26 945.54
  A 0.79 0.79 0.0 0 1 669.04 944.88
  C 673.93 944.88 678.95 944.19 678.97 938.32
  Q 679.02 918.41 678.99 898.50
  C 678.98 890.24 672.94 889.29 666.51 888.48
  Q 666.05 888.42 666.02 887.96
  L 665.86 884.78
  A 0.66 0.66 0.0 0 1 666.48 884.08
  L 691.43 882.62
  A 1.26 1.26 0.0 0 1 692.77 883.88
  Q 692.72 911.06 692.81 937.88
  C 692.83 943.01 698.91 944.50 702.89 944.88
  Q 703.47 944.93 703.48 945.51
  L 703.56 949.42
  Q 703.57 950.00 703.00 950.00
  Q 686.22 950.00 669.48 950.01
  Q 667.87 950.01 668.40 948.19
  Q 668.52 947.81 668.39 947.43
  Z"
/>
<path fill="#1f1917" d="
  M 1015.76 941.88
  Q 1019.70 944.49 1024.46 944.82
  A 0.64 0.64 0.0 0 1 1025.06 945.47
  L 1025.02 949.37
  A 0.64 0.64 0.0 0 1 1024.38 950.00
  L 990.23 949.99
  A 0.52 0.52 0.0 0 1 989.71 949.45
  L 989.85 945.57
  A 0.66 0.65 -1.5 0 1 990.45 944.94
  C 995.71 944.53 1000.52 944.49 1000.52 937.75
  Q 1000.52 917.62 1000.30 897.50
  C 1000.23 890.46 993.94 888.99 988.09 888.54
  Q 987.43 888.49 987.45 887.83
  L 987.52 884.78
  Q 987.53 884.10 988.22 884.06
  L 1012.78 882.62
  A 1.42 1.42 0.0 0 1 1014.28 884.04
  Q 1014.29 910.88 1014.25 937.75
  Q 1014.25 938.57 1015.14 941.09
  Q 1015.32 941.59 1015.76 941.88
  Z"
/>
<path fill="#1f1917" d="
  M 1210.06 948.52
  L 1210.16 948.75
  A 0.87 0.87 0.0 0 1 1209.37 949.99
  L 1175.19 950.00
  Q 1174.63 950.00 1174.64 949.44
  L 1174.69 945.44
  Q 1174.70 944.85 1175.30 944.86
  Q 1179.95 945.02 1182.62 943.59
  C 1185.46 942.06 1185.33 938.90 1185.36 935.28
  Q 1185.51 917.14 1185.40 899.00
  C 1185.35 891.18 1180.54 889.61 1173.97 888.57
  A 2.30 2.30 0.0 0 1 1174.20 884.00
  L 1197.45 882.63
  A 1.49 1.49 0.0 0 1 1199.02 884.13
  Q 1198.97 909.76 1199.06 935.74
  C 1199.07 939.57 1199.32 941.79 1203.21 943.35
  Q 1206.27 944.57 1209.53 944.97
  A 0.58 0.58 0.0 0 1 1210.05 945.57
  L 1209.96 948.05
  Q 1209.95 948.29 1210.06 948.52
  Z"
/>
</svg>
