<?xml version="1.0" encoding="UTF-8" standalone="no"?>
<!DOCTYPE svg PUBLIC "-//W3C//DTD SVG 1.1//EN" "http://www.w3.org/Graphics/SVG/1.1/DTD/svg11.dtd">
<svg xmlns="http://www.w3.org/2000/svg" version="1.1" viewBox="0.00 0.00 356.00 334.00">
<path fill="#033275" d="
  M 244.87 140.84
  L 182.17 78.06
  A 0.39 0.39 0.0 0 0 181.61 78.06
  L 118.93 140.77
  A 0.39 0.39 0.0 0 0 118.93 141.33
  L 131.39 153.84
  A 0.39 0.39 0.0 0 1 131.50 154.11
  L 131.71 208.21
  A 0.39 0.39 0.0 0 1 131.04 208.49
  L 64.03 141.36
  A 0.39 0.39 0.0 0 1 64.03 140.80
  L 181.61 23.28
  A 0.39 0.39 0.0 0 1 182.17 23.28
  L 299.84 140.75
  A 0.39 0.39 0.0 0 1 299.84 141.31
  L 232.74 208.54
  A 0.39 0.39 0.0 0 1 232.07 208.26
  L 232.36 153.87
  A 0.39 0.39 0.0 0 1 232.48 153.60
  L 244.87 141.40
  A 0.39 0.39 0.0 0 0 244.87 140.84
  Z"
/>
<rect fill="#033275" x="-35.12" y="-35.07" transform="translate(181.86,153.91) rotate(-45.0)" width="70.24" height="70.14" rx="0.80"/>
<path fill="#1e1c1c" d="
  M 156.79 246.93
  L 156.78 242.12
  A 0.66 0.66 0.0 0 0 156.12 241.46
  L 125.23 241.41
  A 0.81 0.81 0.0 0 0 124.42 242.22
  L 124.42 270.76
  A 0.53 0.53 0.0 0 1 123.58 271.19
  L 118.38 267.56
  A 1.06 1.06 0.0 0 1 117.94 266.72
  L 117.88 258.47
  A 0.77 0.76 82.8 0 0 116.94 257.73
  Q 111.78 258.98 107.69 255.70
  A 1.04 1.03 -42.5 0 0 106.47 255.65
  L 102.51 258.31
  Q 101.94 258.68 102.37 259.21
  L 109.99 268.62
  A 0.80 0.79 -38.7 0 1 109.86 269.74
  L 108.00 271.21
  Q 107.51 271.59 107.12 271.11
  C 102.58 265.53 93.67 255.94 93.66 251.12
  A 1.20 1.20 0.0 0 1 94.10 250.19
  Q 96.50 248.25 98.80 250.53
  A 1.56 1.55 -67.2 0 0 101.45 249.45
  L 101.57 242.16
  A 0.67 0.67 0.0 0 0 100.91 241.48
  L 91.26 241.41
  Q 90.87 241.41 90.68 241.07
  L 88.06 236.44
  Q 87.63 235.68 88.50 235.68
  L 119.32 235.81
  A 0.89 0.89 0.0 0 0 120.15 234.58
  C 118.29 230.12 115.75 224.68 110.01 224.33
  Q 109.48 224.30 109.36 223.78
  L 108.21 218.83
  A 0.86 0.86 0.0 0 1 109.16 217.78
  C 117.06 218.80 120.29 228.14 122.51 234.50
  A 1.84 1.84 0.0 0 0 124.25 235.74
  L 167.20 235.74
  A 0.89 0.88 75.9 0 1 167.98 236.21
  L 170.34 240.78
  A 0.51 0.51 0.0 0 1 169.86 241.52
  L 164.38 241.26
  A 1.12 1.12 0.0 0 0 163.20 242.38
  L 163.21 270.80
  A 0.47 0.47 0.0 0 1 162.48 271.19
  L 157.16 267.61
  A 1.05 1.04 -72.8 0 1 156.71 266.75
  L 156.83 251.48
  A 0.80 0.79 79.6 0 0 155.75 250.73
  C 151.59 252.33 150.15 255.35 147.82 258.76
  Q 147.50 259.23 147.04 258.91
  L 142.98 256.09
  A 0.70 0.70 0.0 0 1 142.81 255.12
  L 144.28 253.05
  A 1.46 1.46 0.0 0 0 143.43 250.78
  C 141.26 250.26 139.44 250.59 138.06 252.48
  C 133.88 258.17 138.02 265.08 143.20 268.30
  A 0.94 0.94 0.0 0 1 143.37 269.76
  L 142.49 270.62
  A 0.80 0.79 -49.1 0 1 141.45 270.70
  C 135.34 266.18 127.36 256.17 133.04 248.39
  Q 135.98 244.36 141.69 245.96
  C 143.59 246.49 144.79 248.03 146.46 249.17
  A 0.85 0.84 -49.2 0 0 147.52 249.09
  Q 151.14 245.67 155.87 247.55
  A 0.67 0.67 0.0 0 0 156.79 246.93
  Z
  M 116.91 241.49
  L 109.03 241.35
  A 1.02 1.02 0.0 0 0 107.99 242.35
  L 107.88 248.87
  A 4.21 3.70 1.0 0 0 112.02 252.65
  L 113.52 252.67
  A 4.21 3.70 1.0 0 0 117.80 249.05
  L 117.91 242.53
  A 1.02 1.02 0.0 0 0 116.91 241.49
  Z"
/>
<path fill="#1e1c1c" d="
  M 195.12 267.38
  C 197.57 267.50 200.02 266.42 200.89 263.96
  C 204.09 254.81 182.72 256.64 187.13 242.88
  C 189.42 235.74 198.73 233.41 204.77 237.46
  A 1.02 0.99 25.6 0 1 205.18 238.58
  L 204.08 242.24
  A 0.56 0.55 -47.1 0 1 203.03 242.28
  C 200.87 236.58 191.55 237.61 192.25 243.75
  C 192.67 247.37 200.84 250.13 202.87 251.60
  C 209.60 256.45 207.76 265.57 200.75 268.94
  Q 194.27 272.05 187.08 268.53
  Q 186.56 268.27 186.69 267.70
  L 187.81 262.62
  A 0.45 0.45 0.0 0 1 188.68 262.56
  Q 190.40 267.13 195.12 267.38
  Z"
/>
<path fill="#1e1c1c" d="
  M 226.92 259.68
  L 217.35 259.55
  A 1.81 1.80 9.3 0 0 215.60 260.80
  L 212.96 268.94
  A 0.77 0.77 0.0 0 1 212.24 269.47
  L 209.07 269.54
  Q 208.48 269.55 208.71 269.01
  L 221.62 237.52
  A 2.46 2.46 0.0 0 1 226.18 237.55
  L 238.71 269.29
  A 0.22 0.21 79.9 0 1 238.51 269.59
  L 231.34 269.49
  Q 230.92 269.48 230.78 269.09
  L 227.83 260.34
  Q 227.61 259.69 226.92 259.68
  Z
  M 217.64 256.05
  A 0.67 0.67 0.0 0 0 218.25 256.96
  L 225.62 257.04
  A 0.67 0.67 0.0 0 0 226.26 256.14
  L 222.67 246.53
  A 0.67 0.67 0.0 0 0 221.42 246.52
  L 217.64 256.05
  Z"
/>
<rect fill="#1e1c1c" x="243.01" y="236.40" width="7.28" height="33.12" rx="0.26"/>
<path fill="#1e1c1c" d="
  M 265.44 266.27
  L 275.48 265.64
  A 0.47 0.47 0.0 0 1 275.98 266.12
  L 275.95 269.11
  A 0.47 0.47 0.0 0 1 275.47 269.58
  L 258.20 269.46
  A 0.47 0.47 0.0 0 1 257.73 268.99
  L 257.75 236.91
  A 0.47 0.47 0.0 0 1 258.22 236.44
  L 264.62 236.46
  A 0.47 0.47 0.0 0 1 265.09 236.93
  L 264.94 265.80
  A 0.47 0.47 0.0 0 0 265.44 266.27
  Z"
/>
</svg>
