<?xml version="1.0" encoding="UTF-8" standalone="no"?>
<!DOCTYPE svg PUBLIC "-//W3C//DTD SVG 1.1//EN" "http://www.w3.org/Graphics/SVG/1.1/DTD/svg11.dtd">
<svg xmlns="http://www.w3.org/2000/svg" version="1.1" viewBox="0.00 0.00 183.00 168.00">
<g stroke-width="2.00" fill="none" stroke-linecap="butt">
<path stroke="#d92a3b" stroke-opacity="0.800" vector-effect="non-scaling-stroke" d="
  M 1.00 0.00
  L 1.00 168.00"
/>
<path stroke="#d92a3b" stroke-opacity="0.800" vector-effect="non-scaling-stroke" d="
  M 182.00 0.00
  L 181.99 168.00"
/>
<path stroke="#ff99a2" vector-effect="non-scaling-stroke" d="
  M 141.30 72.11
  L 142.26 64.99
  Q 142.33 64.47 141.84 64.66
  L 134.00 67.65
  A 0.87 0.87 0.0 0 0 133.47 68.27
  L 132.57 72.21
  Q 132.43 72.82 131.80 72.81
  L 130.04 72.78
  Q 129.35 72.77 129.29 73.46
  L 128.80 79.09
  Q 128.75 79.68 129.34 79.66
  L 130.77 79.61
  A 0.50 0.50 0.0 0 1 131.28 80.18
  Q 130.36 86.46 129.65 92.73
  C 128.62 101.82 138.23 100.43 143.37 97.90
  A 0.94 0.93 -8.1 0 0 143.89 97.21
  L 144.74 92.06
  A 0.44 0.43 -12.4 0 0 144.07 91.64
  Q 142.20 92.88 139.95 92.70
  A 1.35 1.34 6.5 0 1 138.73 91.18
  L 140.26 80.23
  Q 140.35 79.56 141.02 79.57
  L 145.58 79.61
  A 0.78 0.77 4.2 0 0 146.36 78.94
  L 147.09 73.39
  Q 147.18 72.74 146.52 72.74
  L 141.86 72.75
  Q 141.21 72.75 141.30 72.11"
/>
<path stroke="#ff99a2" vector-effect="non-scaling-stroke" d="
  M 118.08 96.05
  L 117.44 98.66
  Q 117.30 99.25 117.91 99.25
  L 125.22 99.26
  Q 125.69 99.26 125.73 98.79
  Q 126.33 91.42 127.32 84.11
  C 128.03 78.88 127.90 73.68 122.29 72.22
  Q 114.51 70.20 106.18 74.68
  Q 105.75 74.91 105.91 75.37
  L 107.38 79.69
  Q 107.58 80.28 108.12 79.99
  C 111.23 78.38 121.80 75.39 119.57 82.64
  Q 119.44 83.07 119.00 83.00
  C 112.14 81.94 102.72 83.21 102.12 91.72
  C 101.37 102.19 112.53 100.73 117.56 95.75
  Q 118.35 94.96 118.08 96.05"
/>
<path stroke="#ff99a2" vector-effect="non-scaling-stroke" d="
  M 41.3949 98.7641
  A 14.28 12.08 119.7 0 0 58.9631 92.3451
  A 14.28 12.08 119.7 0 0 55.5451 73.9559
  A 14.28 12.08 119.7 0 0 37.9769 80.3749
  A 14.28 12.08 119.7 0 0 41.3949 98.7641"
/>
<path stroke="#ff99a2" vector-effect="non-scaling-stroke" d="
  M 72.43 80.03
  L 72.78 73.77
  A 0.52 0.52 0.0 0 0 72.22 73.22
  L 64.21 73.90
  Q 63.77 73.94 63.74 74.39
  Q 62.99 86.75 60.48 98.88
  Q 60.34 99.57 61.04 99.57
  L 69.15 99.59
  Q 69.64 99.59 69.71 99.09
  C 70.57 92.50 70.52 86.07 75.80 81.02
  A 1.42 1.42 0.0 0 1 78.18 82.26
  L 75.60 99.06
  Q 75.53 99.57 76.04 99.57
  L 84.49 99.58
  A 0.55 0.53 -87.0 0 0 85.02 99.09
  C 85.81 91.64 85.73 84.40 91.37 81.00
  A 1.24 1.23 -11.5 0 1 93.23 82.23
  L 90.92 98.96
  Q 90.83 99.58 91.46 99.58
  L 98.96 99.58
  Q 99.41 99.59 99.49 99.14
  Q 100.99 90.44 102.50 81.76
  C 103.03 78.70 103.23 73.03 98.73 72.85
  C 92.89 72.62 91.33 76.22 87.91 79.97
  Q 87.26 80.68 87.46 79.74
  Q 88.12 76.50 86.26 73.88
  A 1.42 1.35 80.1 0 0 85.56 73.36
  C 79.60 71.39 75.74 75.71 72.83 80.17
  A 0.22 0.22 0.0 0 1 72.43 80.03"
/>
<path stroke="#ff99a2" vector-effect="non-scaling-stroke" d="
  M 151.4366 98.7480
  A 14.29 12.11 119.9 0 0 169.0581 92.3967
  A 14.29 12.11 119.9 0 0 165.6834 73.9720
  A 14.29 12.11 119.9 0 0 148.0619 80.3233
  A 14.29 12.11 119.9 0 0 151.4366 98.7480"
/>
<path stroke="#ff99a2" vector-effect="non-scaling-stroke" d="
  M 24.20 81.44
  L 12.22 94.43
  A 0.98 0.98 0.0 0 0 11.96 95.07
  L 11.85 98.86
  Q 11.84 99.38 12.36 99.38
  L 33.10 99.37
  Q 33.59 99.37 33.68 98.89
  L 34.89 92.42
  A 0.59 0.59 0.0 0 0 34.30 91.72
  L 25.50 91.87
  A 0.43 0.43 0.0 0 1 25.17 91.16
  Q 30.71 84.97 36.49 78.96
  Q 37.84 77.55 37.08 73.76
  Q 37.01 73.43 36.67 73.43
  L 16.41 73.40
  Q 15.95 73.40 15.89 73.85
  L 14.87 80.73
  Q 14.81 81.12 15.21 81.12
  L 23.98 80.93
  Q 24.68 80.92 24.20 81.44"
/>
<path stroke="#ff99a2" vector-effect="non-scaling-stroke" d="
  M 119.07 88.79
  Q 119.53 87.46 118.16 87.11
  Q 115.19 86.35 111.76 87.51
  C 106.79 89.20 108.70 96.37 114.01 94.42
  Q 117.58 93.12 119.07 88.79"
/>
<path stroke="#ff99a2" vector-effect="non-scaling-stroke" d="
  M 47.2558 93.1121
  A 6.85 3.49 99.7 0 0 51.8501 86.9480
  A 6.85 3.49 99.7 0 0 49.5642 79.6079
  A 6.85 3.49 99.7 0 0 44.9699 85.7720
  A 6.85 3.49 99.7 0 0 47.2558 93.1121"
/>
<path stroke="#ff99a2" vector-effect="non-scaling-stroke" d="
  M 157.1594 93.1814
  A 6.76 3.44 99.8 0 0 161.6998 87.1055
  A 6.76 3.44 99.8 0 0 159.4606 79.8586
  A 6.76 3.44 99.8 0 0 154.9202 85.9345
  A 6.76 3.44 99.8 0 0 157.1594 93.1814"
/>
</g>
<path fill="#991d29" fill-opacity="0.596" d="
  M 0.00 0.00
  L 1.00 0.00
  L 1.00 168.00
  L 0.00 168.00
  L 0.00 0.00
  Z"
/>
<path fill="#ff3245" d="
  M 1.00 0.00
  L 182.00 0.00
  L 181.99 168.00
  L 1.00 168.00
  L 1.00 0.00
  Z
  M 141.30 72.11
  L 142.26 64.99
  Q 142.33 64.47 141.84 64.66
  L 134.00 67.65
  A 0.87 0.87 0.0 0 0 133.47 68.27
  L 132.57 72.21
  Q 132.43 72.82 131.80 72.81
  L 130.04 72.78
  Q 129.35 72.77 129.29 73.46
  L 128.80 79.09
  Q 128.75 79.68 129.34 79.66
  L 130.77 79.61
  A 0.50 0.50 0.0 0 1 131.28 80.18
  Q 130.36 86.46 129.65 92.73
  C 128.62 101.82 138.23 100.43 143.37 97.90
  A 0.94 0.93 -8.1 0 0 143.89 97.21
  L 144.74 92.06
  A 0.44 0.43 -12.4 0 0 144.07 91.64
  Q 142.20 92.88 139.95 92.70
  A 1.35 1.34 6.5 0 1 138.73 91.18
  L 140.26 80.23
  Q 140.35 79.56 141.02 79.57
  L 145.58 79.61
  A 0.78 0.77 4.2 0 0 146.36 78.94
  L 147.09 73.39
  Q 147.18 72.74 146.52 72.74
  L 141.86 72.75
  Q 141.21 72.75 141.30 72.11
  Z
  M 118.08 96.05
  L 117.44 98.66
  Q 117.30 99.25 117.91 99.25
  L 125.22 99.26
  Q 125.69 99.26 125.73 98.79
  Q 126.33 91.42 127.32 84.11
  C 128.03 78.88 127.90 73.68 122.29 72.22
  Q 114.51 70.20 106.18 74.68
  Q 105.75 74.91 105.91 75.37
  L 107.38 79.69
  Q 107.58 80.28 108.12 79.99
  C 111.23 78.38 121.80 75.39 119.57 82.64
  Q 119.44 83.07 119.00 83.00
  C 112.14 81.94 102.72 83.21 102.12 91.72
  C 101.37 102.19 112.53 100.73 117.56 95.75
  Q 118.35 94.96 118.08 96.05
  Z
  M 41.3949 98.7641
  A 14.28 12.08 119.7 0 0 58.9631 92.3451
  A 14.28 12.08 119.7 0 0 55.5451 73.9559
  A 14.28 12.08 119.7 0 0 37.9769 80.3749
  A 14.28 12.08 119.7 0 0 41.3949 98.7641
  Z
  M 72.43 80.03
  L 72.78 73.77
  A 0.52 0.52 0.0 0 0 72.22 73.22
  L 64.21 73.90
  Q 63.77 73.94 63.74 74.39
  Q 62.99 86.75 60.48 98.88
  Q 60.34 99.57 61.04 99.57
  L 69.15 99.59
  Q 69.64 99.59 69.71 99.09
  C 70.57 92.50 70.52 86.07 75.80 81.02
  A 1.42 1.42 0.0 0 1 78.18 82.26
  L 75.60 99.06
  Q 75.53 99.57 76.04 99.57
  L 84.49 99.58
  A 0.55 0.53 -87.0 0 0 85.02 99.09
  C 85.81 91.64 85.73 84.40 91.37 81.00
  A 1.24 1.23 -11.5 0 1 93.23 82.23
  L 90.92 98.96
  Q 90.83 99.58 91.46 99.58
  L 98.96 99.58
  Q 99.41 99.59 99.49 99.14
  Q 100.99 90.44 102.50 81.76
  C 103.03 78.70 103.23 73.03 98.73 72.85
  C 92.89 72.62 91.33 76.22 87.91 79.97
  Q 87.26 80.68 87.46 79.74
  Q 88.12 76.50 86.26 73.88
  A 1.42 1.35 80.1 0 0 85.56 73.36
  C 79.60 71.39 75.74 75.71 72.83 80.17
  A 0.22 0.22 0.0 0 1 72.43 80.03
  Z
  M 151.4366 98.7480
  A 14.29 12.11 119.9 0 0 169.0581 92.3967
  A 14.29 12.11 119.9 0 0 165.6834 73.9720
  A 14.29 12.11 119.9 0 0 148.0619 80.3233
  A 14.29 12.11 119.9 0 0 151.4366 98.7480
  Z
  M 24.20 81.44
  L 12.22 94.43
  A 0.98 0.98 0.0 0 0 11.96 95.07
  L 11.85 98.86
  Q 11.84 99.38 12.36 99.38
  L 33.10 99.37
  Q 33.59 99.37 33.68 98.89
  L 34.89 92.42
  A 0.59 0.59 0.0 0 0 34.30 91.72
  L 25.50 91.87
  A 0.43 0.43 0.0 0 1 25.17 91.16
  Q 30.71 84.97 36.49 78.96
  Q 37.84 77.55 37.08 73.76
  Q 37.01 73.43 36.67 73.43
  L 16.41 73.40
  Q 15.95 73.40 15.89 73.85
  L 14.87 80.73
  Q 14.81 81.12 15.21 81.12
  L 23.98 80.93
  Q 24.68 80.92 24.20 81.44
  Z"
/>
<path fill="#991d29" fill-opacity="0.596" d="
  M 182.00 0.00
  L 183.00 0.00
  L 183.00 168.00
  L 181.99 168.00
  L 182.00 0.00
  Z"
/>
<path fill="#ffffff" d="
  M 141.86 72.75
  L 146.52 72.74
  Q 147.18 72.74 147.09 73.39
  L 146.36 78.94
  A 0.78 0.77 4.2 0 1 145.58 79.61
  L 141.02 79.57
  Q 140.35 79.56 140.26 80.23
  L 138.73 91.18
  A 1.35 1.34 6.5 0 0 139.95 92.70
  Q 142.20 92.88 144.07 91.64
  A 0.44 0.43 -12.4 0 1 144.74 92.06
  L 143.89 97.21
  A 0.94 0.93 -8.1 0 1 143.37 97.90
  C 138.23 100.43 128.62 101.82 129.65 92.73
  Q 130.36 86.46 131.28 80.18
  A 0.50 0.50 0.0 0 0 130.77 79.61
  L 129.34 79.66
  Q 128.75 79.68 128.80 79.09
  L 129.29 73.46
  Q 129.35 72.77 130.04 72.78
  L 131.80 72.81
  Q 132.43 72.82 132.57 72.21
  L 133.47 68.27
  A 0.87 0.87 0.0 0 1 134.00 67.65
  L 141.84 64.66
  Q 142.33 64.47 142.26 64.99
  L 141.30 72.11
  Q 141.21 72.75 141.86 72.75
  Z"
/>
<path fill="#ffffff" d="
  M 117.56 95.75
  C 112.53 100.73 101.37 102.19 102.12 91.72
  C 102.72 83.21 112.14 81.94 119.00 83.00
  Q 119.44 83.07 119.57 82.64
  C 121.80 75.39 111.23 78.38 108.12 79.99
  Q 107.58 80.28 107.38 79.69
  L 105.91 75.37
  Q 105.75 74.91 106.18 74.68
  Q 114.51 70.20 122.29 72.22
  C 127.90 73.68 128.03 78.88 127.32 84.11
  Q 126.33 91.42 125.73 98.79
  Q 125.69 99.26 125.22 99.26
  L 117.91 99.25
  Q 117.30 99.25 117.44 98.66
  L 118.08 96.05
  Q 118.35 94.96 117.56 95.75
  Z
  M 119.07 88.79
  Q 119.53 87.46 118.16 87.11
  Q 115.19 86.35 111.76 87.51
  C 106.79 89.20 108.70 96.37 114.01 94.42
  Q 117.58 93.12 119.07 88.79
  Z"
/>
<path fill="#ffffff" d="
  M 41.3949 98.7641
  A 14.28 12.08 119.7 0 1 37.9769 80.3749
  A 14.28 12.08 119.7 0 1 55.5451 73.9559
  A 14.28 12.08 119.7 0 1 58.9631 92.3451
  A 14.28 12.08 119.7 0 1 41.3949 98.7641
  Z
  M 47.2558 93.1121
  A 6.85 3.49 99.7 0 0 51.8501 86.9480
  A 6.85 3.49 99.7 0 0 49.5642 79.6079
  A 6.85 3.49 99.7 0 0 44.9699 85.7720
  A 6.85 3.49 99.7 0 0 47.2558 93.1121
  Z"
/>
<path fill="#ffffff" d="
  M 72.83 80.17
  C 75.74 75.71 79.60 71.39 85.56 73.36
  A 1.42 1.35 80.1 0 1 86.26 73.88
  Q 88.12 76.50 87.46 79.74
  Q 87.26 80.68 87.91 79.97
  C 91.33 76.22 92.89 72.62 98.73 72.85
  C 103.23 73.03 103.03 78.70 102.50 81.76
  Q 100.99 90.44 99.49 99.14
  Q 99.41 99.59 98.96 99.58
  L 91.46 99.58
  Q 90.83 99.58 90.92 98.96
  L 93.23 82.23
  A 1.24 1.23 -11.5 0 0 91.37 81.00
  C 85.73 84.40 85.81 91.64 85.02 99.09
  A 0.55 0.53 -87.0 0 1 84.49 99.58
  L 76.04 99.57
  Q 75.53 99.57 75.60 99.06
  L 78.18 82.26
  A 1.42 1.42 0.0 0 0 75.80 81.02
  C 70.52 86.07 70.57 92.50 69.71 99.09
  Q 69.64 99.59 69.15 99.59
  L 61.04 99.57
  Q 60.34 99.57 60.48 98.88
  Q 62.99 86.75 63.74 74.39
  Q 63.77 73.94 64.21 73.90
  L 72.22 73.22
  A 0.52 0.52 0.0 0 1 72.78 73.77
  L 72.43 80.03
  A 0.22 0.22 0.0 0 0 72.83 80.17
  Z"
/>
<path fill="#ffffff" d="
  M 151.4366 98.7480
  A 14.29 12.11 119.9 0 1 148.0619 80.3233
  A 14.29 12.11 119.9 0 1 165.6834 73.9720
  A 14.29 12.11 119.9 0 1 169.0581 92.3967
  A 14.29 12.11 119.9 0 1 151.4366 98.7480
  Z
  M 157.1594 93.1814
  A 6.76 3.44 99.8 0 0 161.6998 87.1055
  A 6.76 3.44 99.8 0 0 159.4606 79.8586
  A 6.76 3.44 99.8 0 0 154.9202 85.9345
  A 6.76 3.44 99.8 0 0 157.1594 93.1814
  Z"
/>
<path fill="#ffffff" d="
  M 23.98 80.93
  L 15.21 81.12
  Q 14.81 81.12 14.87 80.73
  L 15.89 73.85
  Q 15.95 73.40 16.41 73.40
  L 36.67 73.43
  Q 37.01 73.43 37.08 73.76
  Q 37.84 77.55 36.49 78.96
  Q 30.71 84.97 25.17 91.16
  A 0.43 0.43 0.0 0 0 25.50 91.87
  L 34.30 91.72
  A 0.59 0.59 0.0 0 1 34.89 92.42
  L 33.68 98.89
  Q 33.59 99.37 33.10 99.37
  L 12.36 99.38
  Q 11.84 99.38 11.85 98.86
  L 11.96 95.07
  A 0.98 0.98 0.0 0 1 12.22 94.43
  L 24.20 81.44
  Q 24.68 80.92 23.98 80.93
  Z"
/>
<ellipse fill="#ff3245" cx="0.00" cy="0.00" transform="translate(48.41,86.36) rotate(99.7)" rx="6.85" ry="3.49"/>
<ellipse fill="#ff3245" cx="0.00" cy="0.00" transform="translate(158.31,86.52) rotate(99.8)" rx="6.76" ry="3.44"/>
<path fill="#ff3245" d="
  M 119.07 88.79
  Q 117.58 93.12 114.01 94.42
  C 108.70 96.37 106.79 89.20 111.76 87.51
  Q 115.19 86.35 118.16 87.11
  Q 119.53 87.46 119.07 88.79
  Z"
/>
</svg>
