<svg width="52" height="52" viewBox="0 0 52 52" fill="none" xmlns="http://www.w3.org/2000/svg">
<circle cx="26" cy="26" r="26" fill="#5AB2AF" fill-opacity="0.57"/>
<g clip-path="url(#clip0_122_3)">
<path d="M26 14C32.6274 14 38 19.3726 38 26C38 32.6274 32.6274 38 26 38C19.3726 38 14 32.6274 14 26C14 19.3726 19.3726 14 26 14Z" stroke="#1C1F35" stroke-width="2" stroke-linecap="round" stroke-linejoin="round"/>
<path d="M15 30H37" stroke="#1C1F35" stroke-width="2" stroke-linecap="round" stroke-linejoin="round"/>
<path d="M15 22H37" stroke="#1C1F35" stroke-width="2" stroke-linecap="round" stroke-linejoin="round"/>
<path d="M26 14C28.2091 14 30 19.3726 30 26C30 32.6274 28.2091 38 26 38C23.7909 38 22 32.6274 22 26C22 19.3726 23.7909 14 26 14Z" stroke="#1C1F35" stroke-width="2" stroke-linecap="round" stroke-linejoin="round"/>
</g>
<defs>
<clipPath id="clip0_122_3">
<rect width="26" height="26" fill="white" transform="translate(13 13)"/>
</clipPath>
</defs>
</svg>
