<svg width="52" height="52" viewBox="0 0 52 52" fill="none" xmlns="http://www.w3.org/2000/svg">
<circle cx="26" cy="26" r="26" fill="#5AB2AF" fill-opacity="0.57"/>
<g clip-path="url(#clip0_122_5)">
<path d="M35 25.143H31.8579C31.4412 25.143 31.0416 25.3035 30.747 25.5893C30.4523 25.8751 30.2868 26.2626 30.2868 26.6668V30.4762C30.2868 30.8804 30.4523 31.2679 30.747 31.5537C31.0416 31.8395 31.4412 32 31.8579 32H33.4289C33.8456 32 34.2452 31.8395 34.5398 31.5537C34.8345 31.2679 35 30.8804 35 30.4762V25.143ZM35 25.143C35 23.9359 34.7536 22.7408 34.275 21.6266C33.7964 20.5123 33.095 19.501 32.2114 18.6511C31.3277 17.8011 30.2793 17.1292 29.1265 16.6743C27.9738 16.2193 26.7396 15.9903 25.4951 16.0003C24.2514 15.9915 23.0183 16.2215 21.8667 16.677C20.7151 17.1326 19.6678 17.8046 18.7852 18.6545C17.9026 19.5043 17.2021 20.5152 16.7241 21.6288C16.2461 22.7424 16 23.9367 16 25.143M16 25.143V30.4762C16 30.8804 16.1655 31.2679 16.4602 31.5537C16.7548 31.8395 17.1544 32 17.5711 32H19.1421C19.5588 32 19.9584 31.8395 20.253 31.5537C20.5477 31.2679 20.7132 30.8804 20.7132 30.4762V26.6668C20.7132 26.2626 20.5477 25.8751 20.253 25.5893C19.9584 25.3035 19.5588 25.143 19.1421 25.143H16Z" stroke="#1C1F35" stroke-width="2" stroke-linecap="round" stroke-linejoin="round"/>
<path d="M35 31V33.1429C35 33.9006 34.661 34.6273 34.0575 35.1632C33.454 35.699 32.6356 36 31.7821 36H26" stroke="#1C1F35" stroke-width="2" stroke-linecap="round" stroke-linejoin="round"/>
</g>
<defs>
<clipPath id="clip0_122_5">
<rect width="21" height="22" fill="white" transform="translate(15 15)"/>
</clipPath>
</defs>
</svg>
