<svg width="70" height="70" viewBox="0 0 70 70" fill="none" xmlns="http://www.w3.org/2000/svg">
<circle cx="35" cy="35" r="35" fill="#273270"/>
<g clip-path="url(#clip0_130_13)">
<path d="M26.9741 26.1408C26.8395 26.1449 26.7071 26.1743 26.5848 26.2272C26.4625 26.28 26.3528 26.3554 26.2622 26.4487C26.1715 26.542 26.1018 26.6514 26.0571 26.7704C26.0124 26.8894 25.9936 27.0156 26.0019 27.1416C26.1364 29.3015 26.7704 34.5716 29.806 37.8583C33.4409 41.8181 38.1748 43.1824 43.0317 42.9808C43.292 42.9662 43.5368 42.8596 43.7165 42.6826C43.8962 42.5055 43.9975 42.2712 44 42.0268V38.5674C43.997 38.2446 43.8783 37.9322 43.663 37.6802C43.4476 37.4282 43.1482 37.2513 42.8127 37.1779L40.3804 36.6739C40.0796 36.6138 39.7664 36.6397 39.4815 36.7481C39.1965 36.8566 38.9528 37.0427 38.7819 37.2823L38.244 38.0454C38.1946 38.1153 38.1208 38.1668 38.0352 38.1911C37.9496 38.2154 37.8577 38.211 37.7752 38.1786C36.5379 37.6783 31.6081 35.5184 31.0663 31.8753C31.0557 31.805 31.0675 31.7333 31.1003 31.6692C31.1332 31.6051 31.1855 31.5516 31.2507 31.5154L32.2267 30.9574C32.4944 30.802 32.7047 30.5732 32.8291 30.3022C32.9535 30.0311 32.986 29.7308 32.9222 29.4419L32.3881 27.1236C32.31 26.7988 32.1142 26.5093 31.834 26.3045C31.5537 26.0998 31.2064 25.9923 30.8511 26.0004L26.9741 26.1408Z" stroke="white"/>
</g>
<defs>
<clipPath id="clip0_130_13">
<rect width="20" height="19" fill="white" transform="translate(25 25)"/>
</clipPath>
</defs>
</svg>
