<svg width="46" height="58" viewBox="0 0 46 58" fill="none" xmlns="http://www.w3.org/2000/svg">
<path d="M1 1H35.375C37.8614 1 40.246 1.88236 42.0041 3.45298C43.7623 5.0236 44.75 7.15381 44.75 9.375V48.4583C44.75 49.1987 44.4208 49.9088 43.8347 50.4323C43.2487 50.9559 42.4538 51.25 41.625 51.25H32.25" stroke="black" stroke-width="2" stroke-linecap="round" stroke-linejoin="round"/>
<path d="M1 1L24.7125 5.23775C26.8375 5.61718 28.7497 6.64253 30.1239 8.13939C31.4981 9.63625 32.2494 11.5122 32.25 13.448V53.4275C32.2497 53.8404 32.1469 54.248 31.9491 54.6211C31.7512 54.9942 31.4631 55.3235 31.1056 55.5852C30.7482 55.8468 30.3302 56.0344 29.8817 56.1344C29.4333 56.2344 28.9657 56.2443 28.5125 56.1633L6.025 52.1489C4.60763 51.8958 3.33227 51.2117 2.41606 50.213C1.49985 49.2144 0.999428 47.9629 1 46.6717V1ZM22.875 28.9167V34.5Z" fill="#5AB2AF"/>
<path d="M22.875 28.9167V34.5M1 1L24.7125 5.23775C26.8375 5.61718 28.7497 6.64253 30.1239 8.13939C31.4981 9.63625 32.2494 11.5122 32.25 13.448V53.4275C32.2497 53.8404 32.1469 54.248 31.9491 54.6211C31.7512 54.9942 31.4631 55.3235 31.1056 55.5852C30.7482 55.8468 30.3302 56.0344 29.8817 56.1344C29.4333 56.2344 28.9657 56.2443 28.5125 56.1633L6.025 52.1489C4.60763 51.8958 3.33227 51.2117 2.41606 50.213C1.49985 49.2144 0.999428 47.9629 1 46.6717V1Z" stroke="black" stroke-width="2" stroke-linecap="round" stroke-linejoin="round"/>
</svg>
