<svg width="50" height="51" viewBox="0 0 50 51" fill="none" xmlns="http://www.w3.org/2000/svg">
<g clip-path="url(#clip0_170_19)">
<path d="M26.3856 38.6618C28.0419 39.7448 29.9148 40.4851 31.8854 40.8355C33.856 41.1859 35.8809 41.1387 37.8314 40.6971C39.7819 40.2554 41.6154 39.4289 43.2151 38.2701C44.8148 37.1113 46.1459 35.6456 47.1236 33.9662C48.1012 32.2868 48.7041 30.4304 48.8939 28.5151C49.0836 26.5999 48.8561 24.6677 48.2258 22.8414C47.5955 21.0152 46.5762 19.3348 45.2327 17.9073C43.8892 16.4797 42.251 15.3362 40.4221 14.5494C40.0206 14.3556 39.7015 14.034 39.5195 13.6395C38.3495 10.9639 36.3825 8.67959 33.8654 7.07316C31.3481 5.46672 28.3926 4.60974 25.37 4.60974C22.3473 4.60974 19.3919 5.46672 16.8747 7.07316C14.3574 8.67959 12.3905 10.9639 11.2206 13.6395C11.0385 14.034 10.7194 14.3556 10.3178 14.5494C8.48902 15.3362 6.85077 16.4797 5.50729 17.9073C4.1638 19.3348 3.1445 21.0152 2.51419 22.8414C1.88388 24.6677 1.65638 26.5999 1.84615 28.5151C2.03592 30.4304 2.6388 32.2868 3.61645 33.9662C4.5941 35.6456 5.92513 37.1113 7.52487 38.2701C9.12462 39.4289 10.9581 40.2554 12.9086 40.6971C14.8591 41.1387 16.8841 41.1859 18.8546 40.8355C20.8251 40.4851 22.6982 39.7448 24.3545 38.6618C24.6562 38.4717 25.0091 38.3704 25.37 38.3704C25.7309 38.3704 26.0839 38.4717 26.3856 38.6618Z" fill="#5AB2AF" stroke="#1C1F35" stroke-width="2" stroke-linecap="round" stroke-linejoin="round"/>
<path d="M44.4473 29.6428C43.2847 32.4909 40.4261 37.2571 32.6029 37.2571" stroke="#1C1F35" stroke-width="2" stroke-linecap="round" stroke-linejoin="round"/>
<path d="M8.07922 10.4785C9.40715 7.50399 12.5056 3.25461 19.2525 1.72375" stroke="#1C1F35" stroke-width="2" stroke-linecap="round" stroke-linejoin="round"/>
<path d="M25.3693 49.667V18.4705" stroke="#1C1F35" stroke-width="2" stroke-linecap="round" stroke-linejoin="round"/>
<path d="M25.3697 32.3357L14.5376 27.1362" stroke="#1C1F35" stroke-width="2" stroke-linecap="round" stroke-linejoin="round"/>
<path d="M15.4401 24.1142L18.9717 26.0717" stroke="white" stroke-linecap="round" stroke-linejoin="round"/>
<path d="M22.2219 18.1819V22.0968" stroke="#1C1F35" stroke-linecap="round" stroke-linejoin="round"/>
<path d="M28.125 43V48" stroke="#1C1F35" stroke-width="1.5" stroke-linecap="round" stroke-linejoin="round"/>
<path d="M25.3693 27.1363L36.2013 21.9369" stroke="#1C1F35" stroke-width="2" stroke-linecap="round" stroke-linejoin="round"/>
</g>
<defs>
<clipPath id="clip0_170_19">
<rect width="50" height="51" fill="white"/>
</clipPath>
</defs>
</svg>
