<svg width="50" height="53" viewBox="0 0 50 53" fill="none" xmlns="http://www.w3.org/2000/svg">
<path d="M1.81555 20.5213V6.99797C1.81555 6.50918 2.01743 6.04039 2.37678 5.69475C2.73612 5.34911 3.2235 5.15494 3.73168 5.15494H42.0544C42.5627 5.15494 43.05 5.34911 43.4094 5.69475C43.7687 6.04039 43.9707 6.50918 43.9707 6.99797V20.5213C43.9707 39.8733 26.893 46.2778 23.4919 47.3606C23.1054 47.4982 22.6807 47.4982 22.2943 47.3606C18.8931 46.2778 1.81555 39.8733 1.81555 20.5213Z" fill="#5AB2AF" stroke="#1C1F35" stroke-width="2" stroke-linecap="round" stroke-linejoin="round"/>
<path d="M19.5679 50.0511C16.5686 49.1457 9.20774 45.7266 2.04077 36.8056" stroke="#1C1F35" stroke-width="2" stroke-linecap="round" stroke-linejoin="round"/>
<path d="M33.432 18.0565L19.3723 30.9578L12.3545 24.5072" stroke="#1C1F35" stroke-width="2" stroke-linecap="round" stroke-linejoin="round"/>
<path d="M27.9514 28.7667L22.8925 33.6327" stroke="white" stroke-width="2" stroke-linecap="round" stroke-linejoin="round"/>
<path d="M48.1874 5.11636V18.0924" stroke="#1C1F35" stroke-width="2" stroke-linecap="round" stroke-linejoin="round"/>
<path d="M22.8919 1.23189H1.81262" stroke="#1C1F35" stroke-width="2" stroke-linecap="round" stroke-linejoin="round"/>
</svg>
