<svg width="52" height="56" viewBox="0 0 52 56" fill="none" xmlns="http://www.w3.org/2000/svg">
<g clip-path="url(#clip0_90_11)">
<path d="M11.8401 47.0356H36.3824" stroke="#1C1F35" stroke-width="2" stroke-linecap="round" stroke-linejoin="round"/>
<path d="M23.491 34.3434L34.1113 26.4144" stroke="#1C1F35" stroke-width="2" stroke-linecap="round" stroke-linejoin="round"/>
<path d="M6.63367 32.1475L10.7493 37.2513" stroke="#1C1F35" stroke-width="2" stroke-linecap="round" stroke-linejoin="round"/>
<path d="M0.684204 30.303L4.79987 35.4068" stroke="#1C1F35" stroke-width="2" stroke-linecap="round" stroke-linejoin="round"/>
<path d="M10.7891 30.073L17.26 37.7705C18.1229 38.7981 19.2237 39.4444 20.3988 39.6133C21.574 39.7822 22.7607 39.4648 23.7824 38.7082L49.7692 19.5187L46.5766 14.547C45.7461 13.2584 44.5802 12.3896 43.2896 12.0976C41.999 11.8057 40.6688 12.1098 39.5393 12.955L31.9183 18.6465L21.6197 14.2853L18.7876 15.8335C18.5757 15.9488 18.3901 16.1301 18.2479 16.3606C18.1057 16.591 18.0114 16.8633 17.9738 17.1522C17.9361 17.4411 17.9564 17.7375 18.0326 18.0139C18.1089 18.2903 18.2386 18.5378 18.41 18.7337L23.6795 24.7522L18.8734 28.2412L14.0675 25.6244L11.1839 27.1945C10.9741 27.309 10.79 27.4881 10.6485 27.7157C10.5069 27.9433 10.4122 28.2121 10.373 28.4979C10.3339 28.7837 10.3514 29.0773 10.424 29.3523C10.4966 29.6274 10.6221 29.875 10.7891 30.073Z" stroke="#1C1F35" stroke-width="2" stroke-linecap="round" stroke-linejoin="round"/>
<path d="M47.1662 15.6785C43.0404 19.6969 38.9677 20.202 36.0106 15.6785L38.3341 13.8055C41.2215 11.4782 45.0665 12.2935 47.1662 15.6785Z" fill="#5AB2AF" stroke="#1C1F35" stroke-width="2"/>
</g>
<defs>
<clipPath id="clip0_90_11">
<rect width="52" height="56" fill="white"/>
</clipPath>
</defs>
</svg>
