<svg width="73" height="73" viewBox="0 0 73 73" fill="none" xmlns="http://www.w3.org/2000/svg">
<path d="M49.5356 33.8929V22.1607H56.1253C59.4627 22.1607 62.4708 24.1735 63.744 27.2585L66.1464 33.0796C66.3063 33.4671 66.0214 33.8929 65.6022 33.8929H49.5356Z" fill="#5AB2AF" stroke="#1C1F35" stroke-width="2"/>
<path d="M5.21445 41.7143H49.5359" stroke="#1C1F35" stroke-width="2" stroke-linecap="round" stroke-linejoin="round"/>
<path d="M53.4465 62.5715C57.7661 62.5715 61.2678 59.0697 61.2678 54.75C61.2678 50.4304 57.7661 46.9285 53.4465 46.9285C49.1268 46.9285 45.625 50.4304 45.625 54.75C45.625 59.0697 49.1268 62.5715 53.4465 62.5715Z" stroke="#1C1F35" stroke-width="2" stroke-linecap="round" stroke-linejoin="round"/>
<path d="M19.5531 62.5715C23.8728 62.5715 27.3745 59.0697 27.3745 54.75C27.3745 50.4304 23.8728 46.9285 19.5531 46.9285C15.2335 46.9285 11.7317 50.4304 11.7317 54.75C11.7317 59.0697 15.2335 62.5715 19.5531 62.5715Z" fill="#5AB2AF" stroke="#1C1F35" stroke-width="2" stroke-linecap="round" stroke-linejoin="round"/>
<path d="M45.625 53.4465H27.375" stroke="#1C1F35" stroke-width="2" stroke-linecap="round" stroke-linejoin="round"/>
<path d="M11.6671 53.4465H7.43052C6.84278 53.4465 6.27912 53.206 5.86352 52.7783C5.44793 52.3504 5.21445 51.7702 5.21445 51.1652V19.2277C5.21445 18.6226 5.44793 18.0424 5.86352 17.6145C6.27912 17.1868 6.84278 16.9465 7.43052 16.9465H49.5359V47.5152" stroke="#1C1F35" stroke-width="2" stroke-linecap="round" stroke-linejoin="round"/>
<path d="M49.5356 33.8928H67.7856V51.2738C67.7856 51.85 67.5453 52.4026 67.1174 52.8101C66.6896 53.2175 66.1093 53.4463 65.5043 53.4463H61.1048" stroke="#1C1F35" stroke-width="2" stroke-linecap="round" stroke-linejoin="round"/>
<path d="M10.4289 33.0792V22.1607" stroke="#1C1F35" stroke-width="2" stroke-linecap="round" stroke-linejoin="round"/>
<path d="M33.8925 36.5H44.8109" stroke="#1C1F35" stroke-width="2" stroke-linecap="round" stroke-linejoin="round"/>
<path d="M33.8932 58.5347H37.8039" stroke="#1C1F35" stroke-width="2" stroke-linecap="round" stroke-linejoin="round"/>
</svg>
