<svg width="52" height="52" viewBox="0 0 52 52" fill="none" xmlns="http://www.w3.org/2000/svg">
<circle cx="26" cy="26" r="26" fill="#5AB2AF" fill-opacity="0.57"/>
<path d="M39.927 17.4482H11.1413C10.5299 17.4482 10.0342 17.9268 10.0342 18.5171V33.4827C10.0342 34.073 10.5299 34.5516 11.1413 34.5516H39.927C40.5385 34.5516 41.0342 34.073 41.0342 33.4827V18.5171C41.0342 17.9268 40.5385 17.4482 39.927 17.4482Z" stroke="#1C1F35" stroke-width="1.5" stroke-linecap="round" stroke-linejoin="round"/>
<path d="M25.5343 30.2759C27.6007 30.2759 29.2757 28.6008 29.2757 26.5345C29.2757 24.4682 27.6007 22.7931 25.5343 22.7931C23.468 22.7931 21.793 24.4682 21.793 26.5345C21.793 28.6008 23.468 30.2759 25.5343 30.2759Z" stroke="#1C1F35" stroke-width="1.5" stroke-linecap="round" stroke-linejoin="round"/>
<path d="M32.4824 17.4482L41.0341 24.9309" stroke="#1C1F35" stroke-width="1.5" stroke-linecap="round" stroke-linejoin="round"/>
<path d="M32.4824 34.5517L41.0341 27.069" stroke="#1C1F35" stroke-width="1.5" stroke-linecap="round" stroke-linejoin="round"/>
<path d="M18.5859 17.4482L10.0342 24.9309" stroke="#1C1F35" stroke-width="1.5" stroke-linecap="round" stroke-linejoin="round"/>
<path d="M18.5859 34.5517L10.0342 27.069" stroke="#1C1F35" stroke-width="1.5" stroke-linecap="round" stroke-linejoin="round"/>
</svg>
